<svg xmlns="http://www.w3.org/2000/svg" viewBox="0 0 145.27 58.1"><defs><style>.b18dc3a8-e74e-475f-ba82-3a60f4d76d4a,.f6d455b8-6998-4bfa-8ef7-ac100320ffc0{opacity:0.22;}</style></defs><title>BTC</title><g id="f7a73d80-1637-4b7e-8053-a867a30f2ebb" data-name="Слой 2"><g id="a31a5688-9475-4e35-ba52-6dedc5d1d9c5" data-name="Слой 1"><g class="f6d455b8-6998-4bfa-8ef7-ac100320ffc0"><path d="M79.67,31.86c0,3.46-2.8,4.42-6.61,4.42H68.18V21.11h4.29c4.07,0,6.57,1,6.57,3.88a3.3,3.3,0,0,1-2.78,3.26C77.94,28.58,79.67,29.41,79.67,31.86Zm-7.9-8.21v3.53h1.34c1.49,0,2.27-.57,2.27-1.84s-.83-1.69-2.56-1.69Zm4.2,8c0-1.53-1.07-2.1-2.62-2.1H71.77v4.12h1.32C74.77,33.68,76,33.33,76,31.66Z"/><path d="M87.12,20.5a2,2,0,0,1-2.06,2,2,2,0,1,1,0-3.94A2,2,0,0,1,87.12,20.5Zm-.31,15.78H83.35V24.66h3.46Z"/><path d="M98.55,35.74a5.78,5.78,0,0,1-3.15.91c-2.56,0-3.81-1.46-3.81-4.2V27.07H90V24.66h1.64V22.14l3.46-.39v2.91h2.67l-.37,2.41h-2.3v5.34c0,1.11.37,1.51,1.09,1.51a2.5,2.5,0,0,0,1.25-.37Z"/><path d="M110.07,25.71l-1.49,2.06a3.53,3.53,0,0,0-2.22-.84c-1.48,0-2.34,1-2.34,3.62s.92,3.37,2.3,3.37a3.82,3.82,0,0,0,2.23-.79l1.52,2.15a6.1,6.1,0,0,1-3.92,1.37c-3.57,0-5.76-2.4-5.76-6.08s2.21-6.28,5.69-6.28A5.87,5.87,0,0,1,110.07,25.71Z"/><path d="M123.55,30.48c0,3.72-2.14,6.17-5.69,6.17s-5.69-2.27-5.69-6.19c0-3.72,2.14-6.17,5.69-6.17S123.55,26.56,123.55,30.48Zm-7.79,0c0,2.58.7,3.66,2.1,3.66S120,33,120,30.48s-.7-3.65-2.1-3.65S115.76,27.94,115.76,30.46Z"/><path d="M131.11,20.5a2.05,2.05,0,1,1-2.06-2A2,2,0,0,1,131.11,20.5Zm-.31,15.78h-3.46V24.66h3.46Z"/><path d="M145.27,27.79v8.49h-3.46v-7.9c0-1.23-.41-1.55-1.09-1.55s-1.4.54-2,1.51v7.94h-3.46V24.66h3l.24,1.38a4.42,4.42,0,0,1,3.55-1.75C144.07,24.29,145.27,25.58,145.27,27.79Z"/></g><path class="b18dc3a8-e74e-475f-ba82-3a60f4d76d4a" d="M29.05,2A27.05,27.05,0,1,1,2,29.05,27.08,27.08,0,0,1,29.05,2m0-2A29.05,29.05,0,1,0,58.1,29.05a29.05,29.05,0,0,0-29-29Z"/><g class="f6d455b8-6998-4bfa-8ef7-ac100320ffc0"><path d="M29.05,6.71A22.34,22.34,0,1,0,51.39,29.05,22.34,22.34,0,0,0,29.05,6.71Zm9.33,24.15a4.59,4.59,0,0,1,1.45,4.2c-.43,1.88-1,3.33-2.61,4.34a7.93,7.93,0,0,1-4.48.87A22,22,0,0,1,30,40l-1.16,4.48-2.75-.72,1-4.34-2-.58-1.16,4.34-2.61-.72,1-4.35L17,36.79l1.3-3a12.49,12.49,0,0,0,1.88.44c1,.29,1.31-.29,1.45-1S24.05,23.33,24.34,22s-.29-1.74-1.3-2a18,18,0,0,0-1.88-.43l.72-2.9L27.24,18l1.15-4.34,2.76.73-1,4.34,2.17.58,1-4.35,2.6.73-1,4.34A13.86,13.86,0,0,1,39,22.32c1.74,1.3,1.59,3.47.87,5.35A4.5,4.5,0,0,1,36.94,30S37.22,30.13,38.38,30.86Z"/><path d="M32.88,22.75a24.34,24.34,0,0,0-3.33-1L28.25,27a17.11,17.11,0,0,0,3.33.72c1.74.29,3.33-.43,3.47-2.17C35.34,23.91,33.75,23.19,32.88,22.75Z"/><path d="M31.87,31a44.43,44.43,0,0,0-4.49-1.3l-1.45,5.79s2.61.72,3.62.87,3.77.43,4.49-1.59S33.17,31.58,31.87,31Z"/></g></g></g></svg>