<svg xmlns="http://www.w3.org/2000/svg" viewBox="0 0 173.15 58.1"><defs><style>.b42dd904-4f1b-4782-83b6-eaa9c0668941,.bb430610-4431-4a3b-a0d5-e7fe1f028570{opacity:0.22;}</style></defs><title>ETH</title><g id="e09fba64-d3ad-4c4d-8e5b-71e8fbdc5e11" data-name="Слой 2"><g id="ebcd0ed4-4595-4165-ba0b-4bf1ab19fa6a" data-name="Слой 1"><g class="b42dd904-4f1b-4782-83b6-eaa9c0668941"><path d="M77.11,23.67H71.77v3.64h4.66v2.51H71.77V33.7h5.72v2.58H68.18V21.11h9.31Z"/><path d="M88.26,35.74a5.78,5.78,0,0,1-3.15.91c-2.57,0-3.81-1.46-3.81-4.2V27.07H79.65V24.66H81.3V22.14l3.46-.39v2.91h2.67l-.38,2.41H84.76v5.34c0,1.11.37,1.51,1.09,1.51a2.5,2.5,0,0,0,1.25-.37Z"/><path d="M101.18,27.79v8.49H97.72v-7.9c0-1.23-.44-1.55-1.1-1.55s-1.4.54-2,1.48v8H91.15V20l3.46-.35v6.22A4.21,4.21,0,0,1,98,24.29C100,24.29,101.18,25.58,101.18,27.79Z"/><path d="M115.58,31.49h-7.2c.24,2.08,1.23,2.65,2.65,2.65a4.73,4.73,0,0,0,2.78-1L115.23,35a7.2,7.2,0,0,1-4.53,1.61c-3.87,0-5.84-2.49-5.84-6.12s1.9-6.24,5.43-6.24c3.32,0,5.36,2.19,5.36,5.95A10.24,10.24,0,0,1,115.58,31.49Zm-3.32-2.23c0-1.58-.51-2.68-1.89-2.68-1.16,0-1.84.75-2,2.83h3.88Z"/><path d="M126.79,24.48l-.54,3.35a4.67,4.67,0,0,0-1-.15c-1.45,0-2,1.07-2.41,2.85v5.75h-3.46V24.66h3l.28,2.25a3.29,3.29,0,0,1,3-2.58A3.88,3.88,0,0,1,126.79,24.48Z"/><path d="M139.25,31.49h-7.2c.24,2.08,1.23,2.65,2.65,2.65a4.73,4.73,0,0,0,2.78-1L138.9,35a7.2,7.2,0,0,1-4.53,1.61c-3.87,0-5.84-2.49-5.84-6.12s1.9-6.24,5.43-6.24c3.32,0,5.36,2.19,5.36,5.95A10.24,10.24,0,0,1,139.25,31.49Zm-3.32-2.23c0-1.58-.51-2.68-1.89-2.68-1.16,0-1.84.75-2,2.83h3.88Z"/><path d="M152.81,36.28h-3l-.16-1.46a4,4,0,0,1-3.52,1.83c-2.17,0-3.24-1.4-3.24-3.65V24.66h3.46v7.9c0,1.18.39,1.53,1.11,1.53a2.29,2.29,0,0,0,1.89-1.35V24.66h3.46Z"/><path d="M173.15,27.79v8.49h-3.46v-7.9c0-1.23-.46-1.55-1-1.55-.74,0-1.27.54-1.77,1.51v7.94h-3.46v-7.9c0-1.23-.46-1.55-1-1.55-.73,0-1.27.54-1.78,1.51v7.94h-3.46V24.66h3l.24,1.36a4.06,4.06,0,0,1,3.38-1.73,2.74,2.74,0,0,1,2.73,1.84,4.08,4.08,0,0,1,3.48-1.84C171.9,24.29,173.15,25.58,173.15,27.79Z"/></g><path class="bb430610-4431-4a3b-a0d5-e7fe1f028570" d="M29.05,2A27.05,27.05,0,1,1,2,29.05,27.08,27.08,0,0,1,29.05,2m0-2A29.05,29.05,0,1,0,58.1,29.05a29.05,29.05,0,0,0-29-29Z"/><path class="bb430610-4431-4a3b-a0d5-e7fe1f028570" d="M29.05,6.71A22.34,22.34,0,1,0,51.39,29.05,22.34,22.34,0,0,0,29.05,6.71Zm0,6.92,9.46,15.71-9.46,5.59-9.47-5.59Zm0,30.84L19.58,31.13l9.47,5.59,9.47-5.59Z"/></g></g></svg>