<svg xmlns="http://www.w3.org/2000/svg" viewBox="0 0 96.19 57.57"><defs><style>.a40cc2b3-f1aa-4082-9353-28ba1ca1288e{opacity:0.22;}.efe0f4be-a24c-4104-9cfe-cf7e0f5ba749{fill-rule:evenodd;}</style></defs><title>MasterCard</title><g id="e88ddc1d-e692-4f85-8b72-fa7a89107015" data-name="Слой 2"><g id="af3728fa-b003-437a-92d3-df1fad2820c9" data-name="Слой 1"><g class="a40cc2b3-f1aa-4082-9353-28ba1ca1288e"><polygon class="efe0f4be-a24c-4104-9cfe-cf7e0f5ba749" points="43.13 29.61 42.43 29.61 41.99 31.52 42.77 31.52 42.77 31.47 43.13 29.61"/><polygon class="efe0f4be-a24c-4104-9cfe-cf7e0f5ba749" points="46.71 29.36 46.7 29.13 46.68 28.92 46.64 28.72 46.57 28.54 46.5 28.37 46.41 28.23 46.31 28.09 46.19 27.98 46.07 27.88 45.92 27.79 45.77 27.71 45.62 27.66 45.46 27.62 45.3 27.59 45.12 27.57 44.94 27.58 44.76 27.61 44.6 27.65 44.43 27.7 44.27 27.78 44.12 27.87 43.98 27.98 43.85 28.09 43.73 28.23 43.61 28.37 43.5 28.53 43.41 28.69 43.33 28.87 43.26 29.06 43.2 29.26 43.16 29.46 43.13 29.61 46.69 29.61 46.71 29.36"/><polygon class="efe0f4be-a24c-4104-9cfe-cf7e0f5ba749" points="23.42 31.23 23.36 31.2 23.27 31.18 23.16 31.16 23.03 31.15 22.89 31.15 22.74 31.15 22.59 31.16 22.42 31.18 22.27 31.2 22.11 31.22 21.96 31.24 21.83 31.27 21.71 31.3 21.61 31.33 21.54 31.34 21.46 31.37 21.35 31.41 21.25 31.46 21.12 31.52 20.99 31.59 20.86 31.66 20.73 31.73 20.59 31.83 20.47 31.93 20.35 32.04 20.25 32.16 20.15 32.29 20.08 32.42 20.02 32.58 19.99 32.73 19.98 33.06 20.03 33.33 20.13 33.52 20.26 33.67 20.4 33.76 20.57 33.82 20.72 33.85 20.88 33.86 21.17 33.85 21.43 33.82 21.68 33.78 21.91 33.72 22.1 33.66 22.29 33.57 22.45 33.48 22.6 33.38 22.72 33.28 22.84 33.16 22.94 33.05 23.01 32.94 23.08 32.82 23.14 32.7 23.19 32.6 23.22 32.49 23.3 32.21 23.36 31.89 23.42 31.58 23.47 31.33 23.46 31.28 23.42 31.23"/><polygon class="efe0f4be-a24c-4104-9cfe-cf7e0f5ba749" points="88.01 29.59 87.97 29.34 87.91 29.11 87.83 28.89 87.73 28.69 87.62 28.51 87.49 28.35 87.34 28.22 87.18 28.1 87 28.02 86.82 27.98 86.62 27.96 86.35 27.98 86.11 28.01 85.89 28.09 85.66 28.19 85.47 28.32 85.28 28.47 85.11 28.64 84.95 28.82 84.8 29.03 84.66 29.26 84.54 29.49 84.43 29.74 84.33 30 84.26 30.27 84.18 30.55 84.12 30.83 84.07 31.26 84.09 31.72 84.16 32.2 84.28 32.66 84.48 33.05 84.73 33.38 85.05 33.59 85.44 33.67 85.71 33.65 85.97 33.59 86.2 33.52 86.42 33.41 86.63 33.3 86.82 33.15 87 32.99 87.17 32.81 87.31 32.62 87.45 32.4 87.58 32.18 87.68 31.95 87.78 31.7 87.86 31.45 87.93 31.19 87.97 30.93 88.02 30.66 88.05 30.37 88.05 30.11 88.04 29.84 88.01 29.59"/><polygon class="efe0f4be-a24c-4104-9cfe-cf7e0f5ba749" points="71.59 31.22 71.53 31.19 71.43 31.16 71.32 31.15 71.2 31.14 71.05 31.14 70.91 31.15 70.75 31.17 70.59 31.19 70.44 31.21 70.29 31.23 70.15 31.26 70.02 31.28 69.89 31.31 69.8 31.33 69.73 31.34 69.65 31.36 69.56 31.39 69.45 31.43 69.32 31.49 69.2 31.55 69.07 31.62 68.94 31.7 68.82 31.79 68.69 31.9 68.58 32.01 68.48 32.13 68.39 32.27 68.32 32.41 68.26 32.57 68.23 32.73 68.22 33.06 68.27 33.33 68.35 33.52 68.47 33.67 68.61 33.76 68.78 33.82 68.94 33.85 69.11 33.86 69.4 33.85 69.67 33.82 69.92 33.77 70.15 33.7 70.36 33.63 70.55 33.54 70.72 33.44 70.88 33.33 71.01 33.22 71.13 33.09 71.23 32.98 71.32 32.85 71.39 32.73 71.44 32.62 71.48 32.5 71.51 32.39 71.55 32.12 71.59 31.84 71.63 31.57 71.65 31.33 71.63 31.27 71.59 31.22"/><path class="efe0f4be-a24c-4104-9cfe-cf7e0f5ba749" d="M96.15,27.26,96,25.8l-.18-1.44L95.61,23l-.32-1.39-.39-1.36-.46-1.34-.51-1.3-.59-1.28-.63-1.24L92,13.86l-.74-1.18-.81-1.12-.85-1.08L88.7,9.43l-1-1-1-.95-1-.91-1.08-.85-1.13-.81L82.3,4.17l-1.2-.69-1.24-.63-1.28-.59-1.32-.51-1.34-.46L74.56.9,73.17.58,71.74.33,70.3.15,68.84,0,67.35,0,65.87,0,64.41.15,63,.33,61.55.58,60.16.9l-1.36.39-1.33.46-1.32.51-1.27.59-1.23.63-1.2.69-1.17.74-1.13.81-1.08.85-1,.85.06.06-1-.91L46,5.72l-1.13-.81-1.17-.74-1.2-.69-1.23-.63L40,2.26l-1.32-.51-1.33-.46L36,.9,34.64.58,33.22.33,31.78.15,30.32,0,28.84,0,27.35,0,25.89.15,24.45.33,23,.58,21.63.9l-1.36.39-1.34.46-1.32.51-1.28.59-1.24.63-1.2.69-1.18.74-1.13.81-1.08.85-1.05.91-1,.95-1,1-.91,1.05-.85,1.08-.81,1.12-.74,1.18-.7,1.19-.64,1.24-.58,1.28-.51,1.3-.46,1.34L.9,21.57.58,23l-.25,1.4L.15,25.8,0,27.26l0,1.47,0,1.49.11,1.46.18,1.44.25,1.43L.9,35.94l.39,1.37.46,1.34L2.26,40l.58,1.28.64,1.24.7,1.21.74,1.17L5.73,46l.85,1.09.91,1,1,1,1,1,1.05.9,1.08.85,1.13.81,1.18.75,1.2.7,1.24.63,1.28.58,1.32.51,1.34.46,1.36.39L23,57l1.43.25,1.44.19,1.46.1,1.49,0,1.48,0,1.46-.1,1.44-.19L34.64,57,36,56.67l1.36-.39,1.33-.46L40,55.31l1.27-.58,1.23-.63,1.2-.7,1.17-.75L46,51.84,47.12,51l1-.9-.06.06,1,.84,1.08.85,1.13.81,1.17.75,1.2.7,1.23.63,1.27.58,1.32.51,1.33.46,1.36.39,1.39.32,1.42.25,1.44.19,1.46.1,1.48,0,1.49,0,1.46-.1,1.44-.19L73.17,57l1.39-.32,1.36-.39,1.34-.46,1.32-.51,1.28-.58,1.24-.63,1.2-.7,1.18-.75,1.13-.81L85.69,51l1-.9,1-1,1-1,.91-1L90.46,46l.81-1.13L92,43.69l.7-1.21.63-1.24L93.93,40l.51-1.31.46-1.34.39-1.37.32-1.39.25-1.43L96,31.68l.11-1.46,0-1.49ZM46.05,9.48h4.08c.46.5.89,1,1.31,1.56H44.73ZM43.36,13h9.46c.34.51.66,1,1,1.57H42.43Zm-2,3.47H54.79c.24.51.46,1,.68,1.56H40.72ZM40,19.9H56.17c.16.51.32,1,.46,1.56H39.55ZM15.69,36H13.05l1.67-9.53h-.11L10.66,36h-3l0-.4-.07-1.06-.08-1.51-.1-1.72-.1-1.74-.09-1.53L7.16,27l0-.47H7L5.38,36H2.74l2.2-12.75h4.6L10,30.83l3.18-7.56h4.79Zm10.12-2.16L25.42,36H23l.07-.4.05-.36,0-.27,0-.15L23,35l-.15.15-.19.15-.2.13-.23.14-.25.12-.25.11-.26.1-.28.09-.28.06-.29.06-.29,0-.28,0H19.8l-.27,0-.26,0L18.93,36l-.32-.1-.27-.13-.24-.14-.21-.16-.2-.17-.15-.19L17.4,35l-.12-.21-.09-.21-.08-.21-.06-.22,0-.22,0-.22,0-.22v-.21l0-.38.06-.36.1-.34.12-.33.16-.31.17-.28.21-.27.23-.25.24-.22.28-.2.28-.19.29-.15.31-.14.32-.11.33-.08.34-.06h.24l.12,0h.14l.14,0,.17,0,.16,0,.17,0h.17l.16,0h1.86l0-.07.06-.17.05-.2,0-.19,0-.21-.09-.2-.12-.17-.15-.15-.19-.12-.2-.09-.23-.06-.26,0H21.46l-.32,0-.31,0-.31,0-.3,0-.29,0-.29.05-.25,0-.23.05-.22.06-.17.06-.14.07-.1.06L19.22,26l.21-.09.21-.08.24-.07.23,0,.23,0,.26,0,.25,0,.26,0,.27,0h2.19l.27,0,.29,0,.3.07.31.08.3.12.29.13.3.17.27.18.24.22.21.23.2.26.14.29.1.32.06.33v.36l-.06.39Zm8.6-6h-.13l-.14,0-.12,0-.13,0-.12,0-.12,0-.13,0-.14,0-.13,0h-.94l-.26,0-.28,0-.19,0-.19,0-.16.06-.15.06L31,28l-.13.07-.1.1-.08.09-.06.11,0,.1,0,.12v.12l0,.12,0,.13.08.12.09.13.2.18.23.15.27.13.29.1.31.1.32.11.32.11.32.13.29.16.27.21.24.24.21.3.15.37.1.44,0,.52,0,.61-.07.46-.12.4-.15.37-.2.32-.22.28-.25.24-.27.22-.31.18-.31.15-.32.12-.33.1-.34.08-.33.06-.32,0-.32,0H28.09l-.23,0-.22,0-.21,0-.18,0-.19,0-.16-.05-.17,0-.15-.06-.16,0-.16-.06.43-2.15.09,0,.11,0,.13,0,.17,0,.17,0,.2,0,.21,0,.23,0,.25,0,.25,0,.26,0,.27,0h1.13l.28-.06.22-.08.18-.1.14-.14.09-.14.08-.15.05-.16,0-.14,0-.28-.09-.25L31,32.22l-.24-.17-.29-.14-.34-.15-.38-.13-.38-.16L29,31.3l-.37-.21-.34-.25-.31-.3-.25-.37-.17-.44-.09-.52v-.62l.05-.38.07-.36.09-.33.12-.31.16-.29.17-.26.2-.24.25-.21.28-.19.31-.15.35-.15.39-.1.43-.09.48-.07.52,0h1.84l.24,0,.23,0,.19,0,.18,0,.16,0,.14,0,.12,0,.12,0,.1,0h.25Zm4.93,7.76-.07,0-.07,0-.07,0-.07,0-.07,0-.09,0-.09,0-.1,0-.09,0-.12,0-.12,0-.12,0-.15,0L38,36l-.17,0h-.74l-.38,0-.34,0L36,35.89l-.27-.07-.22-.09-.18-.09-.17-.12-.13-.13L35,35.26l-.07-.17,0-.16,0-.19v-.41l0-.23,0-.24,1.85-10.59H39.4v.09H57.06c.09.52.18,1,.25,1.57H39.12l-.11.69h1.62l-.35,2.19-1.71,0-.93,5.42v.19l0,.17.09.13.13.1.17.07.2.06.21,0,.23,0h.22l.19,0,.18,0,.15,0,.13,0,.09,0,0,0h0l-.34,1.81ZM42.75,32l0,.18.07.18.08.18.11.18.11.17.14.16.14.15.16.15.17.11.18.11.19.09.2.06.19,0,.25,0,.25,0,.25,0,.25,0h.77l.26,0,.26,0,.27,0,.27-.06.26-.08.27-.11.28-.12.27-.15.29-.17-.39,2.39-.16.08-.15.08-.16.06-.14.05-.15,0-.16.05-.15,0-.17,0-.17,0-.19,0-.21,0-.22,0H44.7l-.49,0-.48-.07-.49-.12-.48-.14-.45-.19-.44-.24-.41-.28-.38-.33-.33-.4-.28-.45-.23-.51-.17-.57L40,32l0-.68H38.42l-.09-1.58H40.1l.06-.31.11-.41.14-.41.18-.42.22-.43.27-.41.31-.38.38-.37.43-.33.49-.3.56-.24.63-.17.7-.12.79,0h.38l.39,0,.4.07.4.1.39.14.38.18.35.23.32.27.29.33.24.39.19.45.14.51.08.58v.66l-.07.74-.15.82,0,.59h-6.3l0,.12v.17Zm6.83,16.68h-3L45.22,47.1H51C50.54,47.65,50.07,48.17,49.58,48.68Zm2.85-3.48H43.75l-1-1.56H53.43C53.11,44.17,52.78,44.69,52.43,45.2Zm2.06-3.46H41.7L41,40.17H55.21C55,40.7,54.75,41.22,54.49,41.74ZM56,38.26H40.23l-.49-1.56H56.45C56.3,37.22,56.13,37.74,56,38.26Zm9-12.5-.17-.06-.19-.05-.18,0-.2,0-.21,0-.22,0-.23,0h-.71l-.26,0-.26,0-.27.05-.27.07-.27.11-.28.14-.27.17-.26.22-.25.25-.25.31-.23.36-.21.43-.21.48-.18.54-.16.63,0,.34,0,.35,0,.33v.34l0,.33.06.31.09.29.11.29.14.26.18.25.2.23.24.2.26.17.3.15.33.13.37.08.12,0,.15,0,.18,0,.19,0,.21,0h.47l.24,0,.25,0,.26,0,.24-.06.24-.08.24-.11.23-.13.2-.15.2-.18-.44,2.6-.06,0-.06.05-.07.07-.09.06-.11.08-.13.07-.16.06-.18.06-.22.07-.25,0-.29,0-.34,0L62,36H61.1l-.55,0-.44,0-.45-.1-.45-.14-.44-.2-.43-.23L57.93,35l-.39-.34-.36-.39-.12-.17c0,.25-.08.49-.13.73H52L51.8,36H49l1.81-10.4h2.79l-.35,1.75.15-.19.14-.19.14-.19.14-.16.15-.17.14-.15.16-.14.17-.13.17-.11.18-.1.21-.1.22-.08.23-.05.26-.05.27,0,.3,0h.45l0,0,0,.06-.07.12-.09.15-.09.16-.1.19-.1.18-.08.19-.08.27-.09.27-.07.27-.07.25,0,.22,0,.17,0,.12v0h-.29l-.38,0-.33.05-.3.07-.28.09-.23.11-.21.12-.18.14-.15.15-.14.16-.11.18-.1.18-.08.19,0,.08h3.18l.06-.48.08-.4.09-.39.1-.38.09-.36.11-.34.13-.34.12-.32.14-.3.14-.3.15-.28.17-.27.17-.26.18-.24.19-.23.19-.21.21-.21.22-.19.22-.19.24-.16.24-.16.26-.14.26-.13.28-.12.28-.1.3-.1.3-.08.31-.07.33-.05L62,22.9l.35,0,.35,0h.68l.3,0,.29,0,.29,0,.28,0,.26.06.25.05.23.06.23.06.19.06.18.05.16.06.14.05.11,0,.09,0,.06,0-.49,2.69-.12-.07-.13-.06L65.54,26l-.14-.06-.15-.06-.16-.06ZM74,33.86,73.6,36H71.17l0-.4V35l0-.12-.13.14-.15.15-.17.14-.2.13-.2.13-.23.12-.25.11-.24.1-.26.08-.27.07-.27,0-.28,0-.28,0H68l-.26,0-.26,0L67.15,36l-.31-.1-.28-.13-.25-.14-.21-.16-.19-.17-.15-.19L65.62,35l-.11-.21-.09-.21-.08-.21,0-.22,0-.22,0-.22,0-.22v-.21l0-.38.06-.36.09-.34.13-.33.14-.31.19-.28L66,31l.22-.25.26-.22.26-.2.28-.19.3-.15.3-.14L68,29.7l.32-.08.33-.06h.24l.12,0h.14l.14,0,.16,0,.16,0,.18,0h.16l.17,0H72l0-.07,0-.17,0-.2,0-.19,0-.21-.08-.2-.12-.17-.15-.15-.17-.12-.21-.09-.21-.06-.23,0H69.7l-.32,0-.31,0-.31,0-.3,0-.29,0-.29.05-.25,0-.23.05-.21.06-.18.06-.14.07-.1.06L67.45,26l.21-.09.22-.08.23-.07.23,0,.24,0,.25,0,.25,0,.26,0,.27,0h2.14l.27,0,.29,0,.3.07.31.08.31.12.3.13.29.17.27.18.24.22.23.23.19.26.15.29.1.32.07.33v.36l0,.39Zm6.3-5.7-.28.1-.25.11-.22.15-.2.15-.17.17L79,29l-.12.2-.12.2-.1.22-.08.21,0,.21-.06.22,0,.21-1,5.53H74.73l1.82-10.4h2.73L79,27.37l.14-.19.15-.18.14-.18.15-.16.15-.16.16-.16.16-.13.18-.14.18-.11.2-.11.2-.1.21-.08.24-.06.24-.05.26,0,.27,0L81.58,28h-.25L81,28l-.34.06ZM89.84,36H87.15l.19-1.08v-.1l-.15.19-.17.18-.16.16-.18.13-.17.13-.18.1-.17.09-.19.09-.18.07-.18.05-.19,0-.19,0-.2,0-.18,0h-.39l-.5,0-.47-.1-.43-.17-.39-.22-.35-.28L82,35l-.27-.36-.23-.41-.2-.44-.15-.45-.11-.48-.08-.5,0-.49v-.51l0-.49.09-.5.15-.57.17-.54.21-.5.24-.46.25-.44.29-.39.3-.35.32-.32.34-.28.36-.24.37-.22.37-.16.39-.14.39-.09.39-.05.39,0h.29l.27,0,.25.05.23.07.23.08.19.09.19.1.18.11.15.12.15.12.13.13.11.13.1.12.09.13.07.11.06.12.68-3.82H92Z"/><polygon class="efe0f4be-a24c-4104-9cfe-cf7e0f5ba749" points="56.36 32.76 56.18 32.17 56.07 31.52 56.06 31.33 52.6 31.33 52.27 33.23 56.56 33.23 56.36 32.76"/></g></g></g></svg>