<svg xmlns="http://www.w3.org/2000/svg" viewBox="0 0 141.35 44.68"><defs><style>.b7fe40f3-a294-4125-b9f8-869088d93327{opacity:0.22;}</style></defs><title>Payeer</title><g id="b11cb638-b48f-483e-a973-b306c29328df" data-name="Слой 2"><g id="b50cfdc2-63a1-4419-b51b-e99b2a2edc44" data-name="Слой 1"><g class="b7fe40f3-a294-4125-b9f8-869088d93327"><path d="M22.34,0A22.34,22.34,0,1,0,44.68,22.34,22.34,22.34,0,0,0,22.34,0Zm8.94,22.53a5.85,5.85,0,0,1-3.6,3.68,11.9,11.9,0,0,1-3.35.48h-3.8c-.34,0-.42.11-.42.43V36c0,.33-.08.42-.41.42H16.25c-.3,0-.37-.08-.37-.38V11.19c0-.32.08-.41.41-.41,2.94.06,5.89,0,8.83.06a6.86,6.86,0,0,1,3.78.91,6.65,6.65,0,0,1,2.73,4.17A11.05,11.05,0,0,1,31.28,22.53Z"/><path d="M24.78,15.22c-1.42-.14-3-.14-4.42-.14-.27,0-.27.12-.27.31v6.54c0,.24.05.34.33.34,1.4,0,2.79.05,4.19-.1a3,3,0,0,0,2.27-1.25,4.13,4.13,0,0,0,.51-3.25A3,3,0,0,0,24.78,15.22Z"/></g><g class="b7fe40f3-a294-4125-b9f8-869088d93327"><polygon points="97.23 13.5 93.98 20.51 90.72 13.5 87.34 13.5 92.29 24.15 92.29 31.22 95.67 31.22 95.67 24.15 100.62 13.5 97.23 13.5"/><path d="M78.65,13.5,72.74,31.2h3.39l1.2-3.64h6L84.5,31.2h3.38L82,13.5Zm-.32,11.17,2-6.08,2,6.08Z"/><path d="M73.2,18.2c0-4.44-5.25-4.74-6-4.74H61.48V31.2h3.37V25.28h2.57c1.55,0,5.78-.34,5.78-5.13Zm-3.62,1.72A2.61,2.61,0,0,1,67,22.6H64.85V16.32H67.1a2.44,2.44,0,0,1,2.48,2.38v1.22Z"/><polygon points="106.47 23.78 112 23.78 112 20.65 106.47 20.65 106.47 16.35 112.98 16.35 112.98 13.5 103.08 13.5 103.08 31.22 113.64 31.22 113.64 28.38 106.47 28.38 106.47 23.78"/><polygon points="119.26 23.78 124.79 23.78 124.79 20.65 119.26 20.65 119.26 16.35 125.77 16.35 125.77 13.5 115.87 13.5 115.87 31.22 126.43 31.22 126.43 28.38 119.26 28.38 119.26 23.78"/><path d="M137.13,23.81a5.39,5.39,0,0,0,3.34-5.24c0-3.74-2.81-5.07-5.21-5.07h-6.62V31.2H132V24.07h1.55l4.07,7.13h3.72Zm-2.84-2.5H132v-5h2.13c1.59,0,2.72.73,2.72,2.45a2.25,2.25,0,0,1-1.9,2.55A2.09,2.09,0,0,1,134.29,21.31Z"/></g></g></g></svg>