<svg xmlns="http://www.w3.org/2000/svg" viewBox="0 0 213.28 58.1"><defs><style>.a654c5ef-f278-41fb-aac2-4f4b547b0da7,.f9c8742d-f90a-48b8-bc8a-b9765e397fe8{opacity:0.22;}</style></defs><title>PM</title><g id="b413b3d6-cb52-4afa-99c6-d26d378d4e63" data-name="Слой 2"><g id="bb7e4494-6533-4dfb-9f52-2ca37e8dfbb4" data-name="Слой 1"><path class="f9c8742d-f90a-48b8-bc8a-b9765e397fe8" d="M29.05,2A27.05,27.05,0,1,1,2,29.05,27.08,27.08,0,0,1,29.05,2m0-2A29.05,29.05,0,1,0,58.1,29.05a29.05,29.05,0,0,0-29-29Z"/><g class="a654c5ef-f278-41fb-aac2-4f4b547b0da7"><path d="M165.91,19.8h-3.86a.14.14,0,0,0-.13.09c-1.91,4.94-4.46,9.38-6.7,14.18l-.06.06a.15.15,0,0,1-.2-.06l-.4-.76c-1.44-2.92-2.92-5.82-4.3-8.77-.69-1.45-1.22-3-1.89-4.65a.15.15,0,0,0-.13-.09c-1,0-2.15,0-3.23-.09a1.28,1.28,0,0,0-.54.18l-.05,0a.16.16,0,0,0,.05.21,1.35,1.35,0,0,0,.46.24c1.43.37,1.59.56,1.59,2,0,1.82-.1,3.63-.21,5.44-.16,2.44-.34,4.88-.59,7.31-.14,1.38-.39,1.55-1.75,1.8a.88.88,0,0,0-.36.27l0,0a.14.14,0,0,0,0,.19,1,1,0,0,0,.45.16h4.73a1,1,0,0,0,.43-.17l0,0a.16.16,0,0,0,0-.21c-.13-.12-.26-.24-.39-.24-1.37,0-1.79-.31-1.79-2,.06-3.55.25-7,.39-10.55a3.05,3.05,0,0,1,.06-.6.18.18,0,0,1,.09-.1.15.15,0,0,1,.18.1c2.18,4.75,4.29,9.31,6.47,14,0,0,0,0,.05.06a.16.16,0,0,0,.21-.06l7-14.08a.14.14,0,0,1,.18-.07.16.16,0,0,1,.09.12v11.5c0,1.34-.23,1.56-1.59,1.72a.94.94,0,0,0-.41.21.08.08,0,0,0,0,0,.13.13,0,0,0,0,.19.89.89,0,0,0,.47.22h5.36a1.05,1.05,0,0,0,.47-.16.1.1,0,0,0,0,0,.14.14,0,0,0,0-.19,1,1,0,0,0-.42-.24c-1.21-.14-1.6-.48-1.6-1.7q-.19-6.1-.31-12.22c0-2.07.11-2.2,2.11-2.68h.08c.08-.08.15-.17.22-.25a.14.14,0,0,0,0-.19C166.07,19.88,166,19.8,165.91,19.8Z"/><path d="M190,37c-1-.2-1.16-.35-1.16-1.35V29.9c0-2-1.12-3.25-3-3.25a7.92,7.92,0,0,0-2.36.52,9.08,9.08,0,0,0-1.44.69.23.23,0,0,1-.11,0,.25.25,0,0,1-.27-.25l-.07-1v0a.25.25,0,0,0-.3-.2l-2.3,1.07c-.45.21-.32.39-.06.7a2.44,2.44,0,0,1,.7,1.21v6.23c0,.79-.26,1.32-1.15,1.39a.33.33,0,0,0-.21.11l-.06.07a.26.26,0,0,0,.12.35.48.48,0,0,0,.29.1h4a.59.59,0,0,0,.28-.1l.06,0a.27.27,0,0,0,0-.37.45.45,0,0,0-.21-.12c-.83-.1-1.1-.59-1.1-1.36,0-1.84-.07-3.68,0-5.52a2.26,2.26,0,0,1,.59-1.47,2.93,2.93,0,0,1,3.17-.53,2.22,2.22,0,0,1,1.43,2.32v5.21s0,.09,0,.13A1.17,1.17,0,0,1,185.67,37a.49.49,0,0,0-.24.15l-.06.08a.26.26,0,0,0,.15.34.54.54,0,0,0,.25.06h4.09a.92.92,0,0,0,.27-.08.23.23,0,0,0,.1-.07.27.27,0,0,0,0-.37A.55.55,0,0,0,190,37Z"/><path d="M106.58,27.28a.27.27,0,0,0-.23-.2h-2.49a.89.89,0,0,1-.87-.91,19.61,19.61,0,0,1,0-2.3,13.26,13.26,0,0,1,.58-2.92,2,2,0,0,1,.54-.95,2,2,0,0,1,2.83,0c.22.18.41.41.62.6a1,1,0,0,0,1.41,0,.68.68,0,0,0,.12-.12A.87.87,0,0,0,109,19.3a3.47,3.47,0,0,0-1.33-.76,4.87,4.87,0,0,0-5.27,2.2,9.54,9.54,0,0,0-1.5,5.19,1.33,1.33,0,0,1-.89,1.39,3,3,0,0,0-.63.41.22.22,0,0,0,0,.3h.09a.2.2,0,0,0,.19.11h.73c.43,0,.64.14.64.59v6.94c0,.8-.32,1.3-1.19,1.36a.62.62,0,0,0-.3.16.21.21,0,0,0,0,.06.23.23,0,0,0,.1.32.56.56,0,0,0,.31.09h4.42a.84.84,0,0,0,.37-.09.22.22,0,0,0,.1-.11.21.21,0,0,0-.1-.29.81.81,0,0,0-.33-.14c-1.07-.11-1.35-.3-1.35-1.24v-7c0-.49.2-.62.66-.62.71,0,1.33,0,2.13,0S106.68,28.1,106.58,27.28Z"/><path d="M172.11,26.63h-.27a5.65,5.65,0,0,0-5.54,5.77c0,.15,0,.29,0,.43A5.36,5.36,0,0,0,171.82,38h.52a5.46,5.46,0,0,0,5.16-5.73c0-.11,0-.22,0-.34A5.35,5.35,0,0,0,172.11,26.63Zm2,9.63-.1.11a2.75,2.75,0,0,1-3.9.08,5.89,5.89,0,0,1-1.55-4.4,5.61,5.61,0,0,1,1-3.5,2.24,2.24,0,0,1,.32-.37,2.7,2.7,0,0,1,3.81.08C175.54,30.1,175.77,34.26,174.16,36.26Z"/><path d="M89.66,29.93a2.82,2.82,0,0,0-1-2.35,4.37,4.37,0,0,0-4.6-.6,6.11,6.11,0,0,0-3.26,7.59,4.4,4.4,0,0,0,3.73,3.3A4.69,4.69,0,0,0,89.45,36a.8.8,0,0,0,.11-.34.5.5,0,0,0,0-.12.26.26,0,0,0-.33-.13.65.65,0,0,0-.24.15,3,3,0,0,1-2.41,1l-.38,0a4.62,4.62,0,0,1-3.8-5.32.84.84,0,0,1,.66-.44H86l0-.07h3C89.42,30.68,89.66,30.49,89.66,29.93Zm-2.07-.5c0,.35-.6.43-.94.43H82.84a.24.24,0,0,1-.17-.31,3,3,0,0,1,1.86-1.84,2.36,2.36,0,0,1,2.6.27A1.94,1.94,0,0,1,87.59,29.43Z"/><path d="M115.67,29.93a2.8,2.8,0,0,0-1.06-2.35A4.36,4.36,0,0,0,110,27a6.1,6.1,0,0,0-3.26,7.59,4.4,4.4,0,0,0,3.73,3.3A4.69,4.69,0,0,0,115.41,36a.8.8,0,0,0,.11-.34.5.5,0,0,0,0-.12.26.26,0,0,0-.33-.13.55.55,0,0,0-.24.15,3,3,0,0,1-2.41,1l-.38,0a4.62,4.62,0,0,1-3.8-5.32.84.84,0,0,1,.66-.44h2.92v-.07h3C115.43,30.68,115.67,30.49,115.67,29.93Zm-2.12-.5c0,.35-.61.43-.94.43H108.8a.24.24,0,0,1-.17-.31,3,3,0,0,1,1.86-1.84,2.34,2.34,0,0,1,2.59.27A1.9,1.9,0,0,1,113.55,29.43Z"/><path d="M200.24,30a2.81,2.81,0,0,0-1-2.38,4.36,4.36,0,0,0-4.59-.6,6.1,6.1,0,0,0-3.26,7.59,4.4,4.4,0,0,0,3.73,3.3A4.69,4.69,0,0,0,200,36a.8.8,0,0,0,.11-.34.5.5,0,0,0,0-.12.26.26,0,0,0-.33-.13.55.55,0,0,0-.24.15,3,3,0,0,1-2.41,1l-.38,0a4.62,4.62,0,0,1-3.8-5.32.84.84,0,0,1,.66-.44h2.92l0,0h3C200,30.71,200.24,30.52,200.24,30Zm-2.08-.53c0,.35-.61.43-.94.43h-3.81a.24.24,0,0,1-.17-.31,3,3,0,0,1,1.86-1.84,2.34,2.34,0,0,1,2.59.27A1.9,1.9,0,0,1,198.16,29.43Z"/><path d="M122.16,36.53c-3.17-.43-4.87-4.66-2.8-7.43a4.51,4.51,0,0,1,2-1.35,3.16,3.16,0,0,1,3.28,1c.18.18.58.4.7.32a1.21,1.21,0,0,0,.44-.75A1,1,0,0,0,124.9,27a15.87,15.87,0,0,0-3-.19,5.79,5.79,0,0,0-5.35,6c0,.3.07.77.13,1.31a4.77,4.77,0,0,0,4,3.88A5,5,0,0,0,126,35.82a1.89,1.89,0,0,0,.08-.75c-.2.11-.47.16-.61.32A3.42,3.42,0,0,1,122.16,36.53Z"/><path d="M97.34,26.74a4,4,0,0,0-1.7.39,6.67,6.67,0,0,0-1.25.84.21.21,0,0,1-.1,0,.21.21,0,0,1-.23-.19L94,26.53a.21.21,0,0,0-.06-.18.21.21,0,0,0-.29,0L91,27.61h0a.19.19,0,0,0-.07.26.58.58,0,0,0,.18.26c.84.39.84,1.1.84,1.87v5.21c0,1.36,0,1.35-1.31,1.8a.52.52,0,0,0-.29.35.5.5,0,0,0,.35.31h5c.09,0,.19-.1.28-.21a.2.2,0,0,0,0-.27L95.78,37h-.31C94.25,36.93,94,36.7,94,35.46V30.65a4.93,4.93,0,0,1,.21-1.47,1,1,0,0,1,.1-.27,1.14,1.14,0,0,1,1.53-.47c.24.09.46.33.71.33.41,0,1,.1,1.22-.11a1.41,1.41,0,0,0,.36-1.18A1.19,1.19,0,0,0,97.34,26.74Z"/><path d="M131.27,28.1a19.86,19.86,0,0,0,2.44,0c.2,0,.48-.46.51-.57s-.3-.47-.49-.47h-1.89c-1.26,0-1.26.1-1.26-1.24a1.14,1.14,0,0,0-.11-.4h0a.22.22,0,0,0-.29-.1.87.87,0,0,0-.37.28,4.11,4.11,0,0,1-2.24,1.88.82.82,0,0,0-.32.26.25.25,0,0,0,0,.07.21.21,0,0,0,.13.28c1.2.17,1.2.3,1.24,1.61v5.84a2.23,2.23,0,0,0,1.18,2.17,4,4,0,0,0,4.08-.6.66.66,0,0,0,.17-.28.17.17,0,0,0,0-.07.23.23,0,0,0-.21-.23.66.66,0,0,0-.28,0c-1.48.69-2.76.11-2.88-1.49-.13-2.09-.13-4.2-.13-6.3C130.5,28.26,130.76,28.1,131.27,28.1Z"/><path d="M77.71,20.24A5,5,0,0,0,76.33,20a51.41,51.41,0,0,0-5.82-.15,16.81,16.81,0,0,0-1.89.13.41.41,0,0,0-.2.14.32.32,0,0,0,0,.46l.15.1a2.35,2.35,0,0,0,.54.06c1,.11,1.29.42,1.4,1.38V29h2.24V21.55c0-.68.25-1,.92-1h.79c2.54.13,3.88,1.45,4.13,4.06a4.07,4.07,0,0,1-3.28,4.6,28.84,28.84,0,0,1-4.45.38c-1.54.06-3.07,0-4.61,0,1.09.09,2.19.31,3.31.47a16.12,16.12,0,0,0,7.68-.46c1.55-.55,3-1.35,3.54-3.1A4.94,4.94,0,0,0,77.71,20.24Z"/><path d="M72.75,34.74V31.15L70.53,31c0,1.49.06,2.88,0,4.27S70.15,36.8,68.85,37c-.2,0-.37.24-.56.37.2.11.4.31.61.31h5.82c.2,0,.41-.2.61-.3-.18-.13-.35-.36-.54-.38C73.08,36.8,72.76,36.46,72.75,34.74Z"/><path d="M213.27,27.21a1,1,0,0,0-.41-.18H209c-.13,0-.25.11-.38.19v.06h0a2,2,0,0,0,.32.38h.23c1.05.21,1.16.37.75,1.37-.73,1.8-1.51,3.58-2.28,5.36a3.65,3.65,0,0,1-.32.54h-.08c-.24-.44-.41-.79-.6-1.14-.56-1.58-1.11-3.17-1.63-4.77-.32-1-.32-1,.68-1.35.15-.05.25-.22.38-.36v-.08a1.17,1.17,0,0,0-.44-.2h-4.18a1.77,1.77,0,0,0-.45.18s0,.07,0,.07.22.39.36.39a2.1,2.1,0,0,1,1.71,1.64c.66,1.85,1.23,3.76,2.07,5.53a5.47,5.47,0,0,1-.42,5.66c-.49.81-.86,1.68-2,1.68a1.21,1.21,0,0,0-.42,0,1.09,1.09,0,0,0-.72,1.37,1,1,0,0,0,.89.7,1.64,1.64,0,0,0,1.9-1.07c.7-1.39,1.33-2.81,2-4.21,1.54-3.15,3-6.3,4.54-9.44.44-.9.93-1.79,2.09-1.95.1,0,.17-.22.26-.36S213.31,27.25,213.27,27.21Z"/></g><path class="f9c8742d-f90a-48b8-bc8a-b9765e397fe8" d="M29.05,6.71A22.34,22.34,0,1,0,51.39,29.05,22.34,22.34,0,0,0,29.05,6.71ZM18.21,37.07H12.79c-.19,0-.38-.19-.57-.28s.35-.32.54-.36c1.21-.19,1.47-.38,1.56-1.62s0-2.59,0-4H16.4V34.2c0,1.56.32,1.88,1.88,2.11.19,0,.32.22.51.35A1.5,1.5,0,0,1,18.21,37.07ZM24,26.67h-.07a4.6,4.6,0,0,1-3.19,2.87,14.65,14.65,0,0,1-7.14.48c-1.06,0-2.08-.35-3.19-.41h4.3a21.91,21.91,0,0,0,4.12-.36A3.75,3.75,0,0,0,22,25h0a3.67,3.67,0,0,0-3.57-3.77h-1c-.61,0-.87.25-.83.89V29h-2V23.45a6.17,6.17,0,0,0,0-.86c0-.9-.38-1.18-1.27-1.31h-.51a1.78,1.78,0,0,1-.35-.32s.22-.32.38-.35a17,17,0,0,1,1.75,0c1.79,0,3.61,0,5.4.16a4.59,4.59,0,0,1,4.23,4.93A5.35,5.35,0,0,1,24,26.67Zm23.1,10.4-5.24,0c-.19,0-.38-.19-.6-.32s.35-.29.54-.29c1.28-.16,1.5-.35,1.5-1.59V24.44a2,2,0,0,0,0-.35h-.19L36.46,37.52,30.08,23.9v1c0,3.19-.32,6.38-.35,9.79,0,1.56.38,1.79,1.63,1.82.19,0,.35.22.54.35s-.38.22-.57.22H26.92a1.33,1.33,0,0,1-.57-.22c.16,0,.29-.35.48-.38,1.24-.23,1.47-.38,1.59-1.66.26-2.27.42-4.5.55-6.76,0-1.7.16-3.39.22-5s0-1.53-1.47-1.81a4.21,4.21,0,0,1-.64-.39,2.23,2.23,0,0,1,.71-.25H31c.63,1.59,1.14,3,1.78,4.4,1.28,2.74,2.65,5.42,4,8.13l.51.93c2.11-4.56,4.53-8.74,6.38-13.46h3.67a.34.34,0,0,1,.29.22l-.29.32c-1.85.41-2,.54-2,2.46,0,3.79.16,7.56.29,11.32,0,1.15.35,1.44,1.47,1.6.19,0,.38.22.57.35S47.28,37.07,47.06,37.07Z"/></g></g></svg>