<svg xmlns="http://www.w3.org/2000/svg" viewBox="0 0 138.84 45.04"><defs><style>.b33805dc-635d-4299-978b-595c1da1915f{opacity:0.22;}</style></defs><title>VISA</title><g id="fde91c02-110e-4d28-b1f6-a337c57fbc7e" data-name="Слой 2"><g id="a7f172a0-a78d-4b6b-b45d-c32f3b08588b" data-name="Слой 1"><polygon class="b33805dc-635d-4299-978b-595c1da1915f" points="60.19 44.29 48.86 44.29 55.94 0.78 67.27 0.78 60.19 44.29"/><path class="b33805dc-635d-4299-978b-595c1da1915f" d="M128.44,44.29h10.4L129.77.78h-9.11A5.21,5.21,0,0,0,115.43,4L98.54,44.29h11.81l2.36-6.46h14.4ZM116,28.9l6-16.28,3.34,16.28Z"/><path class="b33805dc-635d-4299-978b-595c1da1915f" d="M99.42,11.24,101,1.9A32.67,32.67,0,0,0,90.85,0c-5.62,0-19,2.46-19,14.41,0,11.24,15.67,11.38,15.67,17.28s-14.06,4.85-18.7,1.13l-1.68,9.76A31.73,31.73,0,0,0,80,45c7.73,0,19.39-4,19.39-14.89,0-11.32-15.81-12.37-15.81-17.29S94.57,8.57,99.42,11.24Z"/><path class="b33805dc-635d-4299-978b-595c1da1915f" d="M27.12,23.58,23.44,4.7S23,.78,18.06.78H.21L0,1.52A43.82,43.82,0,0,1,16.82,10,33.26,33.26,0,0,1,27.12,23.58Z"/><path class="b33805dc-635d-4299-978b-595c1da1915f" d="M39.33.78,28.53,30.71l-.7-3.4A34,34,0,0,0,17.39,13a43.6,43.6,0,0,0-5-3.47l9.26,34.75H33.5L51.52.78Z"/></g></g></svg>