<svg xmlns="http://www.w3.org/2000/svg" xmlns:xlink="http://www.w3.org/1999/xlink" viewBox="0 0 71.09 69.71"><defs><style>.bd29e9fd-df54-4f04-a92f-c48fc81aa1d4{fill:url(#bac5394b-de93-4973-bf3d-5c1f54258ecd);}.b4d018c8-16c0-4519-9251-adfd3569bc31{fill:url(#b6e7e2bc-a173-4632-b15d-c23eee797147);}.ee353688-1f73-4051-9c17-7ca2af5de00e{fill:url(#f4f28919-ffdd-46f8-adab-a98e1d675541);}.b9ba8e39-506b-4422-8527-c520210e644d{fill:url(#bf228d29-75b0-4261-bb61-85d4a7f4b949);}.f954dec4-f423-478d-9527-131e02c038c5{fill:url(#ba6e1aed-1d87-4d12-b6b3-99ca3be23eba);}.e3398fd3-1b9b-427a-9498-605e3e0c6e2b{fill:url(#ffb1f70b-8329-45dd-b61b-7774eacd0469);}.af5d6cbe-9667-4b82-8423-0f1e9f262a14{fill:url(#f7497bdb-55f3-419d-9a2f-9d651a137125);}.b09a7ae2-276c-4f2a-9027-e9730047c9ed{fill:url(#b21443c6-dc16-41e3-b7dc-710e33fbc422);}.b0210622-b32c-4495-8bdc-7bad47eaf4b6{fill:url(#e767f30c-7449-4b97-8b09-9e4b3ad2a5c1);}.e047e174-2e0c-40e0-bd3b-fc216006323c{fill:url(#bb795f29-aebc-482f-977e-631921516916);}.e83fb8e5-59e0-4c98-b340-771f3e6648c1{fill:url(#bafa7b8a-43a2-4e09-88ef-94c65c89e842);}.bfb2b13a-db34-4f14-be1b-1ce583feab9d{fill:url(#b7e5234b-f321-44b6-83cd-928b35815785);}.ef274045-85a8-4a83-9dd3-4d060728f79e{fill:url(#a12af3a1-3e27-4673-80b2-1262bd4835d5);}.ba767697-2a56-48fa-9020-0072a928e98b{fill:url(#b44ebba3-a921-4358-9551-181086bc7ed7);}.b3c5024b-f9ec-43fe-a77f-fa7c3b800b30{fill:url(#a132ea58-0992-4527-bf7a-0e5ee5eed992);}.a9742c5a-1762-408d-be8b-2c2e65a6d995{fill:url(#a01159fb-86ab-4297-aaaf-962112de292e);}.b9548e64-809e-4a28-8083-68887ab87d90{fill:url(#a34008f1-e977-4b20-a72a-d52e6f8f4e92);}.ab3b7e92-62a3-4e66-bec5-19ab80b89e78{fill:url(#a7a86152-4105-4779-ab25-9fdec2446668);}.b71533f5-2649-44b8-b34f-1edc57abe6ae{fill:url(#a7c1f2c2-83f6-4869-a458-6c38cd7b8472);}.ae263f17-f130-4c5a-b0bb-a19d37c0312e{fill:url(#fa9b2b29-59b9-4a00-a788-514c408189ac);}.a3517d75-32e5-4c24-a440-939395947df9{fill:url(#ea2ac48e-e6a2-4756-b860-7dde38eef4d7);}.bbb919fb-27fa-4f3f-9338-3ea9a8863342{fill:url(#baca4fd5-55d0-4950-9fcc-c9137da90f4a);}.fb88528a-3aa2-4069-abf0-00c9de55b917{fill:url(#ee757eed-9eb1-4159-9a50-738bcc5a4f5c);}.ad69581c-e44e-4426-86c7-07a88a4f329f{fill:url(#fb4cc6c5-f331-4724-b060-759da6610ed9);}</style><linearGradient id="bac5394b-de93-4973-bf3d-5c1f54258ecd" x1="43.31" y1="-0.53" x2="26.54" y2="72.7" gradientUnits="userSpaceOnUse"><stop offset="0" stop-color="#e3cb9d"/><stop offset="1" stop-color="#d1aa4c"/></linearGradient><linearGradient id="b6e7e2bc-a173-4632-b15d-c23eee797147" x1="23.61" y1="-5.04" x2="6.84" y2="68.18" xlink:href="#bac5394b-de93-4973-bf3d-5c1f54258ecd"/><linearGradient id="f4f28919-ffdd-46f8-adab-a98e1d675541" x1="31.68" y1="-3.19" x2="14.91" y2="70.03" xlink:href="#bac5394b-de93-4973-bf3d-5c1f54258ecd"/><linearGradient id="bf228d29-75b0-4261-bb61-85d4a7f4b949" x1="39.76" y1="-1.34" x2="22.99" y2="71.88" xlink:href="#bac5394b-de93-4973-bf3d-5c1f54258ecd"/><linearGradient id="ba6e1aed-1d87-4d12-b6b3-99ca3be23eba" x1="48.02" y1="0.55" x2="31.24" y2="73.77" xlink:href="#bac5394b-de93-4973-bf3d-5c1f54258ecd"/><linearGradient id="ffb1f70b-8329-45dd-b61b-7774eacd0469" x1="56.06" y1="2.39" x2="39.29" y2="75.62" xlink:href="#bac5394b-de93-4973-bf3d-5c1f54258ecd"/><linearGradient id="f7497bdb-55f3-419d-9a2f-9d651a137125" x1="20.68" y1="-5.71" x2="3.9" y2="67.51" xlink:href="#bac5394b-de93-4973-bf3d-5c1f54258ecd"/><linearGradient id="b21443c6-dc16-41e3-b7dc-710e33fbc422" x1="28.75" y1="-3.87" x2="11.98" y2="69.36" xlink:href="#bac5394b-de93-4973-bf3d-5c1f54258ecd"/><linearGradient id="e767f30c-7449-4b97-8b09-9e4b3ad2a5c1" x1="36.83" y1="-2.02" x2="20.05" y2="71.21" xlink:href="#bac5394b-de93-4973-bf3d-5c1f54258ecd"/><linearGradient id="bb795f29-aebc-482f-977e-631921516916" x1="44.93" y1="-0.16" x2="28.16" y2="73.07" xlink:href="#bac5394b-de93-4973-bf3d-5c1f54258ecd"/><linearGradient id="bafa7b8a-43a2-4e09-88ef-94c65c89e842" x1="52.83" y1="1.65" x2="36.06" y2="74.88" xlink:href="#bac5394b-de93-4973-bf3d-5c1f54258ecd"/><linearGradient id="b7e5234b-f321-44b6-83cd-928b35815785" x1="25.82" y1="-4.54" x2="9.05" y2="68.69" xlink:href="#bac5394b-de93-4973-bf3d-5c1f54258ecd"/><linearGradient id="a12af3a1-3e27-4673-80b2-1262bd4835d5" x1="33.89" y1="-2.69" x2="17.12" y2="70.54" xlink:href="#bac5394b-de93-4973-bf3d-5c1f54258ecd"/><linearGradient id="b44ebba3-a921-4358-9551-181086bc7ed7" x1="41.97" y1="-0.84" x2="25.19" y2="72.39" xlink:href="#bac5394b-de93-4973-bf3d-5c1f54258ecd"/><linearGradient id="a132ea58-0992-4527-bf7a-0e5ee5eed992" x1="50.04" y1="1.01" x2="33.27" y2="74.24" xlink:href="#bac5394b-de93-4973-bf3d-5c1f54258ecd"/><linearGradient id="a01159fb-86ab-4297-aaaf-962112de292e" x1="39.03" y1="-1.51" x2="22.26" y2="71.72" xlink:href="#bac5394b-de93-4973-bf3d-5c1f54258ecd"/><linearGradient id="a34008f1-e977-4b20-a72a-d52e6f8f4e92" x1="47.11" y1="0.34" x2="30.34" y2="73.57" xlink:href="#bac5394b-de93-4973-bf3d-5c1f54258ecd"/><linearGradient id="a7a86152-4105-4779-ab25-9fdec2446668" x1="34.99" y1="-2.44" x2="18.21" y2="70.79" xlink:href="#bac5394b-de93-4973-bf3d-5c1f54258ecd"/><linearGradient id="a7c1f2c2-83f6-4869-a458-6c38cd7b8472" x1="43.01" y1="-0.6" x2="26.24" y2="72.63" xlink:href="#bac5394b-de93-4973-bf3d-5c1f54258ecd"/><linearGradient id="fa9b2b29-59b9-4a00-a788-514c408189ac" x1="51.08" y1="1.25" x2="34.31" y2="74.48" xlink:href="#bac5394b-de93-4973-bf3d-5c1f54258ecd"/><linearGradient id="ea2ac48e-e6a2-4756-b860-7dde38eef4d7" x1="59.25" y1="3.12" x2="42.48" y2="76.35" xlink:href="#bac5394b-de93-4973-bf3d-5c1f54258ecd"/><linearGradient id="baca4fd5-55d0-4950-9fcc-c9137da90f4a" x1="38.29" y1="-1.68" x2="21.51" y2="71.55" xlink:href="#bac5394b-de93-4973-bf3d-5c1f54258ecd"/><linearGradient id="ee757eed-9eb1-4159-9a50-738bcc5a4f5c" x1="46.18" y1="0.13" x2="29.41" y2="73.35" xlink:href="#bac5394b-de93-4973-bf3d-5c1f54258ecd"/><linearGradient id="fb4cc6c5-f331-4724-b060-759da6610ed9" x1="54.44" y1="2.02" x2="37.66" y2="75.25" xlink:href="#bac5394b-de93-4973-bf3d-5c1f54258ecd"/></defs><title>icon2</title><g id="af493a7c-ef81-4126-a6da-4955dccdb6a3" data-name="Слой 2"><g id="ae6fdd94-6d1a-4500-ba8b-1d835865a70d" data-name="Слой 1"><path class="bd29e9fd-df54-4f04-a92f-c48fc81aa1d4" d="M71,24.26a1.55,1.55,0,0,0-1.21-1.1L56.87,20.81l13-11.71a1.51,1.51,0,0,0-.74-2.61L33.59,0a1.47,1.47,0,0,0-1.18.28L1.35,24a1.52,1.52,0,0,0,.55,2.67L15.1,30,.61,41a1.55,1.55,0,0,0,.55,2.73l13.77,3.49L1.35,57.6a1.51,1.51,0,0,0,.55,2.66L39,69.66a1.64,1.64,0,0,0,.37,0,1.55,1.55,0,0,0,1-.39L69.84,42.71a1.51,1.51,0,0,0-.74-2.6L57.18,37.94l13.4-12.11A1.54,1.54,0,0,0,71,24.26ZM21.92,12.1a1.21,1.21,0,0,0-.07.33,1.18,1.18,0,1,0,2.35,0A1.17,1.17,0,0,0,23,11.26h0l3.47-2.64a1.16,1.16,0,1,0,1.84-1.41l2.77-2.1a1.14,1.14,0,0,0,.67.24A1.18,1.18,0,0,0,33,4.17a1.16,1.16,0,0,0-.09-.41l.85-.64,5.16.94s0,.07,0,.11A1.18,1.18,0,0,0,40,5.35a1.16,1.16,0,0,0,1.11-.88l6.43,1.17a1.15,1.15,0,0,0,1,.53,1.17,1.17,0,0,0,.67-.23l11.2,2a1.3,1.3,0,0,0-.11.49,1.18,1.18,0,0,0,2.35,0s0-.05,0-.08l2.91.53L39,32.92,24.51,29.26a1.16,1.16,0,0,0-1.1-.82,1.19,1.19,0,0,0-.82.33L11.46,26a1.08,1.08,0,0,0,.19-.58,1.18,1.18,0,1,0-2.35,0v0l-3.63-.92ZM65.53,42.53,39,66.54,5.67,58.1l13-9.91,20.4,5.17a1.2,1.2,0,0,0,.38,0,1.51,1.51,0,0,0,1-.4L54.35,40.49ZM39,50.17,5,41.55,18.92,31,39,36.05a1.61,1.61,0,0,0,.37,0,1.5,1.5,0,0,0,1-.39L54,23.42l12.2,2.22Z"/><path class="b4d018c8-16c0-4519-9251-adfd3569bc31" d="M18.59,18.05a1.18,1.18,0,1,0,0-2.35,1.18,1.18,0,0,0,0,2.35Z"/><path class="ee353688-1f73-4051-9c17-7ca2af5de00e" d="M27.09,18.05a1.18,1.18,0,1,0-1.18-1.18A1.17,1.17,0,0,0,27.09,18.05Z"/><path class="b9ba8e39-506b-4422-8527-c520210e644d" d="M35.59,18.05a1.18,1.18,0,1,0-1.18-1.18A1.17,1.17,0,0,0,35.59,18.05Z"/><path class="f954dec4-f423-478d-9527-131e02c038c5" d="M44.22,18.32A1.18,1.18,0,1,0,43,17.14,1.18,1.18,0,0,0,44.22,18.32Z"/><path class="e3398fd3-1b9b-427a-9498-605e3e0c6e2b" d="M52.73,18.12A1.18,1.18,0,1,0,51.55,17,1.17,1.17,0,0,0,52.73,18.12Z"/><path class="af5d6cbe-9667-4b82-8423-0f1e9f262a14" d="M14.53,22.29a1.18,1.18,0,1,0-1.17-1.17A1.17,1.17,0,0,0,14.53,22.29Z"/><path class="b09a7ae2-276c-4f2a-9027-e9730047c9ed" d="M23,22.29a1.18,1.18,0,0,0,0-2.35,1.18,1.18,0,1,0,0,2.35Z"/><path class="b0210622-b32c-4495-8bdc-7bad47eaf4b6" d="M31.53,22.29a1.18,1.18,0,0,0,0-2.35,1.18,1.18,0,1,0,0,2.35Z"/><circle class="e047e174-2e0c-40e0-bd3b-fc216006323c" cx="40.03" cy="21.27" r="1.17"/><circle class="e83fb8e5-59e0-4c98-b340-771f3e6648c1" cx="48.33" cy="21.27" r="1.17"/><circle class="bfb2b13a-db34-4f14-be1b-1ce583feab9d" cx="18.97" cy="25.37" r="1.17"/><circle class="ef274045-85a8-4a83-9dd3-4d060728f79e" cx="27.47" cy="25.37" r="1.17"/><circle class="ba767697-2a56-48fa-9020-0072a928e98b" cx="35.97" cy="25.37" r="1.17"/><circle class="b3c5024b-f9ec-43fe-a77f-fa7c3b800b30" cx="44.46" cy="25.37" r="1.17"/><circle class="a9742c5a-1762-408d-be8b-2c2e65a6d995" cx="31.9" cy="29.61" r="1.17"/><circle class="b9548e64-809e-4a28-8083-68887ab87d90" cx="40.4" cy="29.61" r="1.17"/><circle class="ab3b7e92-62a3-4e66-bec5-19ab80b89e78" cx="31.53" cy="12.66" r="1.17"/><path class="b71533f5-2649-44b8-b34f-1edc57abe6ae" d="M40,13.61a1.18,1.18,0,1,0-1.18-1.18A1.18,1.18,0,0,0,40,13.61Z"/><path class="ae263f17-f130-4c5a-b0bb-a19d37c0312e" d="M48.52,13.61a1.18,1.18,0,1,0,0-2.35,1.18,1.18,0,0,0,0,2.35Z"/><path class="a3517d75-32e5-4c24-a440-939395947df9" d="M57.07,13.81a1.18,1.18,0,0,0,0-2.35,1.18,1.18,0,1,0,0,2.35Z"/><path class="bbb919fb-27fa-4f3f-9338-3ea9a8863342" d="M36,9.63a1.18,1.18,0,1,0-1.18-1.17A1.17,1.17,0,0,0,36,9.63Z"/><path class="fb88528a-3aa2-4069-abf0-00c9de55b917" d="M44.27,9.63A1.18,1.18,0,1,0,43.1,8.46,1.17,1.17,0,0,0,44.27,9.63Z"/><path class="ad69581c-e44e-4426-86c7-07a88a4f329f" d="M53,9.63a1.18,1.18,0,1,0-1.17-1.17A1.17,1.17,0,0,0,53,9.63Z"/></g></g></svg>