<svg xmlns="http://www.w3.org/2000/svg" xmlns:xlink="http://www.w3.org/1999/xlink" viewBox="0 0 74.94 74.78"><defs><style>.ed2ec037-521f-4a02-b323-3fd4e409cff5{fill:url(#bb8dceff-ba67-4dd3-974f-dc12607c6904);}.ec39d7cf-fc52-4083-a939-9c8bf19a371e{fill:url(#b1869b9a-5b45-46ec-b511-b6e50eede078);}.fed76a74-7668-46d1-a70a-a29a3c9e76f9{fill:url(#b764c44c-69c0-48ab-aeb5-da639006c1e4);}.a47a41ec-c35c-46b7-bbe6-76ce80b2d623{fill:url(#bcd192ff-9dd2-4f76-adf5-e8117aa89a79);}.bcca479a-aa47-48a2-a707-bae26fd16e96{fill:url(#e7e73ea3-d6dd-401e-aad0-785082683565);}.eaa14cff-abf7-4d7d-83c9-6320cdb90634{fill:url(#e87e1740-b31f-4ba2-91ef-ca75567d5d2c);}.f0671051-af85-4f03-95cd-c9f8244b7b1b{fill:url(#e326721b-cf4e-4ff8-b078-cc83de747268);}</style><linearGradient id="bb8dceff-ba67-4dd3-974f-dc12607c6904" x1="55.34" y1="2.33" x2="34.89" y2="82.92" gradientUnits="userSpaceOnUse"><stop offset="0" stop-color="#e3cb9d"/><stop offset="1" stop-color="#d1aa4c"/></linearGradient><linearGradient id="b1869b9a-5b45-46ec-b511-b6e50eede078" x1="44.97" y1="-0.3" x2="24.52" y2="80.29" xlink:href="#bb8dceff-ba67-4dd3-974f-dc12607c6904"/><linearGradient id="b764c44c-69c0-48ab-aeb5-da639006c1e4" x1="44.21" y1="-0.5" x2="23.75" y2="80.1" xlink:href="#bb8dceff-ba67-4dd3-974f-dc12607c6904"/><linearGradient id="bcd192ff-9dd2-4f76-adf5-e8117aa89a79" x1="28.72" y1="-4.42" x2="8.27" y2="76.17" xlink:href="#bb8dceff-ba67-4dd3-974f-dc12607c6904"/><linearGradient id="e7e73ea3-d6dd-401e-aad0-785082683565" x1="50.11" y1="1" x2="29.66" y2="81.6" xlink:href="#bb8dceff-ba67-4dd3-974f-dc12607c6904"/><linearGradient id="e87e1740-b31f-4ba2-91ef-ca75567d5d2c" x1="60.76" y1="3.71" x2="40.31" y2="84.3" xlink:href="#bb8dceff-ba67-4dd3-974f-dc12607c6904"/><linearGradient id="e326721b-cf4e-4ff8-b078-cc83de747268" x1="39.44" y1="-1.71" x2="18.98" y2="78.89" xlink:href="#bb8dceff-ba67-4dd3-974f-dc12607c6904"/></defs><title>icon3</title><g id="b138a405-93e3-4f04-ae62-e962f1c7eccf" data-name="Слой 2"><g id="a2bf5058-e5d1-4dfc-979b-641631b94f0e" data-name="Слой 1"><path class="ed2ec037-521f-4a02-b323-3fd4e409cff5" d="M51.88,67H23.05c-5,0-5.68,2.4-5.68,4.74v3h40.2V71.51C57.57,68.27,56,67,51.88,67Zm3.54,5.62H19.52v-.88c0-1.45,0-2.59,3.53-2.59H51.88c3.54,0,3.54.89,3.54,2.35Z"/><path class="ec39d7cf-fc52-4083-a939-9c8bf19a371e" d="M71.14,0H3.79A3.79,3.79,0,0,0,0,3.79v51a3.79,3.79,0,0,0,3.79,3.79H28.57v1.9a3.16,3.16,0,0,0,.49,2,3.3,3.3,0,0,0,2.73,1H43.14a3.33,3.33,0,0,0,2.74-1,3.23,3.23,0,0,0,.48-2.1V58.55H71.14a3.8,3.8,0,0,0,3.8-3.79v-51A3.8,3.8,0,0,0,71.14,0ZM44.22,60.45a3.63,3.63,0,0,1,0,.74,2,2,0,0,1-1,.15H31.79a2.31,2.31,0,0,1-1-.14,3.29,3.29,0,0,1-.05-.8V58.55h13.5Zm28.57-5.69a1.64,1.64,0,0,1-1.65,1.64H3.79a1.64,1.64,0,0,1-1.64-1.64v-51A1.65,1.65,0,0,1,3.79,2.15H71.14a1.65,1.65,0,0,1,1.65,1.64Z"/><path class="fed76a74-7668-46d1-a70a-a29a3c9e76f9" d="M65.67,5.64H9.27A3.09,3.09,0,0,0,6.18,8.73V43.38a3.09,3.09,0,0,0,3.09,3.09h56.4a3.1,3.1,0,0,0,3.09-3.09V8.73A3.1,3.1,0,0,0,65.67,5.64Zm.94,37.74a.94.94,0,0,1-.94.94H9.27a.94.94,0,0,1-.94-.94V8.73a.94.94,0,0,1,.94-.94h56.4a.94.94,0,0,1,.94.94Z"/><path class="a47a41ec-c35c-46b7-bbe6-76ce80b2d623" d="M20.43,22.91H18.29v3.24h-3.2V38.78h3.2V42h2.14V38.78h3.21V26.15H20.43Zm1.06,13.72H17.23V28.3h4.26Z"/><path class="bcca479a-aa47-48a2-a707-bae26fd16e96" d="M44.88,19.35H42.73v2.48h-3.2v8.08h3.2v4.3h2.15v-4.3h3.2V21.83h-3.2Zm1,8.42H41.68V24h4.25Z"/><path class="eaa14cff-abf7-4d7d-83c9-6320cdb90634" d="M57.1,10.71H55v3.47h-3.2V30.59H55v3.88H57.1V30.59h3.2V14.18H57.1Zm1,17.73H53.9V16.33h4.25Z"/><path class="f0671051-af85-4f03-95cd-c9f8244b7b1b" d="M32.66,18.14H30.51v7.07h-3.2v8.06h3.2v2.08h2.15V33.27h3.2V25.21h-3.2Zm1.05,13H29.46V27.36h4.25Z"/></g></g></svg>