<svg xmlns="http://www.w3.org/2000/svg" xmlns:xlink="http://www.w3.org/1999/xlink" viewBox="0 0 57.63 86.94"><defs><style>.f03656f3-b11e-423d-8fe0-eb26875cefd0{fill:url(#f7c6f0b7-0cd2-4a2f-97df-e4a3a1c592dd);}</style><linearGradient id="f7c6f0b7-0cd2-4a2f-97df-e4a3a1c592dd" x1="48.75" y1="6.83" x2="18.07" y2="87.42" gradientUnits="userSpaceOnUse"><stop offset="0" stop-color="#e3cb9d"/><stop offset="1" stop-color="#d1aa4c"/></linearGradient></defs><title>icon1</title><g id="ad7742bd-4a45-4b20-8a9e-08878c97417d" data-name="Слой 2"><g id="bb80bc34-4064-43a7-93ad-f2b0bb817d22" data-name="Слой 1"><path class="f03656f3-b11e-423d-8fe0-eb26875cefd0" d="M40.77,59.62c-.09-2.09-.41-3.53-1.29-4.17a34.81,34.81,0,0,0,4.65-8.25,26.51,26.51,0,0,0,1.5-5.66,2.08,2.08,0,0,0,.45-.19c1.37-.74,2.49-2.85,3.32-6.25,1.24-5,1.63-7.37-1-9a40.1,40.1,0,0,0,.35-7.85C48.44,12.29,43.18,0,28.82,0S9.19,12.29,8.89,18.24A39.68,39.68,0,0,0,9.21,26C6.35,27.61,6.74,30,8,35.1c.84,3.4,2,5.51,3.33,6.25a1.78,1.78,0,0,0,.38.17,26.55,26.55,0,0,0,1.5,5.68A34.34,34.34,0,0,0,18,55.58c-.75.7-1,2.1-1.11,4C4.07,68.5-1.23,74.84.24,79.54c1.57,5,10.65,7.4,28.58,7.4s27-2.35,28.58-7.4C58.86,74.84,53.57,68.5,40.77,59.62Zm-2.4-2.49c.17.29.44,1.18.44,4,0,1.76-.47,2.71-.91,3a.44.44,0,0,1-.35.08c-.35-.13-.79-.35-1.36-.63-1.1-.53-2.56-1.23-4.51-2,0-.11,0-.23-.05-.36s0,0,0,0a3,3,0,0,0-.11-.54A13.52,13.52,0,0,0,38,57.1.26.26,0,0,1,38.37,57.13ZM28.09,61.27s.09-.08.55-.1H29a1.11,1.11,0,0,1,.52.09s.12.14.12.78c0,1.08-.22,1.13-.46,1.19l-.23.05h-.39l-.15,0c-.24-.06-.45-.11-.45-1.19C28,61.41,28.09,61.27,28.09,61.27ZM47.46,34.62A14.78,14.78,0,0,1,46,38.53a101.31,101.31,0,0,0,.54-10.8c0-.14,0-.27,0-.41C48.81,28.21,48.78,29.27,47.46,34.62ZM10.88,18.34C11.06,14.89,14.62,2,28.82,2S46.57,14.89,46.75,18.34a40.13,40.13,0,0,1-.24,6.86L45.86,25l-.37-.75A4.88,4.88,0,0,1,45,23.12V17c0-1.64-2.54-5.82-4.76-6a5.17,5.17,0,0,0-2.23.58,22.08,22.08,0,0,1-9.33,1.7,22.15,22.15,0,0,1-9.35-1.7A5.28,5.28,0,0,0,17.11,11c-2.22.14-4.77,4.32-4.77,6v6.15a4.75,4.75,0,0,1-.48,1.11c-.13.25-.26.5-.38.77l-.36.12A39.47,39.47,0,0,1,10.88,18.34ZM10,34.62c-1.31-5.3-1.35-6.39.86-7.28,0,.13,0,.25,0,.39a100.81,100.81,0,0,0,.52,10.66A15.68,15.68,0,0,1,10,34.62Zm2.82-6.89a6,6,0,0,1,.87-2.58,4.65,4.65,0,0,0,.7-2V17c0-1,2-3.91,2.89-4h0a4.76,4.76,0,0,1,1.31.43,24.06,24.06,0,0,0,10.11,1.85,23.94,23.94,0,0,0,10.09-1.85A4.29,4.29,0,0,1,40.12,13C41,13.06,43,16,43,17v6.15a4.68,4.68,0,0,0,.71,2,6,6,0,0,1,.87,2.58c0,4-.23,13.77-2.29,18.69C40.05,51.77,36.23,58.9,28.9,59.15h-.48c-7.3-.25-11.12-7.38-13.36-12.73C13,41.5,12.77,31.71,12.77,27.73ZM26.11,60.86a4.48,4.48,0,0,0-.12,1l0,0c-3.2,1.4-5,2.15-5.85,2.5a.42.42,0,0,1-.35-.08c-.44-.31-.91-1.26-.91-3,0-2.87.26-3.76.43-4a.11.11,0,0,1,.07,0A13.42,13.42,0,0,0,26.11,60.86ZM55.49,78.94c-.85,2.74-6.17,6-26.67,6S3,81.68,2.15,78.94c-.77-2.44,1.24-7.35,14.72-16.88.19,2.35,1.14,3.38,1.73,3.78a2.44,2.44,0,0,0,1.39.45,2.24,2.24,0,0,0,.81-.15c.89-.34,2.52-1,5.48-2.33a2.31,2.31,0,0,0,1.64,1.35,2.16,2.16,0,0,0,.9.12H29a2.21,2.21,0,0,0,.71-.12,2.29,2.29,0,0,0,1.67-1.43c1.65.64,3,1.25,3.93,1.72.62.3,1.11.54,1.51.69a2.24,2.24,0,0,0,.81.15A2.42,2.42,0,0,0,39,65.84c.59-.4,1.54-1.43,1.73-3.78C54.24,71.59,56.25,76.5,55.49,78.94Z"/></g></g></svg>