<svg xmlns="http://www.w3.org/2000/svg" viewBox="0 0 196.6 53.4"><defs><style>.fc5e0b95-dbb3-4ec8-9e18-47a735e9f100{fill:#fff;}.b54eff2f-a1a6-4525-bde1-13d187a65557{fill:#e3c284;}</style></defs><title>ns trader</title><g id="a9e493ac-94d7-4c89-bf91-7011e007c86c" data-name="Слой 2"><g id="b876280e-d45c-4030-893f-cde3834d2563" data-name="Слой 1"><path class="fc5e0b95-dbb3-4ec8-9e18-47a735e9f100" d="M71,40.71H67v-28h5.52l4.52,16.75V12.72H81v28H76.45L71,20.44Z"/><path class="fc5e0b95-dbb3-4ec8-9e18-47a735e9f100" d="M90.05,12.4c4.28,0,6.48,2.56,6.48,7v.88H92.37V19.16c0-2-.8-2.76-2.2-2.76s-2.2.76-2.2,2.76c0,5.75,8.6,6.83,8.6,14.83,0,4.48-2.24,7-6.56,7s-6.56-2.56-6.56-7V32.27h4.16v2c0,2,.88,2.72,2.28,2.72s2.28-.72,2.28-2.72c0-5.76-8.6-6.84-8.6-14.83C83.57,15,85.77,12.4,90.05,12.4Z"/><path class="fc5e0b95-dbb3-4ec8-9e18-47a735e9f100" d="M117.61,12.72v4H113v24h-4.4v-24H104v-4Z"/><path class="fc5e0b95-dbb3-4ec8-9e18-47a735e9f100" d="M128.33,37.27v-4.4c0-2.6-.88-3.56-2.88-3.56h-1.52v11.4h-4.4v-28h6.64c4.56,0,6.52,2.12,6.52,6.44v2.19c0,2.88-.92,4.76-2.88,5.68,2.2.92,2.92,3,2.92,6v4.32a8.25,8.25,0,0,0,.48,3.4h-4.48A8.61,8.61,0,0,1,128.33,37.27Zm-4.4-12h1.72c1.64,0,2.64-.72,2.64-3V19.6c0-2-.68-2.88-2.24-2.88h-2.12Z"/><path class="fc5e0b95-dbb3-4ec8-9e18-47a735e9f100" d="M145.41,40.71l-.76-5.08h-5.4l-.76,5.08h-4l4.48-28h6.44l4.48,28Zm-1.36-8.88-2.12-14.15-2.12,14.15Z"/><path class="fc5e0b95-dbb3-4ec8-9e18-47a735e9f100" d="M158.85,12.72c4.4,0,6.56,2.44,6.56,6.92V33.79c0,4.48-2.16,6.92-6.56,6.92h-7v-28Zm-2.56,24h2.48c1.4,0,2.24-.72,2.24-2.72V19.44c0-2-.84-2.72-2.24-2.72h-2.48Z"/><path class="fc5e0b95-dbb3-4ec8-9e18-47a735e9f100" d="M178.65,24.51v4h-6v8.2h7.59v4h-12v-28h12v4h-7.59v7.79Z"/><path class="fc5e0b95-dbb3-4ec8-9e18-47a735e9f100" d="M191.73,37.27v-4.4c0-2.6-.88-3.56-2.88-3.56h-1.52v11.4h-4.4v-28h6.64c4.55,0,6.51,2.12,6.51,6.44v2.19c0,2.88-.92,4.76-2.88,5.68,2.2.92,2.92,3,2.92,6v4.32a8.25,8.25,0,0,0,.48,3.4h-4.47A8.42,8.42,0,0,1,191.73,37.27Zm-4.4-12h1.72c1.64,0,2.64-.72,2.64-3V19.6c0-2-.68-2.88-2.24-2.88h-2.12Z"/><polygon class="b54eff2f-a1a6-4525-bde1-13d187a65557" points="46.25 13.35 23.12 0 0 13.35 0 25.34 5.35 22.23 5.35 16.44 23.12 6.18 40.9 16.44 40.9 18.74 46.25 15.64 46.25 13.35"/><polygon class="b54eff2f-a1a6-4525-bde1-13d187a65557" points="40.9 36.96 23.12 47.23 5.35 36.96 5.35 31.86 13.15 27.33 19.63 31.09 25.5 27.68 19.03 23.92 13.15 20.51 7.28 23.92 5.35 25.04 0 28.14 0 34.96 0 40.05 23.12 53.4 46.25 40.05 46.25 28.07 40.9 31.17 40.9 36.96"/><polygon class="fc5e0b95-dbb3-4ec8-9e18-47a735e9f100" points="40.9 21.55 27.92 29.08 22.04 32.49 27.92 35.9 33.8 32.49 40.9 28.37 46.25 25.26 46.25 18.44 40.9 21.55"/></g></g></svg>