<svg xmlns="http://www.w3.org/2000/svg" xmlns:xlink="http://www.w3.org/1999/xlink" viewBox="0 0 589.47 600.64"><defs><style>.f973ba9b-6652-40f1-9593-4a7be3d949d2{mask:url(#be97d48c-0a6a-4516-8d52-935cab77db60);filter:url(#a8066383-b009-426f-a9c9-9b955656975e);}.a90b0ff7-09bf-4698-8ac9-eb7cf627a4f0,.b291283a-ed94-444e-b506-6bf32ba79c61{mix-blend-mode:multiply;}.a90b0ff7-09bf-4698-8ac9-eb7cf627a4f0{fill:url(#f825e0a8-63ef-4428-8879-bcb74a58dbb9);}.eefc0fe7-97a5-4a24-8cb7-db7c27558527{fill:url(#fbb74b97-5f6c-49b4-adc0-4a1d3808f701);}.e5219a4c-313d-4877-abc5-66146ebe0d74{fill:none;}.fa7e2af7-c308-486d-ab05-0d32124f1e45{isolation:isolate;}.ab49d631-2dd5-43a5-aa9e-aa1ffa3d0083,.ac5722a7-e45b-4113-85f6-e573b0f15aa6,.b0465039-77dd-4303-a5a7-ef19176bdb5c{opacity:0.3;}.ac5722a7-e45b-4113-85f6-e573b0f15aa6,.f838988a-f2c7-4811-8da2-d0223960eb47{mix-blend-mode:overlay;}.a4d44b0d-2814-46aa-81af-ad725f182a11{fill:#fff;}.a5dc3c50-1e1e-4c54-995b-e08a26a76220{fill:url(#ae66c3cb-1141-4519-bf5c-1ae2892d1b29);}.b8746861-5a5e-46ea-b335-e66ee1e73365{fill:url(#ebb4f549-9734-449c-be72-89e12f51239f);}.ab49d631-2dd5-43a5-aa9e-aa1ffa3d0083,.b0465039-77dd-4303-a5a7-ef19176bdb5c{mix-blend-mode:screen;}.a6766717-131b-4d82-8031-f2fd0f2d9a18{mask:url(#eaf067a8-2dad-4ba6-92a1-f5d93685cd3b);}.bc934f19-bbf1-43c0-9500-f9b5a0b81a48{fill:url(#b9cc40d6-704f-480f-b118-d55c01a4e416);}.a61b1c28-65e8-4fc3-b334-37463fdce837{fill:url(#e30a2939-54b4-4d99-b3f8-9bf004e5e271);}.fc67a603-517f-467d-80c8-df4c3b3be44d{fill:url(#aafd166e-7a6d-4c15-9279-5d0749361e13);}.ab49d631-2dd5-43a5-aa9e-aa1ffa3d0083{fill:url(#b376d19f-ac96-44af-8646-dcb5dbf57521);}.bc6f5937-45d8-4a5e-a263-d256ddbb676e{clip-path:url(#ac13463b-8659-4060-af2f-9fd046ffb28b);}.aca27ff1-2f60-4ff6-9334-2a1a12b58478{fill:#2e2e2f;}.a0157077-234e-4a68-ba61-60c3f80b6317{fill:#2d2d2e;}.a2b392c2-0e2a-473d-a70f-b7d85ee0acc2{fill:#2c2c2c;}.bf528eb3-8b90-49c5-a460-d2dfef3366ee{fill:#2a2a2b;}.fd743593-b678-42ed-bcaa-4b8835290b5c{fill:#29292a;}.a8f0b8a9-53e1-4fbf-9e6c-8cb519bbb67a{fill:#282828;}.a68db644-97e2-49dc-bfe1-490ef662e181{fill:#262627;}.f56e96ac-13cf-4e8d-9d6d-e8ef4548ade1{fill:#252526;}.e0deb2fb-c7d6-4303-af77-c22400064cd4{fill:#242424;}.bbc28f08-3c34-44c7-a87c-8c8c11f1e41a{fill:#232323;}.b9114302-903a-4505-af2f-4d1cfd301476{fill:#212122;}.ad550a09-42e8-4966-9474-1003810bc8e2{fill:#313132;}.f6b9d8d1-6e82-4d03-b8b4-f7871821e21b{clip-path:url(#f0bd5cea-c2a6-4e7d-8f75-e550ec4985f9);}.b8fb04a6-fd04-4517-b92d-a4e35eed7ae5{fill:#2f2f30;}.fc99e7db-2c9e-421b-a5fa-41166af0817c{fill:#313131;}.a746bbc9-ca00-4ab3-a90e-ad29e9444d65{fill:#323233;}.bfe1b182-e9d3-4583-aa77-aa6e6c28482e{fill:#333334;}.f2ce82b5-6b99-4433-bca2-8e7c4d17900b{fill:#191919;}.b6d569eb-8f08-42fe-b68f-5366a14f495b{clip-path:url(#bae8e7eb-c059-4cec-9378-f22fcbb90a98);}.bea4c842-0841-4f73-95de-35a18beea16b{fill:#343435;}.f2b62196-eaca-42a1-9d30-2be7cb5d6538{fill:#363637;}.b4db7df6-3551-4de8-8ea1-728c353be4f0{fill:#373738;}.af9ad3e0-c558-4f36-b59c-b57fa975df69{fill:#383839;}.aa8602a4-1162-42db-a80a-0580caaaa3f1{fill:#3a3a3b;}.aaba9163-63dc-4000-a4a9-37f4583b9d32{fill:#3b3b3c;}.f63cdf1e-2687-44f0-ba13-51d929fb50b2{fill:#3c3c3d;}.b6133ed4-71f4-40e1-93d0-47dd0b3d7613{fill:#3d3d3e;}.b5a9c983-ba58-4a00-865f-fd2e8ee99e45{fill:#3f3f40;}.e3920173-919b-4834-bbe8-bdb0c4b88d75{fill:#404041;}.a3f7f600-0ad6-4b3c-a9c9-61a7386a9032{fill:#575758;}.b0515822-715d-4539-bf3d-46e2b39fe862{fill:#606061;}.b135c765-c933-4f86-bd5f-9354ca7a7f64{fill:#686868;}.acf8d469-fe94-4e19-9a25-82afdad6009c{fill:#6e6e6f;}.b796d7d7-e09a-49c9-9363-3a1f4402059b{fill:#737374;}.f9c7da8c-cdf9-43c4-8131-f18d14d1f782{fill:#2f3031;}.ba0d6b99-9a35-446f-b320-d4155a366bfc{fill:#444546;}.e3b8b33b-b0f2-4c16-94c9-afdb2baed296{clip-path:url(#e5b88c01-4ed7-4ade-a594-696a0506b84c);}.f71f0f3f-5b15-4d7b-bd05-72c4b562cfbf{fill:#303031;}.e289135d-936d-40c0-bc71-5f79016bcfc7{fill:#313233;}.b2dcdd32-d89c-4d7e-b4ab-ae0d7150944d{fill:#333435;}.f8d95aeb-7983-45b2-9092-e443330d7a38{fill:#353537;}.e0b00ad7-8f55-4479-9b76-c807c93c7e92{fill:#38393a;}.ac61164c-7e5d-4eb0-a4c6-5a27ef70003e{fill:#3a3b3c;}.e110b95d-9a26-4d22-956c-5f7b7cfec805{fill:#3c3d3e;}.b549493a-c96b-4b23-b090-de531eb78266{fill:#3e3e40;}.edf5ed8f-6b69-4b8f-a0ae-f2d4fd4bcf60{fill:#3f4042;}.aa015321-7444-42f7-ba80-d5bbeb7c6a00{fill:#414243;}.a3028efc-1105-476e-bc12-ceb4a8a377e4{fill:#434445;}.a025ccf3-3516-466b-9e63-6581788a7a84{fill:#454547;}.f59c9ed4-5e8e-4a11-87ad-da1efe738960{fill:#464749;}.e2706fcb-4849-4f9b-839f-df74c01d8615{clip-path:url(#fed91cc6-76ff-4390-90a9-b6143a8a93a3);}.a22704f7-b407-4410-82b5-dcb3bfd3bdba{clip-path:url(#acc378d3-ee94-4e48-bfab-fb6b0c8c1186);}.a04e7133-f596-4618-9ba0-158eff173df9{fill:#48494b;}.bcd0de4b-16a7-4254-a81d-e181ad481981{fill:#4a4b4c;}.a8ea3641-2c79-4292-a75e-736b2714a4c6{fill:#4c4d4e;}.ee3e17ea-b202-4201-8260-62ad192f7d90{fill:#4d4e50;}.b1b552b0-c4ee-4b8f-9900-b8b261a74a0f{fill:#4f5052;}.ff8aaf8c-3332-4724-95e1-523097a403dd{fill:#515254;}.ff386862-b598-47f6-9c0a-8f818839a2af{fill:#535456;}.b380d291-21d5-4c07-8dc0-98c227887eb6{fill:#545557;}.f2ec41f3-892a-4689-a9cb-1561032d6ba9{fill:#565759;}.eebdf1cc-8de8-4a10-a511-95cc71cd3884{fill:#58595b;}.ef819b8e-3419-457f-9073-63ee3c0d4645{fill:#6c6d6f;}.e55aada5-80f1-48f5-919f-8ac8ce00c0ed{fill:#747577;}.b6e5d9bf-eb37-43fc-99c0-a02e0f38e30c{fill:#7b7c7d;}.a3a248e3-96d2-4c58-8605-b82a6c3e8d00{fill:#808182;}.a3fbbf91-dc2f-49d8-b0fc-038a26c00900{fill:#858687;}.abb86003-9a52-4928-b45d-cad046be2963{mask:url(#e3400d4e-abde-4ae2-8aee-3011fc5b69ba);}.ff2e23b8-eff0-46fa-ba7e-21f8d48b0bc0{fill:url(#a14ec7d7-0338-40e8-bb8b-8a62cdd2311e);}.b1cab274-36ca-4cf6-a8dd-dea9a1541071{fill:#f1f1f2;}.e9f32951-3067-4ad5-9fc4-96fbcacdf343{fill:url(#af4b7d9c-6f6f-441d-8961-951a1b036d01);}.f06eec9b-e95b-4d02-82bb-576ab990b567{fill:url(#a88e2c8a-30ef-4f42-a711-2c8d4ee669e1);}.b0157bd9-722f-41ca-b164-d8788dd0a575{fill:url(#ba2f80ca-d9db-46e1-89d9-8668fd0caac1);}.e7026199-bf11-497b-9df2-448175c42be0{fill:url(#beba8f8e-72cf-43f5-9743-2021df7760a9);}.b291283a-ed94-444e-b506-6bf32ba79c61,.bdf7b866-ce6c-4960-b11f-3c78e1f5d81e,.becd1628-e9c8-44d0-af43-f444ac5b8952{opacity:0.5;}.baa5702a-0691-4dee-984a-8cf58b6f6538{fill:url(#a470cc86-544d-41ee-a1c8-dfd46b26357d);}.f6f0d7b2-b2ba-4685-8276-e011ad4a6116{fill:url(#ee55fa99-eccb-4a7f-a511-2be3dd8836c9);}.e535c0cb-5a4f-4fd8-b24b-08349212fdaf{fill:url(#a8e5b8f4-aa48-4001-8dcb-758bdacce467);}.bdf7b866-ce6c-4960-b11f-3c78e1f5d81e{mix-blend-mode:lighten;fill:url(#a2be3126-7cdb-411c-a521-ad4f108b56a7);}.e95a2c9f-2884-4746-94d6-3d6abed1e62b{fill:url(#b70cfe4a-066c-49c4-8e47-44195b9cc2c5);}.a6671311-7534-4185-9e62-a79217348445{fill:url(#aacf68d9-74b5-4869-b780-b8718ec943f6);}.e072e1e7-c46b-4b32-a9a9-8564c215ff89{fill:url(#b881f2ea-f972-4d04-90a7-6923cecfa3d1);}.f41b6053-6141-4b81-9ee4-b33a40d6b507{fill:url(#eda241da-e7c1-4f8a-83bb-e39b474321dd);}.a7ec49a3-8354-4f75-a473-624c0f3d0d91{fill:url(#a0340ea9-49ae-4012-ae0e-fe97043f901a);}.f95c8437-4a89-4518-9b2c-c8dc18da0527{fill:url(#fc74e7bf-2d45-473b-bf29-f80b53b86a4b);}.a785c582-28d2-4c5c-9b1b-74784e5afe8d{fill:url(#adadd212-3728-4602-9b4c-a191793e66e0);}.f63f47cf-28fe-4926-8d97-b67ad0383c70{fill:url(#a520d4ca-00b2-4e93-8bb5-bb8923f67b70);}.f0ca4df8-fb61-45ae-8f52-cd88c279ff46{fill:url(#ba377e67-ac59-4ccb-90d1-71ffbc18fe2d);}.b9ac12e4-7968-48d3-a48d-0aa77275f810{fill:url(#ab2067b0-f1cd-4492-853f-00f54f88a79e);}.a16aea6d-a87a-4455-8612-a7190b5002fe{fill:url(#e964d393-1f10-4c68-a27e-fae9e6ff9d97);}.f4843c96-f938-4b14-97a1-60c9af3266e0{fill:url(#a489e4b6-9205-403a-b574-66e1e3f1f98c);}.fd30e758-2134-4b38-ab72-f60c003aafa4{fill:url(#fbaa72e1-ad17-4468-b6d3-3e999bafb8e3);}.f5beeda7-2850-4ae5-9b5c-145d37380e28{fill:url(#b8fd3b6b-9064-4306-9fd5-080d7e5769f1);}.e9c73da6-9965-4c44-b205-a946a2cb4bf3{opacity:0.47;}.b6724d87-7382-4520-8103-5181ada18749{fill:url(#fafdfc97-3193-4a4b-a38f-545c7ab1bf55);}.a6e1351e-4c0a-41b5-baf9-420e61804486{fill:url(#b94a2e96-893a-4934-820c-7401ce220450);}.baba69bf-4d38-4257-8926-4123a0d51136{fill:url(#fa2350a0-14f8-4b10-a9e9-5deef3256eac);}.aae4b0b7-acb8-4e2a-b0aa-ab7aafafa889{fill:url(#be1598fb-2c3b-4e53-8562-66e31c330efa);}.a6b13b8c-fa20-48fb-9585-68cf9284d088{fill:url(#bea8e489-2754-475c-a8b7-9b7e8fcb4327);}.b753b0ba-59ea-434a-a360-e2aca59f6c74{fill:url(#f7752f3f-4ab0-4269-9119-620141e3d4e6);}.b80e06a1-57d2-4408-a6a9-b87b8372e109{fill:url(#bb8819dd-eb9b-4b26-913f-bfb1f6df7f7c);}.a576bce4-32da-40c5-88f3-be6fb5c45df3{fill:url(#be9800f9-ff1d-4f11-a60b-4ce1e26d484c);}.abdf52c3-0766-441d-8194-05a22501e269{fill:#e3c284;}.ebadd195-8ca9-4bc4-9a99-5258f5d49f21{opacity:0.4;}.a61f199f-39a7-4629-8dd5-e6f65cf5f79a{filter:url(#a12b01d1-2fa8-465c-ad9a-f3e6da6f8de5);}</style><filter id="a12b01d1-2fa8-465c-ad9a-f3e6da6f8de5" x="303.63" y="-5798.26" width="94.84" height="32766" filterUnits="userSpaceOnUse" color-interpolation-filters="sRGB"><feFlood flood-color="#fff" result="bg"/><feBlend in="SourceGraphic" in2="bg"/></filter><mask id="be97d48c-0a6a-4516-8d52-935cab77db60" x="303.63" y="-5798.26" width="94.84" height="32766" maskUnits="userSpaceOnUse"><g class="a61f199f-39a7-4629-8dd5-e6f65cf5f79a"/></mask><linearGradient id="f825e0a8-63ef-4428-8879-bcb74a58dbb9" x1="-1808.79" y1="140.57" x2="-1772.35" y2="90.77" gradientTransform="matrix(-1, 0, 0, 1, -1421.85, 0)" gradientUnits="userSpaceOnUse"><stop offset="0"/><stop offset="0.5" stop-color="#fff"/><stop offset="1"/></linearGradient><linearGradient id="fbb74b97-5f6c-49b4-adc0-4a1d3808f701" x1="202.94" y1="247.32" x2="330.15" y2="247.32" gradientUnits="userSpaceOnUse"><stop offset="0" stop-color="#fff"/><stop offset="0.22" stop-color="#fcfcfc"/><stop offset="0.36" stop-color="#f4f4f4"/><stop offset="0.47" stop-color="#e6e6e6"/><stop offset="0.57" stop-color="#d1d1d1"/><stop offset="0.66" stop-color="#b7b7b7"/><stop offset="0.75" stop-color="#969696"/><stop offset="0.83" stop-color="#6f6f6f"/><stop offset="0.91" stop-color="#434343"/><stop offset="0.98" stop-color="#111"/><stop offset="1"/></linearGradient><linearGradient id="ae66c3cb-1141-4519-bf5c-1ae2892d1b29" x1="-1714.45" y1="63.43" x2="-1714.45" y2="434.4" gradientTransform="matrix(-1, 0, 0, 1, -1421.85, 0)" gradientUnits="userSpaceOnUse"><stop offset="0" stop-color="#1c1d25"/><stop offset="1" stop-color="#45485c"/></linearGradient><linearGradient id="ebb4f549-9734-449c-be72-89e12f51239f" x1="292.6" y1="51.95" x2="292.6" y2="446.2" gradientUnits="userSpaceOnUse"><stop offset="0" stop-color="#d0d2d3"/><stop offset="1" stop-color="gray"/></linearGradient><filter id="a8066383-b009-426f-a9c9-9b955656975e" x="303.63" y="50.88" width="94.84" height="134.69" filterUnits="userSpaceOnUse" color-interpolation-filters="sRGB"><feFlood flood-color="#fff" result="bg"/><feBlend in="SourceGraphic" in2="bg"/></filter><mask id="eaf067a8-2dad-4ba6-92a1-f5d93685cd3b" x="303.63" y="50.88" width="94.84" height="134.69" maskUnits="userSpaceOnUse"><g class="f973ba9b-6652-40f1-9593-4a7be3d949d2"><path class="a90b0ff7-09bf-4698-8ac9-eb7cf627a4f0" d="M383.85,87.48l.71.43.22.15c.16.1.32.2.47.31l.26.18.44.32.26.19.43.34.24.19.49.42.17.14.65.59a1.85,1.85,0,0,1,.14.14l.41.39.06.06c.26.25.51.51.75.77h0l.72.8.06.07.08.09q.56.65,1.08,1.32l0,0,.08.1c.28.36.55.73.81,1.1l.09.12,0,.06c.25.36.5.73.74,1.1l.07.11.11.17.57.94a.64.64,0,0,1,.08.14l0,0c.21.36.42.73.61,1.1a.35.35,0,0,1,.05.08l.1.19.44.88c0,.06.07.12.1.19l.05.11c.18.37.35.74.51,1.12l0,0s0,.09.05.13q.23.51.42,1c0,.06.05.11.07.17s0,.09.05.13c.15.41.3.82.44,1.23v0s0,.06,0,.08c.14.42.27.84.38,1.26a1,1,0,0,1,0,.16.57.57,0,0,1,0,.14c0,.12.06.25.1.37l.12.51.09.38.06.28a1.06,1.06,0,0,1,0,.19c0,.19.08.38.11.57s.05.26.07.39l.09.6c0,.09,0,.19,0,.28a.13.13,0,0,1,0,.06q.07.65.12,1.26c0,.09,0,.18,0,.26,0,.43,0,.86,0,1.27l-.18,63.13-16.78,9.66.18-63c0-.42,0-.85-.05-1.27a2.17,2.17,0,0,0,0-.26q0-.63-.12-1.26c0-.12,0-.23-.05-.34l-.09-.6c0-.13-.05-.27-.07-.4s-.07-.38-.11-.57-.07-.31-.1-.46L381,117c0-.17-.08-.33-.13-.5l-.09-.38-.09-.3c-.12-.42-.25-.83-.38-1.25a.49.49,0,0,0,0-.11c-.13-.41-.28-.82-.44-1.22,0-.1-.07-.21-.11-.31l-.42-1-.07-.16c-.17-.38-.34-.76-.52-1.13,0-.1-.09-.2-.14-.3-.15-.29-.29-.59-.45-.88,0-.09-.09-.18-.14-.27-.2-.37-.4-.73-.61-1.09l-.12-.2q-.27-.48-.57-.93l-.17-.28c-.24-.38-.49-.74-.74-1.11l-.12-.16c-.27-.38-.54-.75-.82-1.11l-.11-.15c-.35-.45-.71-.89-1.08-1.31l-.14-.17c-.24-.27-.47-.53-.71-.78l0,0c-.24-.26-.49-.51-.74-.76l-.48-.47a.8.8,0,0,1-.13-.13l-.65-.59-.16-.13-.5-.42-.24-.19-.44-.35-.26-.19-.43-.32-.26-.18-.47-.31-.23-.15c-.23-.14-.46-.29-.7-.42L303.63,60.61l16.83-9.73Z"/></g></mask><linearGradient id="b9cc40d6-704f-480f-b118-d55c01a4e416" x1="-1808.79" y1="140.57" x2="-1772.35" y2="90.77" gradientTransform="matrix(-1, 0, 0, 1, -1421.85, 0)" gradientUnits="userSpaceOnUse"><stop offset="0" stop-color="#fff"/><stop offset="0.5" stop-color="#fff"/><stop offset="1" stop-color="#fff"/></linearGradient><linearGradient id="e30a2939-54b4-4d99-b3f8-9bf004e5e271" x1="-1615.88" y1="-9.85" x2="-1658.03" y2="14.44" gradientTransform="matrix(-1, 0, 0, 1, -1421.85, 0)" gradientUnits="userSpaceOnUse"><stop offset="0" stop-color="#fff"/><stop offset="1"/></linearGradient><linearGradient id="aafd166e-7a6d-4c15-9279-5d0749361e13" x1="-1833.08" y1="470.31" x2="-1802.94" y2="418.95" xlink:href="#e30a2939-54b4-4d99-b3f8-9bf004e5e271"/><linearGradient id="b376d19f-ac96-44af-8646-dcb5dbf57521" x1="-1625.94" y1="28.85" x2="-1721.68" y2="451.82" gradientTransform="matrix(-1, 0, 0, 1, -1421.85, 0)" gradientUnits="userSpaceOnUse"><stop offset="0" stop-color="#fff"/><stop offset="1" stop-color="#231f20"/></linearGradient><clipPath id="ac13463b-8659-4060-af2f-9fd046ffb28b"><path class="e5219a4c-313d-4877-abc5-66146ebe0d74" d="M385.62,228.71l.24.14.23.13.71.41,1.17.69a2.89,2.89,0,0,1-1.19-2.62l-2.35-1.37A2.88,2.88,0,0,0,385.62,228.71Z"/></clipPath><clipPath id="f0bd5cea-c2a6-4e7d-8f75-e550ec4985f9"><path class="e5219a4c-313d-4877-abc5-66146ebe0d74" d="M393.63,175.15l-2.35-1.36a2.86,2.86,0,0,0-2.9.28l2.35,1.37A2.87,2.87,0,0,1,393.63,175.15Z"/></clipPath><clipPath id="bae8e7eb-c059-4cec-9378-f22fcbb90a98"><path class="e5219a4c-313d-4877-abc5-66146ebe0d74" d="M390.73,175.44l-2.35-1.37a9,9,0,0,0-4.07,7.05l2.35,1.37A8.93,8.93,0,0,1,390.73,175.44Z"/></clipPath><clipPath id="e5b88c01-4ed7-4ade-a594-696a0506b84c"><path class="e5219a4c-313d-4877-abc5-66146ebe0d74" d="M393.82,141.68l-1.18-.68-1.17-.68a2.88,2.88,0,0,0-2.91.28l2.35,1.37A2.88,2.88,0,0,1,393.82,141.68Z"/></clipPath><clipPath id="fed91cc6-76ff-4390-90a9-b6143a8a93a3"><path class="e5219a4c-313d-4877-abc5-66146ebe0d74" d="M385.68,149.81l1.18.69,1.17.68a2.74,2.74,0,0,1-1.18-2.39l-2.35-1.37A2.73,2.73,0,0,0,385.68,149.81Z"/></clipPath><clipPath id="acc378d3-ee94-4e48-bfab-fb6b0c8c1186"><path class="e5219a4c-313d-4877-abc5-66146ebe0d74" d="M390.91,142l-2.35-1.37a9,9,0,0,0-4.06,6.82l2.35,1.37A9,9,0,0,1,390.91,142Z"/></clipPath><mask id="e3400d4e-abde-4ae2-8aee-3011fc5b69ba" x="107.62" y="-6.93" width="229.29" height="508.51" maskUnits="userSpaceOnUse"><polygon class="eefc0fe7-97a5-4a24-8cb7-db7c27558527" points="107.62 -6.93 107.62 376.63 324.13 501.57 336.92 124.44 107.62 -6.93"/></mask><linearGradient id="a14ec7d7-0338-40e8-bb8b-8a62cdd2311e" x1="242.03" y1="247.88" x2="295.87" y2="310.54" gradientUnits="userSpaceOnUse"><stop offset="0" stop-color="#f1f1f2"/><stop offset="1" stop-color="#d0d2d3"/></linearGradient><linearGradient id="af4b7d9c-6f6f-441d-8961-951a1b036d01" x1="194.74" y1="192.09" x2="289.18" y2="239.75" xlink:href="#a14ec7d7-0338-40e8-bb8b-8a62cdd2311e"/><radialGradient id="a88e2c8a-30ef-4f42-a711-2c8d4ee669e1" cx="248.93" cy="219.44" r="0.38" gradientUnits="userSpaceOnUse"><stop offset="0" stop-color="#d6aa56"/><stop offset="1" stop-color="#e3c99a"/></radialGradient><radialGradient id="ba2f80ca-d9db-46e1-89d9-8668fd0caac1" cx="248.93" cy="235.91" r="0.38" xlink:href="#a88e2c8a-30ef-4f42-a711-2c8d4ee669e1"/><radialGradient id="beba8f8e-72cf-43f5-9743-2021df7760a9" cx="248.93" cy="262.21" r="84.69" xlink:href="#a88e2c8a-30ef-4f42-a711-2c8d4ee669e1"/><linearGradient id="a470cc86-544d-41ee-a1c8-dfd46b26357d" x1="178.17" y1="205.98" x2="314.3" y2="205.98" gradientTransform="matrix(1, 0, 0, 1, 0, 0)" xlink:href="#e30a2939-54b4-4d99-b3f8-9bf004e5e271"/><linearGradient id="ee55fa99-eccb-4a7f-a511-2be3dd8836c9" x1="294.24" y1="184.09" x2="203.03" y2="128.19" xlink:href="#a14ec7d7-0338-40e8-bb8b-8a62cdd2311e"/><linearGradient id="a8e5b8f4-aa48-4001-8dcb-758bdacce467" x1="219.19" y1="142.7" x2="219.19" y2="203.94" xlink:href="#a14ec7d7-0338-40e8-bb8b-8a62cdd2311e"/><linearGradient id="a2be3126-7cdb-411c-a521-ad4f108b56a7" x1="234.38" y1="260.99" x2="231.29" y2="320.2" gradientTransform="matrix(1, 0, 0, 1, 0, 0)" xlink:href="#e30a2939-54b4-4d99-b3f8-9bf004e5e271"/><linearGradient id="b70cfe4a-066c-49c4-8e47-44195b9cc2c5" x1="248.97" y1="406.85" x2="256.99" y2="406.85" xlink:href="#a14ec7d7-0338-40e8-bb8b-8a62cdd2311e"/><linearGradient id="aacf68d9-74b5-4869-b780-b8718ec943f6" x1="262.03" y1="399.97" x2="262.03" y2="382.01" xlink:href="#a14ec7d7-0338-40e8-bb8b-8a62cdd2311e"/><linearGradient id="b881f2ea-f972-4d04-90a7-6923cecfa3d1" x1="267.28" y1="380.46" x2="267.28" y2="393.9" xlink:href="#a14ec7d7-0338-40e8-bb8b-8a62cdd2311e"/><linearGradient id="eda241da-e7c1-4f8a-83bb-e39b474321dd" x1="248.89" y1="379.31" x2="256.91" y2="379.31" xlink:href="#a14ec7d7-0338-40e8-bb8b-8a62cdd2311e"/><linearGradient id="a0340ea9-49ae-4012-ae0e-fe97043f901a" x1="249.16" y1="376.01" x2="268.48" y2="371.5" xlink:href="#a14ec7d7-0338-40e8-bb8b-8a62cdd2311e"/><linearGradient id="fc74e7bf-2d45-473b-bf29-f80b53b86a4b" x1="110.47" y1="291.39" x2="118.49" y2="291.39" xlink:href="#a14ec7d7-0338-40e8-bb8b-8a62cdd2311e"/><linearGradient id="adadd212-3728-4602-9b4c-a191793e66e0" x1="123.52" y1="284.51" x2="123.52" y2="266.55" xlink:href="#a14ec7d7-0338-40e8-bb8b-8a62cdd2311e"/><linearGradient id="a520d4ca-00b2-4e93-8bb5-bb8923f67b70" x1="128.78" y1="264.99" x2="128.78" y2="278.43" xlink:href="#a14ec7d7-0338-40e8-bb8b-8a62cdd2311e"/><linearGradient id="ba377e67-ac59-4ccb-90d1-71ffbc18fe2d" x1="110.39" y1="263.85" x2="118.41" y2="263.85" xlink:href="#a14ec7d7-0338-40e8-bb8b-8a62cdd2311e"/><linearGradient id="ab2067b0-f1cd-4492-853f-00f54f88a79e" x1="110.66" y1="260.54" x2="129.98" y2="256.03" xlink:href="#a14ec7d7-0338-40e8-bb8b-8a62cdd2311e"/><radialGradient id="e964d393-1f10-4c68-a27e-fae9e6ff9d97" cx="248.58" cy="137.6" r="44.41" xlink:href="#a88e2c8a-30ef-4f42-a711-2c8d4ee669e1"/><radialGradient id="a489e4b6-9205-403a-b574-66e1e3f1f98c" cx="252.67" cy="135.59" r="44.67" xlink:href="#a88e2c8a-30ef-4f42-a711-2c8d4ee669e1"/><radialGradient id="fbaa72e1-ad17-4468-b6d3-3e999bafb8e3" cx="300.5" cy="188.84" r="16.2" xlink:href="#a88e2c8a-30ef-4f42-a711-2c8d4ee669e1"/><linearGradient id="b8fd3b6b-9064-4306-9fd5-080d7e5769f1" x1="290.95" y1="190.52" x2="318.25" y2="190.52" xlink:href="#a14ec7d7-0338-40e8-bb8b-8a62cdd2311e"/><linearGradient id="fafdfc97-3193-4a4b-a38f-545c7ab1bf55" x1="2171.44" y1="-4303.84" x2="2171.44" y2="-4473.2" gradientTransform="matrix(1, 0, 0, -1, -1845.41, -4131.84)" gradientUnits="userSpaceOnUse"><stop offset="0" stop-color="#d6aa56"/><stop offset="0.86" stop-color="#debd80" stop-opacity="0.39"/><stop offset="1" stop-color="#e3c99a" stop-opacity="0"/></linearGradient><linearGradient id="b94a2e96-893a-4934-820c-7401ce220450" x1="229.17" y1="373.04" x2="276.08" y2="207.22" gradientTransform="matrix(1, 0, 0, 1, 0, 0)" xlink:href="#fafdfc97-3193-4a4b-a38f-545c7ab1bf55"/><linearGradient id="fa2350a0-14f8-4b10-a9e9-5deef3256eac" x1="289.42" y1="339.63" x2="217.97" y2="151.45" gradientTransform="matrix(1, 0, 0, 1, 0, 0)" xlink:href="#fafdfc97-3193-4a4b-a38f-545c7ab1bf55"/><radialGradient id="be1598fb-2c3b-4e53-8562-66e31c330efa" cx="1297.32" cy="226.93" r="12.64" gradientTransform="matrix(-1, 0, 0, 1, 1435.53, 0)" xlink:href="#a88e2c8a-30ef-4f42-a711-2c8d4ee669e1"/><radialGradient id="bea8e489-2754-475c-a8b7-9b7e8fcb4327" cx="1109.17" cy="95.74" r="18.02" gradientTransform="matrix(-1, 0, 0, 1, 1435.53, 0)" xlink:href="#a88e2c8a-30ef-4f42-a711-2c8d4ee669e1"/><radialGradient id="f7752f3f-4ab0-4269-9119-620141e3d4e6" cx="1133.99" cy="322.47" r="16.46" gradientTransform="matrix(-1, 0, 0, 1, 1435.53, 0)" xlink:href="#a88e2c8a-30ef-4f42-a711-2c8d4ee669e1"/><radialGradient id="bb8819dd-eb9b-4b26-913f-bfb1f6df7f7c" cx="1069.65" cy="173.93" r="11.67" gradientTransform="matrix(-1, 0, 0, 1, 1435.53, 0)" xlink:href="#a88e2c8a-30ef-4f42-a711-2c8d4ee669e1"/><radialGradient id="be9800f9-ff1d-4f11-a60b-4ce1e26d484c" cx="1193.02" cy="381.85" r="12.61" gradientTransform="matrix(-1, 0, 0, 1, 1435.53, 0)" xlink:href="#a88e2c8a-30ef-4f42-a711-2c8d4ee669e1"/></defs><title>robot2</title><g class="fa7e2af7-c308-486d-ab05-0d32124f1e45"><g id="f361e676-9b26-44e5-9825-7cc051b4f699" data-name="Слой 2"><g id="b6ccc4b4-d2fa-402d-aebc-44273a39ab53" data-name="Слой 1"><g class="ac5722a7-e45b-4113-85f6-e573b0f15aa6"><path class="a4d44b0d-2814-46aa-81af-ad725f182a11" d="M208.58,479.19l.1-.05c-47.09-27.37-46.84-71.89.56-99.26l.1-.05.1.05c47.39-27.36,124.26-27.36,171.34,0l.1.06-.1.06c47.09,27.36,46.84,71.89-.55,99.25l-.1.06-.1-.06c-47.4,27.37-124.26,27.36-171.35,0l-.1-.06m378.3,63.31c3.43-2,3.45-5.18,0-7.16a13.76,13.76,0,0,0-11.56-.4l-103.9-60.38C487,454.24,491.65,431.91,485.05,410c-6.75-22.43-24.94-42.83-52.59-59.06l10.89-6.29c55.27,32.4,74.16,79.4,49.29,122.8l-.2.36,61,35.43c-3,2-2.87,5,.38,6.89a13.6,13.6,0,0,0,12.36,0c3.42-2,3.44-5.18,0-7.16A13.83,13.83,0,0,0,555,502.4l-60.12-34.95c11.92-21,13.78-43.52,5.39-65.11-8.6-22.14-27.76-42.38-55.39-58.58l26-15a13.68,13.68,0,0,0,12.16-.11c3.42-2,3.43-5.18,0-7.15a13.6,13.6,0,0,0-12.36,0c-3,1.71-3.37,4.36-1.19,6.32l-88,50.8c-47.75-27.29-124.9-27.26-172.92.06l-10.83-6.3c48.42-27.58,125.57-30.79,179.87-7.4l.73.31,34.59-20a13.79,13.79,0,0,0,11.44-.46c3.43-2,3.44-5.18,0-7.16a13.63,13.63,0,0,0-12.36,0c-3.2,1.85-3.41,4.79-.64,6.77l-33.27,19.22c-26.63-11.32-59.51-16.81-92.72-15.47-33.53,1.35-65.15,9.62-89.16,23.31l-10.83-6.29c50.8-29,128.65-34.53,189.66-13.41l.71.24,124.73-72a13.72,13.72,0,0,0,11.57-.4c3.42-2,3.45-5.18,0-7.15a13.58,13.58,0,0,0-12.35,0c-3.18,1.83-3.42,4.71-.74,6.7L375.51,350.53C313.78,329.41,235.28,335.08,184,364.36l-10.83-6.29c53.27-30.44,133.6-37.83,200.23-18.37l.67.2,46.1-26.59a13.79,13.79,0,0,0,11.57-.4c3.43-2,3.44-5.18,0-7.16a13.61,13.61,0,0,0-12.35,0c-3.17,1.83-3.41,4.71-.74,6.7l-45,26c-67.29-19.46-148.24-11.92-202,18.79l-10.83-6.3c55.62-31.8,140.65-40.88,211.93-22.58l.65.17,105.6-61a13.75,13.75,0,0,0,11.57-.4c3.42-2,3.44-5.18.05-7.16a13.66,13.66,0,0,0-12.36,0c-3.17,1.84-3.42,4.72-.73,6.71L373,327.05c-35-8.9-73.57-11.56-111.48-7.65-38.73,4-74,14.58-102.12,30.65l-10.82-6.29c56.11-32.12,137.32-43.22,212.17-28.95l.62.11,61.37-35.43a13.69,13.69,0,0,0,11.89-.24c3.43-2,3.44-5.18,0-7.16a13.63,13.63,0,0,0-12.36,0c-3.06,1.77-3.39,4.53-1,6.5l-60.54,35a359,359,0,0,0-112.37-2.91c-38.25,5.05-73.26,16.21-101.32,32.27l-25.86-15c3.24-2,3.2-5.11-.13-7a13.6,13.6,0,0,0-12.36,0c-3.42,2-3.44,5.17,0,7.15a13.81,13.81,0,0,0,10.92.67L207,379.46c-47.26,27.75-47.48,72.43-.47,100.16l-10.89,6.29c-47.47-28-52.77-72.64-12.21-104.16l.54-.42-34.37-20c2.61-2,2.37-4.82-.75-6.62a13.58,13.58,0,0,0-12.35,0c-3.43,2-3.44,5.18,0,7.15a13.73,13.73,0,0,0,11.69.35l33.06,19.22c-19.62,15.45-29.2,34.52-27,53.75,2.23,19.42,16.41,37.71,39.95,51.57l-10.9,6.29c-49.89-29.33-59.18-74.4-22.52-109.81l.42-.41-123.91-72c2.71-2,2.49-4.87-.65-6.7a13.6,13.6,0,0,0-12.36,0c-3.42,2-3.44,5.18,0,7.16a13.76,13.76,0,0,0,11.56.4L158.53,383c-36.66,35.83-27.12,81.28,23.26,110.89l-10.9,6.29c-52.38-30.75-64.87-77.27-31-115.92l.34-.39L94.42,357.29c2.71-2,2.51-4.88-.65-6.71a13.64,13.64,0,0,0-12.35,0c-3.43,2-3.44,5.18,0,7.16a13.8,13.8,0,0,0,11.56.41l44.69,26c-33.8,39.05-21.06,85.91,31.77,116.93l-10.9,6.29C103.78,475.25,88.38,426,120.21,384.69l.29-.38-104.91-61c2.7-2,2.49-4.87-.65-6.7a13.66,13.66,0,0,0-12.36,0c-3.42,2-3.44,5.18,0,7.16a13.76,13.76,0,0,0,11.56.4L118,384.58c-15.49,20.32-20.19,42.65-13.59,64.59,6.76,22.42,24.94,42.83,52.6,59.05l-10.9,6.29C90.84,482.12,72,435.12,96.82,391.71l.2-.35-61-35.44c3-2,2.87-5-.39-6.89a13.64,13.64,0,0,0-12.35,0c-3.43,2-3.44,5.18,0,7.16a13.8,13.8,0,0,0,11.22.55l60.12,34.95c-11.91,21-13.78,43.52-5.39,65.1,8.61,22.14,27.76,42.39,55.4,58.58l-26,15a13.66,13.66,0,0,0-12.15.1c-3.43,2-3.44,5.18,0,7.16a13.63,13.63,0,0,0,12.36,0c3-1.72,3.37-4.37,1.19-6.33l88-50.79c47.75,27.28,124.89,27.26,172.91-.06l10.84,6.29c-48.42,27.59-125.58,30.8-179.88,7.41l-.73-.31-34.59,20a13.79,13.79,0,0,0-11.44.46c-3.42,2-3.44,5.18,0,7.15a13.6,13.6,0,0,0,12.36,0c3.21-1.85,3.42-4.78.63-6.77l33.29-19.21c26.62,11.31,59.51,16.8,92.71,15.46,33.53-1.34,65.16-9.62,89.16-23.3L404,493.92c-50.8,29-128.65,34.52-189.66,13.4l-.7-.24-124.74,72a13.76,13.76,0,0,0-11.56.4c-3.43,2-3.45,5.18,0,7.16a13.64,13.64,0,0,0,12.35,0c3.16-1.83,3.41-4.71.73-6.7L214,508.61c61.73,21.12,140.23,15.45,191.52-13.83l10.82,6.29C363,531.51,282.69,538.9,216.07,519.43l-.68-.2-46.1,26.6a13.75,13.75,0,0,0-11.57.4c-3.42,2-3.44,5.18,0,7.15a13.6,13.6,0,0,0,12.36,0c3.17-1.83,3.41-4.71.73-6.69l45-26c67.3,19.45,148.25,11.92,202-18.79l10.83,6.3C373,540,288,549.11,216.68,530.8l-.66-.17-105.6,61a13.79,13.79,0,0,0-11.57.4c-3.42,2-3.44,5.18,0,7.16a13.63,13.63,0,0,0,12.36,0c3.16-1.83,3.41-4.71.72-6.7l104.6-60.38c35,8.91,73.56,11.56,111.47,7.66,38.73-4,74-14.58,102.12-30.66l10.83,6.3c-56.12,32.12-137.32,43.21-212.18,29l-.61-.12-61.38,35.43a13.69,13.69,0,0,0-11.89.25c-3.42,2-3.43,5.18,0,7.15a13.6,13.6,0,0,0,12.36,0c3.07-1.77,3.39-4.52,1-6.5l60.54-34.94a359.35,359.35,0,0,0,112.37,2.91c38.26-5.06,73.27-16.22,101.32-32.27l25.86,15c-3.24,2-3.2,5.1.14,7a13.58,13.58,0,0,0,12.35,0c3.43-2,3.45-5.18,0-7.16a13.79,13.79,0,0,0-10.93-.66l-87.41-50.8c47.27-27.75,47.48-72.44.47-100.16l10.9-6.29c47.46,27.95,52.76,72.63,12.21,104.16l-.55.42,34.37,20c-2.6,2-2.36,4.82.75,6.63a13.63,13.63,0,0,0,12.36,0c3.42-2,3.44-5.18,0-7.16a13.79,13.79,0,0,0-11.7-.35l-33.06-19.21c19.62-15.46,29.21-34.53,27-53.75-2.22-19.42-16.41-37.71-39.94-51.58l10.89-6.29c49.89,29.33,59.18,74.41,22.53,109.82l-.43.4,123.91,72c-2.71,2-2.5,4.87.65,6.7a13.6,13.6,0,0,0,12.36,0c3.43-2,3.45-5.18,0-7.15a13.8,13.8,0,0,0-11.56-.41L430.93,476.1c36.66-35.82,27.13-81.28-23.25-110.88l10.9-6.3c52.37,30.75,64.87,77.27,31.05,115.92l-.35.39L495,501.85c-2.71,2-2.5,4.87.65,6.7a13.6,13.6,0,0,0,12.36,0c3.41-2,3.44-5.18,0-7.16a13.76,13.76,0,0,0-11.56-.4l-44.7-26c33.81-39.05,21.06-85.92-31.76-116.93l10.89-6.3c54.72,32.11,70.13,81.34,38.29,122.68l-.29.38,104.91,61c-2.7,2-2.49,4.87.66,6.7a13.58,13.58,0,0,0,12.35,0"/></g><path d="M217.82,11.13l-.69-.32-.25-.1-.64-.25-.17-.06c-.26-.09-.53-.17-.79-.24l-.47-.12-.2,0L214,9.87h-.06l-.56-.07h-.19l-.36,0a8,8,0,0,0-.85,0h-.15c-.22,0-.44,0-.66.08l-.2,0c-.25,0-.5.1-.74.17h0l-.66.23-.19.08-.54.27-.18.09L225.37,1l.08-.05.1,0c.17-.09.35-.18.54-.26l.1-.05,0,0h0l0,0,.08,0a5.3,5.3,0,0,1,.67-.23h0a6,6,0,0,1,.73-.17l.09,0,.11,0c.22,0,.44-.06.67-.07l.11,0h1l.26,0h.21l.54.07h.08c.22,0,.43.07.65.12l.21,0,.43.1h0c.26.07.52.16.79.25l.16.06.65.24.08,0,.16.07c.23.1.46.2.7.32l.26.12c.31.16.62.32.93.5L383.85,87.48l.71.43.22.15c.16.1.32.2.47.31l.26.18.44.32.26.19.43.34.24.19.49.42.17.14.65.59a1.85,1.85,0,0,1,.14.14l.41.39.06.06c.26.25.51.51.75.77h0l.72.8.06.07.08.09q.56.65,1.08,1.32l0,0,.08.1c.28.36.55.73.81,1.1l.09.12,0,.06c.25.36.5.73.74,1.1l.07.11.11.17.57.94a.64.64,0,0,1,.08.14l0,0c.21.36.42.73.61,1.1a.35.35,0,0,1,.05.08h0l.1.19.44.88c0,.06.07.12.1.19l.05.11c.18.37.35.74.51,1.12l0,0s0,.09.05.13q.23.51.42,1c0,.06.05.11.07.17s0,.09.05.13c.15.41.3.82.44,1.23v0s0,.06,0,.08c.14.42.27.84.38,1.26a1,1,0,0,1,0,.16.57.57,0,0,1,0,.14c0,.12.06.25.1.37l.12.51.09.38.06.28a1.06,1.06,0,0,1,0,.19c0,.19.08.38.11.57s.05.26.07.39l.09.6c0,.09,0,.19,0,.28a.13.13,0,0,1,0,.06q.07.65.12,1.26c0,.09,0,.18,0,.26,0,.43,0,.86,0,1.27l-1,346.57c0,4.61-1.65,7.86-4.28,9.39l-16.79,9.75c2.64-1.53,4.27-4.78,4.28-9.39l1-346.56c0-.42,0-.85-.05-1.27a2.17,2.17,0,0,0,0-.26q0-.63-.12-1.26c0-.12,0-.23-.05-.34l-.09-.6c0-.13-.05-.27-.07-.4s-.07-.38-.11-.57-.07-.31-.1-.46L381,117c0-.17-.08-.33-.13-.5l-.09-.38-.09-.3c-.12-.42-.25-.83-.38-1.25a.49.49,0,0,0,0-.11c-.13-.41-.28-.82-.44-1.22,0-.1-.07-.21-.11-.31l-.42-1-.07-.16c-.17-.38-.34-.76-.52-1.13,0-.1-.09-.2-.14-.3-.15-.29-.29-.59-.45-.88,0-.09-.09-.18-.14-.27-.2-.37-.4-.73-.61-1.09l-.12-.2q-.27-.48-.57-.93l-.17-.28c-.24-.38-.49-.74-.74-1.11l-.12-.16c-.27-.38-.54-.75-.82-1.11l-.11-.15c-.35-.45-.71-.89-1.08-1.31l-.14-.17c-.24-.27-.47-.53-.71-.78l0,0c-.24-.26-.49-.51-.74-.76l-.48-.47a.8.8,0,0,1-.13-.13l-.65-.59-.16-.13-.5-.42-.24-.19-.44-.35-.26-.19-.43-.32-.26-.18-.47-.31-.23-.15c-.23-.14-.46-.29-.7-.42L219,11.76c-.31-.18-.62-.35-.92-.5Z"/><path class="a5dc3c50-1e1e-4c54-995b-e08a26a76220" d="M219.1,15.88C213,12.35,208,15.19,208,22.21l-1,346.56c0,7,4.93,15.59,11,19.12L366.1,473.37c6.11,3.52,11.09.68,11.11-6.33l1-346.57c0-7-4.93-15.59-11-19.11Z"/><path class="b8746861-5a5e-46ea-b335-e66ee1e73365" d="M367.16,99.8c6.86,4,12.41,13.57,12.39,21.45l-1,346.57c0,7.88-5.6,11.06-12.46,7.1L218,389.44c-6.86-4-12.41-13.57-12.38-21.45l1-346.56c0-7.89,5.6-11.07,12.46-7.11ZM207,368.77c0,7,4.93,15.59,11,19.12L366.1,473.37c6.11,3.52,11.09.68,11.11-6.33l1-346.56c0-7-4.93-15.6-11-19.12L219.1,15.88C213,12.35,208,15.19,208,22.21l-1,346.56"/><path d="M367.17,97.24c8.08,4.67,14.64,16,14.61,25.31l-1,346.56c0,9.29-6.62,13.05-14.71,8.38L218,392c-8.08-4.67-14.64-16-14.61-25.31l1-346.56c0-9.29,6.63-13,14.71-8.38ZM205.66,368c0,7.89,5.52,17.49,12.38,21.45L366.1,474.92c6.86,4,12.44.78,12.46-7.1l1-346.56c0-7.89-5.52-17.49-12.38-21.45L219.1,14.32c-6.86-4-12.44-.78-12.46,7.11l-1,346.56"/><g class="b0465039-77dd-4303-a5a7-ef19176bdb5c"><g class="a6766717-131b-4d82-8031-f2fd0f2d9a18"><path class="bc934f19-bbf1-43c0-9500-f9b5a0b81a48" d="M383.85,87.48l.71.43.22.15c.16.1.32.2.47.31l.26.18.44.32.26.19.43.34.24.19.49.42.17.14.65.59a1.85,1.85,0,0,1,.14.14l.41.39.06.06c.26.25.51.51.75.77h0l.72.8.06.07.08.09q.56.65,1.08,1.32l0,0,.08.1c.28.36.55.73.81,1.1l.09.12,0,.06c.25.36.5.73.74,1.1l.07.11.11.17.57.94a.64.64,0,0,1,.08.14l0,0c.21.36.42.73.61,1.1a.35.35,0,0,1,.05.08l.1.19.44.88c0,.06.07.12.1.19l.05.11c.18.37.35.74.51,1.12l0,0s0,.09.05.13q.23.51.42,1c0,.06.05.11.07.17s0,.09.05.13c.15.41.3.82.44,1.23v0s0,.06,0,.08c.14.42.27.84.38,1.26a1,1,0,0,1,0,.16.57.57,0,0,1,0,.14c0,.12.06.25.1.37l.12.51.09.38.06.28a1.06,1.06,0,0,1,0,.19c0,.19.08.38.11.57s.05.26.07.39l.09.6c0,.09,0,.19,0,.28a.13.13,0,0,1,0,.06q.07.65.12,1.26c0,.09,0,.18,0,.26,0,.43,0,.86,0,1.27l-.18,63.13-16.78,9.66.18-63c0-.42,0-.85-.05-1.27a2.17,2.17,0,0,0,0-.26q0-.63-.12-1.26c0-.12,0-.23-.05-.34l-.09-.6c0-.13-.05-.27-.07-.4s-.07-.38-.11-.57-.07-.31-.1-.46L381,117c0-.17-.08-.33-.13-.5l-.09-.38-.09-.3c-.12-.42-.25-.83-.38-1.25a.49.49,0,0,0,0-.11c-.13-.41-.28-.82-.44-1.22,0-.1-.07-.21-.11-.31l-.42-1-.07-.16c-.17-.38-.34-.76-.52-1.13,0-.1-.09-.2-.14-.3-.15-.29-.29-.59-.45-.88,0-.09-.09-.18-.14-.27-.2-.37-.4-.73-.61-1.09l-.12-.2q-.27-.48-.57-.93l-.17-.28c-.24-.38-.49-.74-.74-1.11l-.12-.16c-.27-.38-.54-.75-.82-1.11l-.11-.15c-.35-.45-.71-.89-1.08-1.31l-.14-.17c-.24-.27-.47-.53-.71-.78l0,0c-.24-.26-.49-.51-.74-.76l-.48-.47a.8.8,0,0,1-.13-.13l-.65-.59-.16-.13-.5-.42-.24-.19-.44-.35-.26-.19-.43-.32-.26-.18-.47-.31-.23-.15c-.23-.14-.46-.29-.7-.42L303.63,60.61l16.83-9.73Z"/></g><path class="a61b1c28-65e8-4fc3-b334-37463fdce837" d="M219,11.76c-.31-.18-.62-.35-.92-.5l-.27-.13-.69-.32-.25-.1-.64-.25-.17-.06c-.26-.09-.53-.17-.79-.24l-.47-.12-.2,0L214,9.87h-.06l-.56-.07h-.19l-.36,0a8,8,0,0,0-.85,0h-.15c-.22,0-.44,0-.66.08l-.2,0c-.25,0-.5.1-.74.17h0l-.66.23-.19.08-.54.27-.18.09L225.37,1l.08-.05.1,0c.17-.09.35-.18.54-.26l.1-.05,0,0,0,0,.08,0a5.3,5.3,0,0,1,.67-.23h0a6,6,0,0,1,.73-.17l.09,0,.11,0c.22,0,.44-.06.67-.07l.11,0h1l.26,0h.21l.54.07h.08c.22,0,.43.07.65.12l.21,0,.43.1h0c.26.07.52.16.79.25l.16.06.65.24.08,0,.16.07c.23.1.46.2.7.32l.26.12c.31.16.62.32.93.5L262,17.14l-16.79,9.75Z"/><path class="fc67a603-517f-467d-80c8-df4c3b3be44d" d="M397.49,459.36c0,4.61-1.65,7.86-4.28,9.39l-16.79,9.75c2.64-1.53,4.27-4.78,4.28-9.39l.23-79.66,16.78-9.68Z"/></g><path class="ab49d631-2dd5-43a5-aa9e-aa1ffa3d0083" d="M366.1,473.37,218,387.89c-6.1-3.53-11-12.11-11-19.12l1-346.56c0-3.41,1.19-5.83,3.1-7,47.11,73.4,133,233.09,163.24,458.71C372.29,475.32,369.36,475.25,366.1,473.37Z"/><g class="fa7e2af7-c308-486d-ab05-0d32124f1e45"><g class="fa7e2af7-c308-486d-ab05-0d32124f1e45"><g class="bc6f5937-45d8-4a5e-a263-d256ddbb676e"><g class="fa7e2af7-c308-486d-ab05-0d32124f1e45"><path class="aca27ff1-2f60-4ff6-9334-2a1a12b58478" d="M386.78,227.46l-2.35-1.37h0l2.35,1.37h0"/><path class="a0157077-234e-4a68-ba61-60c3f80b6317" d="M386.78,227.47l-2.35-1.37c0,.07,0,.14,0,.2l2.35,1.37a1.41,1.41,0,0,1,0-.2"/><path class="a2b392c2-0e2a-473d-a70f-b7d85ee0acc2" d="M386.79,227.67l-2.35-1.37a1.15,1.15,0,0,0,0,.19l2.35,1.37a1.21,1.21,0,0,1,0-.19"/><path class="bf528eb3-8b90-49c5-a460-d2dfef3366ee" d="M386.8,227.86l-2.35-1.37c0,.07,0,.14,0,.2l2.35,1.37c0-.07,0-.13,0-.2"/><path class="fd743593-b678-42ed-bcaa-4b8835290b5c" d="M386.82,228.06l-2.35-1.37,0,.19,2.35,1.37,0-.19"/><path class="a8f0b8a9-53e1-4fbf-9e6c-8cb519bbb67a" d="M386.85,228.25l-2.35-1.37a1.18,1.18,0,0,0,0,.2l2.35,1.37a1.18,1.18,0,0,1,0-.2"/><path class="a68db644-97e2-49dc-bfe1-490ef662e181" d="M386.89,228.45l-2.35-1.37c0,.08,0,.15,0,.21l2.35,1.37c0-.07,0-.14-.05-.21"/><path class="f56e96ac-13cf-4e8d-9d6d-e8ef4548ade1" d="M386.94,228.66l-2.35-1.37c0,.08.05.15.08.22l2.34,1.36a1.72,1.72,0,0,0-.07-.21"/><path class="e0deb2fb-c7d6-4303-af77-c22400064cd4" d="M387,228.87l-2.34-1.36.09.23,2.35,1.37a2.44,2.44,0,0,0-.1-.24"/><path class="bbc28f08-3c34-44c7-a87c-8c8c11f1e41a" d="M387.11,229.11l-2.35-1.37a2.54,2.54,0,0,0,.16.28l2.35,1.37c-.06-.09-.11-.19-.16-.28"/><path class="b9114302-903a-4505-af2f-4d1cfd301476" d="M387.27,229.39,384.92,228a2,2,0,0,0,.7.69l2.35,1.37a2.19,2.19,0,0,1-.7-.69"/></g></g></g><polygon class="ad550a09-42e8-4966-9474-1003810bc8e2" points="386.65 182.49 384.31 181.12 384.43 226.09 386.78 227.46 386.65 182.49"/><g class="fa7e2af7-c308-486d-ab05-0d32124f1e45"><g class="f6b9d8d1-6e82-4d03-b8b4-f7871821e21b"><g class="fa7e2af7-c308-486d-ab05-0d32124f1e45"><path class="b9114302-903a-4505-af2f-4d1cfd301476" d="M393.63,175.15l-2.35-1.36a1.26,1.26,0,0,0-.33-.16L393.3,175a1.66,1.66,0,0,1,.33.15"/><path class="bbc28f08-3c34-44c7-a87c-8c8c11f1e41a" d="M393.3,175,391,173.63l-.28-.08,2.35,1.37.28.08"/><path class="e0deb2fb-c7d6-4303-af77-c22400064cd4" d="M393,174.92l-2.35-1.37-.24,0,2.35,1.37.24,0"/><path class="f56e96ac-13cf-4e8d-9d6d-e8ef4548ade1" d="M392.78,174.89l-2.35-1.37h-.21l2.35,1.37h.21"/><path class="a68db644-97e2-49dc-bfe1-490ef662e181" d="M392.57,174.88l-2.35-1.37H390l2.35,1.36h.19"/><path class="a8f0b8a9-53e1-4fbf-9e6c-8cb519bbb67a" d="M392.38,174.88,390,173.52l-.18,0,2.35,1.36.18,0"/><path class="fd743593-b678-42ed-bcaa-4b8835290b5c" d="M392.2,174.9l-2.35-1.36-.18,0,2.35,1.37.18,0"/><path class="bf528eb3-8b90-49c5-a460-d2dfef3366ee" d="M392,174.93l-2.35-1.37-.17,0,2.35,1.37.17,0"/><path class="a2b392c2-0e2a-473d-a70f-b7d85ee0acc2" d="M391.85,175l-2.35-1.37-.17.05,2.35,1.36.17,0"/><path class="a0157077-234e-4a68-ba61-60c3f80b6317" d="M391.68,175l-2.35-1.36-.16,0,2.35,1.37.16-.06"/><path class="aca27ff1-2f60-4ff6-9334-2a1a12b58478" d="M391.52,175.07l-2.35-1.37-.17.06,2.35,1.37.17-.06"/><path class="b8fb04a6-fd04-4517-b92d-a4e35eed7ae5" d="M391.35,175.13,389,173.76l-.16.07,2.35,1.37.16-.07"/><path class="fc99e7db-2c9e-421b-a5fa-41166af0817c" d="M391.19,175.2l-2.35-1.37-.17.08,2.35,1.37.17-.08"/><path class="a746bbc9-ca00-4ab3-a90e-ad29e9444d65" d="M391,175.28l-2.35-1.37-.16.09,2.35,1.36.16-.08"/><path class="bfe1b182-e9d3-4583-aa77-aa6e6c28482e" d="M390.86,175.36,388.51,174l-.13.07,2.35,1.37.13-.08"/></g></g></g><path class="f2ce82b5-6b99-4433-bca2-8e7c4d17900b" d="M390.73,175.44a8.93,8.93,0,0,0-4.07,7.05l.12,45c0,2.59,1.84,3.63,4.1,2.33a9,9,0,0,0,4.07-7l-.13-45C394.82,175.18,393,174.13,390.73,175.44Z"/><g class="fa7e2af7-c308-486d-ab05-0d32124f1e45"><g class="b6d569eb-8f08-42fe-b68f-5366a14f495b"><g class="fa7e2af7-c308-486d-ab05-0d32124f1e45"><path class="bfe1b182-e9d3-4583-aa77-aa6e6c28482e" d="M390.73,175.44l-2.35-1.37,0,0,2.35,1.37,0,0"/><path class="bea4c842-0841-4f73-95de-35a18beea16b" d="M390.69,175.46l-2.35-1.37-.18.11,2.35,1.37.18-.11"/><path class="f2b62196-eaca-42a1-9d30-2be7cb5d6538" d="M390.51,175.57l-2.35-1.37-.17.11,2.35,1.37.17-.11"/><path class="b4db7df6-3551-4de8-8ea1-728c353be4f0" d="M390.34,175.68,388,174.31l-.18.13,2.35,1.37.18-.13"/><path class="af9ad3e0-c558-4f36-b59c-b57fa975df69" d="M390.16,175.81l-2.35-1.37-.18.14,2.35,1.36.18-.13"/><path class="aa8602a4-1162-42db-a80a-0580caaaa3f1" d="M390,175.94l-2.35-1.36-.18.15,2.35,1.36.18-.15"/><path class="aaba9163-63dc-4000-a4a9-37f4583b9d32" d="M389.8,176.09l-2.35-1.36-.18.15,2.35,1.37.18-.16"/><path class="f63cdf1e-2687-44f0-ba13-51d929fb50b2" d="M389.62,176.25l-2.35-1.37-.18.17,2.35,1.37.18-.17"/><path class="b6133ed4-71f4-40e1-93d0-47dd0b3d7613" d="M389.44,176.42l-2.35-1.37-.17.17,2.35,1.37.17-.17"/><path class="b5a9c983-ba58-4a00-865f-fd2e8ee99e45" d="M389.27,176.59l-2.35-1.37-.17.18,2.35,1.36c.06-.06.11-.12.17-.17"/><path class="e3920173-919b-4834-bbe8-bdb0c4b88d75" d="M389.1,176.76l-2.35-1.36-.16.17,2.35,1.37.16-.18"/><path class="a3f7f600-0ad6-4b3c-a9c9-61a7386a9032" d="M388.94,176.94l-2.35-1.37c0,.06-.1.13-.16.19l2.35,1.36.16-.18"/><path class="b0515822-715d-4539-bf3d-46e2b39fe862" d="M388.78,177.12l-2.35-1.36-.15.19,2.35,1.37.15-.2"/><path class="b135c765-c933-4f86-bd5f-9354ca7a7f64" d="M388.63,177.32,386.28,176l-.19.24,2.35,1.37.19-.24"/><path class="acf8d469-fe94-4e19-9a25-82afdad6009c" d="M388.44,177.56l-2.35-1.37c-.08.12-.17.24-.25.37l2.35,1.36.25-.36"/><path class="b796d7d7-e09a-49c9-9363-3a1f4402059b" d="M388.19,177.92l-2.35-1.36c-.11.16-.21.32-.31.48l2.35,1.37c.1-.17.2-.33.31-.49"/><path class="acf8d469-fe94-4e19-9a25-82afdad6009c" d="M387.88,178.41,385.53,177l-.2.36,2.35,1.37c.07-.13.13-.25.2-.36"/><path class="b135c765-c933-4f86-bd5f-9354ca7a7f64" d="M387.68,178.77l-2.35-1.37-.12.24,2.35,1.37.12-.24"/><path class="b0515822-715d-4539-bf3d-46e2b39fe862" d="M387.56,179l-2.35-1.37-.11.22,2.35,1.36.11-.21"/><path class="a3f7f600-0ad6-4b3c-a9c9-61a7386a9032" d="M387.45,179.22l-2.35-1.36-.09.2,2.35,1.36.09-.2"/><path class="e3920173-919b-4834-bbe8-bdb0c4b88d75" d="M387.36,179.42,385,178.06c0,.06-.05.13-.08.19l2.35,1.37.08-.2"/><path class="b5a9c983-ba58-4a00-865f-fd2e8ee99e45" d="M387.28,179.62l-2.35-1.37a1.67,1.67,0,0,0-.08.2l2.35,1.37a1.19,1.19,0,0,1,.08-.2"/><path class="b6133ed4-71f4-40e1-93d0-47dd0b3d7613" d="M387.2,179.82l-2.35-1.37-.08.2,2.35,1.37c0-.07.05-.14.08-.2"/><path class="f63cdf1e-2687-44f0-ba13-51d929fb50b2" d="M387.12,180l-2.35-1.37c0,.07,0,.14-.07.21l2.35,1.36c0-.07.05-.14.07-.2"/><path class="aaba9163-63dc-4000-a4a9-37f4583b9d32" d="M387.05,180.22l-2.35-1.36a1.72,1.72,0,0,1-.07.21l2.35,1.36c0-.07,0-.14.07-.21"/><path class="aa8602a4-1162-42db-a80a-0580caaaa3f1" d="M387,180.43l-2.35-1.36-.06.21,2.35,1.37.06-.22"/><path class="af9ad3e0-c558-4f36-b59c-b57fa975df69" d="M386.92,180.65l-2.35-1.37-.06.22,2.35,1.37.06-.22"/><path class="b4db7df6-3551-4de8-8ea1-728c353be4f0" d="M386.86,180.87l-2.35-1.37a2.25,2.25,0,0,1-.05.22l2.35,1.36a1.6,1.6,0,0,0,.05-.21"/><path class="f2b62196-eaca-42a1-9d30-2be7cb5d6538" d="M386.81,181.08l-2.35-1.36c0,.07,0,.14,0,.21l2.35,1.36c0-.07,0-.14,0-.21"/><path class="bea4c842-0841-4f73-95de-35a18beea16b" d="M386.77,181.29l-2.35-1.36a1.18,1.18,0,0,1,0,.2l2.35,1.37a1.55,1.55,0,0,0,0-.21"/><path class="bfe1b182-e9d3-4583-aa77-aa6e6c28482e" d="M386.73,181.5l-2.35-1.37a1.49,1.49,0,0,0,0,.21l2.35,1.37a1.49,1.49,0,0,1,0-.21"/><path class="a746bbc9-ca00-4ab3-a90e-ad29e9444d65" d="M386.71,181.71l-2.35-1.37,0,.2,2.35,1.37,0-.2"/><path class="fc99e7db-2c9e-421b-a5fa-41166af0817c" d="M386.68,181.91l-2.35-1.37c0,.07,0,.13,0,.2l2.35,1.36c0-.06,0-.13,0-.19"/><path class="b8fb04a6-fd04-4517-b92d-a4e35eed7ae5" d="M386.67,182.1l-2.35-1.36a1.34,1.34,0,0,0,0,.2l2.35,1.36a1.41,1.41,0,0,1,0-.2"/><path class="aca27ff1-2f60-4ff6-9334-2a1a12b58478" d="M386.66,182.3l-2.35-1.36v.18l2.35,1.37a1.21,1.21,0,0,1,0-.19"/></g></g></g></g><g class="fa7e2af7-c308-486d-ab05-0d32124f1e45"><path class="f9c7da8c-cdf9-43c4-8131-f18d14d1f782" d="M392.66,142.94v-.46a1.77,1.77,0,0,1,0,.23A1.69,1.69,0,0,1,392.66,142.94Z"/><polygon class="ba0d6b99-9a35-446f-b320-d4155a366bfc" points="395.01 143.85 392.66 142.48 392.66 142.94 395.01 144.3 395.01 143.85"/></g><g class="fa7e2af7-c308-486d-ab05-0d32124f1e45"><g class="fa7e2af7-c308-486d-ab05-0d32124f1e45"><g class="e3b8b33b-b0f2-4c16-94c9-afdb2baed296"><g class="fa7e2af7-c308-486d-ab05-0d32124f1e45"><path class="aca27ff1-2f60-4ff6-9334-2a1a12b58478" d="M393.82,141.68l-2.35-1.36a1.5,1.5,0,0,0-.34-.16l2.35,1.37a2.07,2.07,0,0,1,.34.15"/><path class="f71f0f3f-5b15-4d7b-bd05-72c4b562cfbf" d="M393.48,141.53l-2.35-1.37-.28-.08,2.35,1.37a1.29,1.29,0,0,1,.28.08"/><path class="e289135d-936d-40c0-bc71-5f79016bcfc7" d="M393.2,141.45l-2.35-1.37-.24,0,2.35,1.37a1,1,0,0,1,.24,0"/><path class="b2dcdd32-d89c-4d7e-b4ab-ae0d7150944d" d="M393,141.42l-2.35-1.37h-.21l2.35,1.37H393"/><path class="f8d95aeb-7983-45b2-9092-e443330d7a38" d="M392.75,141.41,390.4,140h-.19l2.35,1.36h.19"/><path class="b4db7df6-3551-4de8-8ea1-728c353be4f0" d="M392.56,141.41l-2.35-1.36-.18,0,2.35,1.36.18,0"/><path class="e0b00ad7-8f55-4479-9b76-c807c93c7e92" d="M392.38,141.43,390,140.07l-.18,0,2.35,1.37.18,0"/><path class="ac61164c-7e5d-4eb0-a4c6-5a27ef70003e" d="M392.2,141.46l-2.35-1.37-.16,0L392,141.5l.16,0"/><path class="e110b95d-9a26-4d22-956c-5f7b7cfec805" d="M392,141.5l-2.35-1.37-.17.05,2.35,1.36.17,0"/><path class="b549493a-c96b-4b23-b090-de531eb78266" d="M391.87,141.54l-2.35-1.36-.17,0,2.35,1.37.17-.06"/><path class="edf5ed8f-6b69-4b8f-a0ae-f2d4fd4bcf60" d="M391.7,141.6l-2.35-1.37-.16.06,2.35,1.37.16-.06"/><path class="aa015321-7444-42f7-ba80-d5bbeb7c6a00" d="M391.54,141.66l-2.35-1.37-.17.07,2.35,1.37.17-.07"/><path class="a3028efc-1105-476e-bc12-ceb4a8a377e4" d="M391.37,141.73,389,140.36l-.16.08,2.35,1.37.16-.08"/><path class="a025ccf3-3516-466b-9e63-6581788a7a84" d="M391.21,141.81l-2.35-1.37-.17.09,2.35,1.36.17-.08"/><path class="f59c9ed4-5e8e-4a11-87ad-da1efe738960" d="M391,141.89l-2.35-1.36-.13.07,2.35,1.37.13-.08"/></g></g></g><g class="fa7e2af7-c308-486d-ab05-0d32124f1e45"><g class="e2706fcb-4849-4f9b-839f-df74c01d8615"><g class="fa7e2af7-c308-486d-ab05-0d32124f1e45"><path class="e110b95d-9a26-4d22-956c-5f7b7cfec805" d="M386.85,148.79l-2.35-1.37a1.09,1.09,0,0,0,0,.18l2.35,1.36a.91.91,0,0,1,0-.17"/><path class="ac61164c-7e5d-4eb0-a4c6-5a27ef70003e" d="M386.86,149l-2.35-1.36a1.23,1.23,0,0,0,0,.19l2.35,1.37a1.36,1.36,0,0,1,0-.2"/><path class="e0b00ad7-8f55-4479-9b76-c807c93c7e92" d="M386.88,149.16l-2.35-1.37a1.2,1.2,0,0,0,0,.2l2.35,1.37a.75.75,0,0,1,0-.2"/><path class="b4db7df6-3551-4de8-8ea1-728c353be4f0" d="M386.91,149.36,384.56,148a1.42,1.42,0,0,0,0,.2l2.35,1.36a1.29,1.29,0,0,1,0-.19"/><path class="f8d95aeb-7983-45b2-9092-e443330d7a38" d="M387,149.55l-2.35-1.36a1.17,1.17,0,0,0,0,.2l2.35,1.37a1.6,1.6,0,0,1-.05-.21"/><path class="b2dcdd32-d89c-4d7e-b4ab-ae0d7150944d" d="M387,149.76l-2.35-1.37c0,.08.05.15.07.22l2.35,1.37-.07-.22"/><path class="e289135d-936d-40c0-bc71-5f79016bcfc7" d="M387.07,150l-2.35-1.37.1.24,2.35,1.37-.1-.24"/><path class="f71f0f3f-5b15-4d7b-bd05-72c4b562cfbf" d="M387.17,150.22l-2.35-1.37.15.27,2.35,1.37-.15-.27"/><path class="aca27ff1-2f60-4ff6-9334-2a1a12b58478" d="M387.32,150.49,385,149.12a2,2,0,0,0,.71.69l2.35,1.37a2,2,0,0,1-.71-.69"/></g></g></g><path class="f2ce82b5-6b99-4433-bca2-8e7c4d17900b" d="M390.91,142a9,9,0,0,0-4.06,6.82c.11,2.42,1.9,3.37,4.09,2.1a9,9,0,0,0,4.06-6.81C394.89,141.65,393.1,140.7,390.91,142Z"/><g class="fa7e2af7-c308-486d-ab05-0d32124f1e45"><g class="a22704f7-b407-4410-82b5-dcb3bfd3bdba"><g class="fa7e2af7-c308-486d-ab05-0d32124f1e45"><path class="f59c9ed4-5e8e-4a11-87ad-da1efe738960" d="M390.91,142l-2.35-1.37,0,0,2.35,1.37,0,0"/><path class="a04e7133-f596-4618-9ba0-158eff173df9" d="M390.87,142l-2.35-1.37-.17.11,2.35,1.37.17-.11"/><path class="bcd0de4b-16a7-4254-a81d-e181ad481981" d="M390.7,142.1l-2.35-1.37-.18.11,2.35,1.37.18-.11"/><path class="a8ea3641-2c79-4292-a75e-736b2714a4c6" d="M390.52,142.21l-2.35-1.37a1.09,1.09,0,0,1-.17.13l2.35,1.37.17-.13"/><path class="ee3e17ea-b202-4201-8260-62ad192f7d90" d="M390.35,142.34,388,141l-.18.14,2.35,1.36.18-.13"/><path class="b1b552b0-c4ee-4b8f-9900-b8b261a74a0f" d="M390.17,142.47l-2.35-1.36-.18.15,2.35,1.36.18-.15"/><path class="ff8aaf8c-3332-4724-95e1-523097a403dd" d="M390,142.62l-2.35-1.36-.19.15,2.35,1.37.19-.16"/><path class="ff386862-b598-47f6-9c0a-8f818839a2af" d="M389.8,142.78l-2.35-1.37-.17.17,2.34,1.37.18-.17"/><path class="b380d291-21d5-4c07-8dc0-98c227887eb6" d="M389.62,143l-2.34-1.37-.18.17,2.35,1.37.17-.17"/><path class="f2ec41f3-892a-4689-a9cb-1561032d6ba9" d="M389.45,143.12l-2.35-1.37-.16.18,2.35,1.36.16-.17"/><path class="eebdf1cc-8de8-4a10-a511-95cc71cd3884" d="M389.29,143.29l-2.35-1.36a1.29,1.29,0,0,0-.16.17l2.35,1.37.16-.18"/><path class="ef819b8e-3419-457f-9073-63ee3c0d4645" d="M389.13,143.47l-2.35-1.37c-.06.06-.11.13-.16.19l2.35,1.36.16-.18"/><path class="e55aada5-80f1-48f5-919f-8ac8ce00c0ed" d="M389,143.65l-2.35-1.36c-.05.06-.11.12-.16.19l2.35,1.36c.05-.06.11-.12.16-.19"/><path class="b6e5d9bf-eb37-43fc-99c0-a02e0f38e30c" d="M388.81,143.84l-2.35-1.36-.18.23,2.35,1.37.18-.24"/><path class="a3a248e3-96d2-4c58-8605-b82a6c3e8d00" d="M388.63,144.08l-2.35-1.37-.24.36,2.35,1.36.24-.35"/><path class="a3fbbf91-dc2f-49d8-b0fc-038a26c00900" d="M388.39,144.43,386,143.07a5.69,5.69,0,0,0-.33.52l2.35,1.36a5.69,5.69,0,0,1,.33-.52"/><path class="a3a248e3-96d2-4c58-8605-b82a6c3e8d00" d="M388.06,145l-2.35-1.36c-.07.11-.13.23-.2.35l2.35,1.37c.06-.12.13-.24.2-.36"/><path class="b6e5d9bf-eb37-43fc-99c0-a02e0f38e30c" d="M387.86,145.31l-2.35-1.37-.12.23,2.35,1.37.12-.23"/><path class="e55aada5-80f1-48f5-919f-8ac8ce00c0ed" d="M387.74,145.54l-2.35-1.37c0,.08-.07.15-.1.22l2.35,1.36.1-.21"/><path class="ef819b8e-3419-457f-9073-63ee3c0d4645" d="M387.64,145.75l-2.35-1.36-.09.2,2.35,1.36.09-.2"/><path class="eebdf1cc-8de8-4a10-a511-95cc71cd3884" d="M387.55,146l-2.35-1.36-.09.19,2.35,1.37.09-.2"/><path class="f2ec41f3-892a-4689-a9cb-1561032d6ba9" d="M387.46,146.15l-2.35-1.37a1.67,1.67,0,0,1-.08.2l2.35,1.36a1.54,1.54,0,0,0,.08-.19"/><path class="b380d291-21d5-4c07-8dc0-98c227887eb6" d="M387.38,146.34,385,145c0,.07,0,.13-.07.2l2.35,1.37c0-.07.05-.14.07-.21"/><path class="ff386862-b598-47f6-9c0a-8f818839a2af" d="M387.31,146.55,385,145.18a1.72,1.72,0,0,0-.07.21l2.35,1.36a1.18,1.18,0,0,1,.07-.2"/><path class="ff8aaf8c-3332-4724-95e1-523097a403dd" d="M387.24,146.75l-2.35-1.36a1.72,1.72,0,0,0-.07.21l2.35,1.36a1.72,1.72,0,0,1,.07-.21"/><path class="b1b552b0-c4ee-4b8f-9900-b8b261a74a0f" d="M387.17,147l-2.35-1.36-.06.21,2.35,1.37.06-.22"/><path class="ee3e17ea-b202-4201-8260-62ad192f7d90" d="M387.11,147.18l-2.35-1.37-.06.22,2.35,1.37.06-.22"/><path class="a8ea3641-2c79-4292-a75e-736b2714a4c6" d="M387.05,147.4,384.7,146a1.42,1.42,0,0,0-.05.22l2.35,1.36a1.6,1.6,0,0,1,.05-.21"/><path class="bcd0de4b-16a7-4254-a81d-e181ad481981" d="M387,147.61l-2.35-1.36a1.55,1.55,0,0,0,0,.21l2.35,1.36a1.55,1.55,0,0,1,0-.21"/><path class="a04e7133-f596-4618-9ba0-158eff173df9" d="M387,147.82l-2.35-1.36a1.55,1.55,0,0,0,0,.21l2.35,1.36a1.55,1.55,0,0,1,0-.21"/><path class="f59c9ed4-5e8e-4a11-87ad-da1efe738960" d="M386.92,148l-2.35-1.36,0,.2,2.35,1.36,0-.2"/><path class="a025ccf3-3516-466b-9e63-6581788a7a84" d="M386.89,148.23l-2.35-1.36c0,.07,0,.13,0,.2l2.35,1.37a1.49,1.49,0,0,1,0-.21"/><path class="a3028efc-1105-476e-bc12-ceb4a8a377e4" d="M386.87,148.44l-2.35-1.37c0,.07,0,.13,0,.2l2.35,1.36c0-.06,0-.13,0-.19"/><path class="aa015321-7444-42f7-ba80-d5bbeb7c6a00" d="M386.85,148.63l-2.35-1.36v.15l2.35,1.37v-.16"/></g></g></g></g><g class="fa7e2af7-c308-486d-ab05-0d32124f1e45"><path class="f71f0f3f-5b15-4d7b-bd05-72c4b562cfbf" d="M386.85,148.79a1.69,1.69,0,0,0,0,.23v-.46A1.77,1.77,0,0,0,386.85,148.79Z"/><polygon class="ba0d6b99-9a35-446f-b320-d4155a366bfc" points="386.84 148.56 384.49 147.2 384.49 147.65 386.84 149.02 386.84 148.56"/></g><g class="abb86003-9a52-4928-b45d-cad046be2963"><path d="M211.91,217.65l-3,2.68c-1.94,1.68-4.71,4-8.06,6.84l-5.42,4.5c-1.95,1.57-4,3.24-6.12,4.93s-4.32,3.46-6.6,5.2-4.57,3.53-6.91,5.26l-3.5,2.61-3.52,2.53c-2.31,1.7-4.66,3.29-6.91,4.84s-4.51,3-6.61,4.37l-1.55,1-1.56.95-2.95,1.78c-1.86,1.16-3.71,2.1-5.28,3l-2.22,1.21-2,.94L136,272a3.83,3.83,0,0,1-3.88-6.56l.27-.19,3-2.2,1.58-1.16,1.83-1.5c1.3-1.08,2.79-2.21,4.33-3.64l2.42-2.17,1.27-1.14,1.29-1.23c1.73-1.67,3.58-3.36,5.42-5.26s3.77-3.77,5.66-5.8l2.88-3,2.85-3.1c1.91-2.06,3.79-4.16,5.62-6.24s3.63-4.14,5.36-6.13,3.37-3.95,4.94-5.79l4.36-5.25c2.68-3.26,4.89-6,6.4-7.92l2.35-3,.05-.07A12.4,12.4,0,0,1,213.5,216,13.27,13.27,0,0,1,211.91,217.65Z"/><path class="ff2e23b8-eff0-46fa-ba7e-21f8d48b0bc0" d="M328.43,224.19c0-1.06.07-2.1.1-3.1,0-.06,0-.11,0-.16v-.09a.22.22,0,0,0,0-.08c0-.36,0-.73,0-1.1h0c0,.53,0,1.06-.05,1.6a.49.49,0,0,0,0,.12c0,.07,0,.14,0,.2l0,.35c0,.35-.06.7-.11,1.05,0,0,0,.11,0,.16l-.09.6c-.05.34-.11.69-.18,1s-.09.46-.15.7-.15.67-.24,1-.12.46-.19.7-.2.67-.31,1l-.23.68h0c-.13.36-.27.71-.41,1.07-.08.2-.15.41-.24.61-.18.43-.38.87-.59,1.3l-.09.19c-.05.12-.11.24-.17.36-.22.44-.46.89-.7,1.33l-.06.11-.09.14c-.21.38-.43.75-.66,1.12l-.15.25a1.3,1.3,0,0,1-.1.15c-.23.37-.48.74-.73,1.11l-.1.14a3.46,3.46,0,0,1-.22.31c-.23.33-.47.66-.71,1-.11.14-.21.28-.32.41-.3.39-.61.78-.93,1.16l-.3.35c-.3.36-.62.72-.94,1.07-.09.11-.19.21-.29.32-.37.4-.75.8-1.15,1.2l-.3.29c-.34.34-.69.68-1.05,1l-.18.17-.43.4-.7.61-.39.34c-.3.26-.62.52-.94.78l-.19.16c-.38.31-.78.62-1.18.93l-.31.23c-.3.23-.6.46-.91.68l-.46.33-.81.57-.52.36-.79.53-.57.36-.79.51-.6.37c-.79.48-1.59,1-2.43,1.42a92.7,92.7,0,0,1-19.36,8l-.8.23-2.48.68-1.19.3-2.16.52-1.29.28q-1.08.24-2.16.45l-1.27.25c-.79.15-1.59.29-2.38.42l-1.06.18c-1,.16-2.09.31-3.14.45-.3.05-.61.08-.91.12l-2.65.31-.43.05-1,.09c-.78.07-1.57.15-2.36.21l-1.32.09c-.76.05-1.51.1-2.27.13l-1.33.07-2.39.07-1.17,0c-1,0-2.07,0-3.1,0h-1c-.81,0-1.62,0-2.42-.06l-1.76-.06-2-.11-1.75-.11-2-.16-1.73-.16-2-.22-1.72-.2-2-.27-1.7-.25-2-.33-1.63-.29-.17,0-1.82-.36-1.38-.29-.38-.09-.18,0-1.63-.38-1.21-.29-.62-.15-1.69-.45-1.25-.34-.39-.1-1.82-.55c-.45-.14-.91-.27-1.36-.42l-.2-.06h0l-1.78-.6-1.26-.43-.77-.29-1.3-.48-1-.38-.93-.38c-.44-.17-.88-.36-1.31-.54l0,0-.73-.31-.72-.31-.33-.15-1.4-.65h0l-.49-.23-.49-.24-.55-.26-1.71-.88-.23-.12-.27-.14-.31-.16c-.13-.08-.27-.15-.41-.22-.88-.49-1.76-1-2.62-1.5-15.08-9-22.57-20.65-22.53-32.26.07,9,.38,16.15.76,21.83l.09,1.35c.12,1.89.31,4,.54,6.23.45,4.47.89,7.34,1.13,8.89.08.55.17,1.12.27,1.7l0,.21c.85,5.25,2,11.62,3.22,16.47.12.5.25,1,.38,1.55A126.63,126.63,0,0,0,180.82,294c.94,2.33,2,5,3.33,8l.62,1.5.57,1.13a100.49,100.49,0,0,0,15.46,24.19,73.18,73.18,0,0,0,6,6.21,76.74,76.74,0,0,0,8.43,6.85l0,0,0,0c1.18.8,2.51,1.66,4.13,2.67a58.67,58.67,0,0,0,10.86,5.19h0c.76.3,1.82.65,3,1h0c.9.27,1.85.53,2.75.76h0c1,.24,1.87.44,2.61.57h0c.73.14,1.7.29,2.43.41l.12,0c.78.12,1.56.22,2.26.28h0l.57.05c.58.05,1.23.11,1.75.13.68,0,1.6.06,2.29.07h0c.69,0,1.6,0,2.29,0,.11,0,1.74,0,4.15-.31l.53-.06h.07l.16,0,.76-.11,1-.15.44-.07h0l.11,0,.53-.1.46-.09c.51-.09,1-.2,1.55-.32l1.74-.42h0l.84-.22.07,0,.07,0,.1,0,.53-.16.16,0,.17-.05c.61-.18,1.19-.37,1.77-.56l.31-.1c1.05-.33,2.42-.85,3.44-1.29a62.67,62.67,0,0,0,6.89-3.34l.1-.06c1.41-.75,3.2-1.9,4.54-2.78l1.08-.73a69.66,69.66,0,0,0,6.36-4.94l0,0c.95-.83,1.86-1.67,2.72-2.5s1.63-1.56,2.33-2.29l0,0,.32-.33,0,0h0a52.16,52.16,0,0,0,4.3-4.86l.35-.39.36-.43.37-.45.05-.06.43-.55.1-.12.38-.49c.09-.13.19-.25.3-.39l.18-.25a109,109,0,0,0,8.74-13.67c.28-.51.55-1,.82-1.56h0a.08.08,0,0,1,0-.05v0c1.34-2.62,3.08-6.14,4.18-8.87.09-.21.17-.42.26-.64,2-4.77,3.39-8.7,4.19-11.15l0-.1c0-.11.07-.2.1-.3.17-.55.34-1.09.49-1.61.09-.3.15-.51.19-.63l.12-.44c.08-.24.15-.48.22-.7-.05.17-.11.35-.17.52a1.21,1.21,0,0,0,.05-.18c.75-2.41,1.32-4.43,1.86-6.57.43-1.62.83-3.2,1.13-4.62,0-.06,0-.13,0-.19,1.15-5,1.85-9,2.52-13a183.81,183.81,0,0,0,2.31-20.82c.09-.93.17-1.83.25-2.7l.1-3.25v.09C328.24,230.5,328.34,227.24,328.43,224.19Z"/><path class="b1cab274-36ca-4cf6-a8dd-dea9a1541071" d="M328.15,233.38c.28-5.13.36-9.57.41-13Z"/><path class="e9f32951-3067-4ad5-9fc4-96fbcacdf343" d="M193.42,186.25c31.54-17.7,82-17.19,112.62,1.14s29.95,47.53-1.6,65.23-82,17.19-112.62-1.14S161.88,204,193.42,186.25Zm55.44,33.15a0,0,0,0,0,0,.08.14.14,0,0,0,.14,0s.05-.06,0-.08a.14.14,0,0,0-.15,0"/><path d="M263.09,333.73V281.34c-35,2.77-57.25-4.7-70.75-12.83-9.39-5.8-14.93-12-18.11-16.71a.26.26,0,0,1,0-.09v0a29.5,29.5,0,0,1-3.93-7.72c.12,1.47.26,3,.43,4.62.45,4.47.89,7.34,1.13,8.89.08.55.17,1.12.27,1.7l0,.21c.85,5.25,2,11.62,3.21,16.47.13.5.26,1,.39,1.55A126.63,126.63,0,0,0,180.82,294c.93,2.33,2,5,3.33,8l.62,1.5.57,1.13a106.75,106.75,0,0,0,10,17.28C226.57,338.62,263.09,333.73,263.09,333.73Z"/><path class="f06eec9b-e95b-4d02-82bb-576ab990b567" d="M248.7,219.73a.46.46,0,0,0,.23.06h0a.51.51,0,0,0,.22,0,.34.34,0,0,0,.18-.3l0-.21-.14-.09a.48.48,0,0,0-.45,0,.33.33,0,0,0-.18.29l0,.21Zm.2-.27.1.19a.17.17,0,0,1-.14,0,.24.24,0,0,1-.12-.22Z"/><path class="b0157bd9-722f-41ca-b164-d8788dd0a575" d="M248.93,236.27a.43.43,0,0,0,.22-.06.33.33,0,0,0,.18-.29.39.39,0,0,0-.17-.3.48.48,0,0,0-.45,0h0a.36.36,0,0,0-.18.3.42.42,0,0,0,.17.3A.46.46,0,0,0,248.93,236.27Zm0-.33.1.19a.12.12,0,0,1-.14,0,.22.22,0,0,1-.12-.21Z"/><path class="e7026199-bf11-497b-9df2-448175c42be0" d="M174.47,252.71c3.85,5.74,9.65,11,17.2,15.5,15.7,9.39,36.62,14.11,57.53,14.11,4.55,0,9.1-.24,13.59-.69v51.83c-23.35,2.34-48.17-1.39-66.88-11.16a.29.29,0,0,0-.4.12.3.3,0,0,0,.12.4c15.19,7.93,34.38,11.91,53.56,11.91,4.56,0,9.11-.23,13.6-.68v17.06a.31.31,0,0,0,.3.3.3.3,0,0,0,.29-.3V334a115,115,0,0,0,32.79-8.14v3.47a.3.3,0,1,0,.59,0v-3.73c1.55-.67,3.08-1.37,4.57-2.11a.3.3,0,0,0-.27-.53c-1.4.71-2.84,1.37-4.3,2V309.3c10.82-6.67,19.48-21.94,19.45-34.48,0-4.59-1.23-8.33-3.36-10.88,7.73-5.93,12.84-12.83,14.95-20.29a.29.29,0,1,0-.56-.16c-2.08,7.34-7.14,14.15-14.78,20a10.31,10.31,0,0,0-7.78-3.29,17.6,17.6,0,0,0-7.92,2.11v-5.59a86.26,86.26,0,0,0,7.83-3.85c15.48-8.69,24.11-20.38,24.28-32.92.17-12.32-7.89-24-22.68-32.82C291,178,270.52,173,248.66,173c-20.79,0-40.46,4.61-55.38,13-15.49,8.69-24.11,20.38-24.28,32.92a29.79,29.79,0,0,0,4.88,16.44v15.32a31.41,31.41,0,0,1-3.45-8.21.29.29,0,0,0-.57.14,32.3,32.3,0,0,0,4,9.2Zm130.21,8.36a9.47,9.47,0,0,1,7.11,2.92,68,68,0,0,1-7.49,4.85c-2.41,1.35-4.93,2.58-7.54,3.72V263.3A17,17,0,0,1,304.68,261.07Zm-22.12,16.41c3.52-5.76,8.21-10.75,13.36-13.73l.25-.13v9.19A100.4,100.4,0,0,1,282.56,277.48Zm13.61-4v35.19c-.18.11-.36.23-.55.33a17.68,17.68,0,0,1-8.76,2.69c-6.55,0-10.64-5.27-10.66-13.75,0-6.37,2.25-13.45,5.92-19.7A104.91,104.91,0,0,0,296.17,273.46Zm0-10.82c-.23.12-.45.23-.68.37-5.49,3.17-10.47,8.59-14.11,14.8a125.57,125.57,0,0,1-18,3.19V265.13A115,115,0,0,0,296.17,257ZM193.56,186.51c14.84-8.32,34.41-12.91,55.1-12.91,21.76,0,42.08,5,57.23,14,14.6,8.73,22.55,20.21,22.39,32.31-.17,12.32-8.69,23.83-24,32.42-11.43,6.41-25.68,10.59-41.08,12.18a.28.28,0,0,0-.13,0,.29.29,0,0,0-.18.07c-4.49.45-9.07.7-13.71.7-21.75,0-42.08-5-57.23-14-7.82-4.68-13.74-10.14-17.52-16.07a.22.22,0,0,0-.08-.13,29.21,29.21,0,0,1-4.79-16.1C169.75,206.6,178.27,195.09,193.56,186.51ZM192,267.71c-7.8-4.67-13.71-10.12-17.5-16.08V236.26c3.84,5.7,9.64,11,17.2,15.48,15.24,9.11,35.67,14.13,57.53,14.13a135.13,135.13,0,0,0,13.59-.69v15.88C237.74,283.56,211,279.08,192,267.71Zm104.2,57.5a114.51,114.51,0,0,1-32.79,8.19V281.58A127.58,127.58,0,0,0,281,278.5c-3.51,6.21-5.66,13.16-5.64,19.42,0,9,4.44,14.61,11.52,14.61a18.54,18.54,0,0,0,9.19-2.8l.12-.07Zm19.18-50.39c0,12.1-8.21,26.79-18.59,33.47V273.2c2.71-1.17,5.33-2.45,7.83-3.84a71.43,71.43,0,0,0,7.59-4.92C314.2,266.82,315.33,270.37,315.35,274.82Z"/><g class="b291283a-ed94-444e-b506-6bf32ba79c61"><path class="baa5702a-0691-4dee-984a-8cf58b6f6538" d="M308,206l-61.89-35.72c-8.4-4.86-22-4.86-30.33,0L184.4,188.44c-8.34,4.86-8.3,12.72.1,17.57l61.89,35.73c8.4,4.85,22,4.85,30.32,0l31.35-18.22c8.35-4.85,8.31-12.72-.09-17.57"/></g><path class="f6f0d7b2-b2ba-4685-8276-e011ad4a6116" d="M329.43,152.25v-.15c0-.1,0-.2,0-.3s0-.25,0-.38l0-.28c0-.11,0-.23,0-.34s0-.14,0-.21l-.06-.49a2.11,2.11,0,0,0,0-.25v-.1c0-.29-.08-.58-.13-.87v0s0-.07,0-.1c0-.25-.08-.5-.13-.75a.5.5,0,0,1,0-.12c0-.12-.05-.24-.08-.35s-.05-.28-.08-.42l-.06-.24c0-.12-.05-.24-.08-.37s-.05-.19-.07-.29l-.09-.36c0-.12-.07-.24-.1-.36s0-.13-.05-.19-.09-.32-.14-.48-.07-.23-.1-.35a.24.24,0,0,1,0-.08l-.29-.89h0l0-.06c-.09-.27-.19-.54-.28-.8a.78.78,0,0,1-.05-.14c0-.09-.07-.18-.1-.26l-.17-.45-.11-.27c0-.11-.09-.22-.13-.32a2.44,2.44,0,0,0-.1-.24c-.06-.16-.13-.31-.2-.47a2,2,0,0,0-.11-.26.36.36,0,0,0,0-.09c-.12-.28-.25-.55-.38-.83v0l-.11-.21-.31-.66a.41.41,0,0,1-.05-.09l-.27-.52c-.08-.14-.14-.28-.22-.42l0-.07c-.24-.45-.49-.9-.75-1.34l-.05-.1a.41.41,0,0,1-.07-.11c-.37-.62-.75-1.23-1.15-1.82l-.06-.1-.11-.16c-.31-.46-.64-.93-1-1.38h0l0-.06-.69-.91,0,0-.43-.53c-.09-.11-.17-.22-.26-.32l-.64-.75s0,0,0,0l-.18-.21-.45-.49-.07-.08-.33-.34-.3-.31a.57.57,0,0,0-.11-.11l-.36-.36-.25-.25-.15-.14-.37-.34-.24-.22-.19-.17-.37-.33-.2-.17L316,126l-.38-.32-.17-.13-.28-.22-.35-.27-.12-.09-.39-.28-.29-.2-.07,0c-.24-.17-.49-.33-.73-.48h0l-.09-.05-.64-.39-.17-.1L242.41,83l-.55-.3-.2-.11-.29-.15-.21-.11-.34-.16-.26-.12-.1,0-.69-.29-.69-.26-.09,0-.24-.08-.36-.12-.18,0-.29-.09-.24-.06-.24-.06-.31-.06-.15,0-.28,0-.36-.06-.12,0-.27,0-.39,0h-1.09c-.18,0-.37,0-.55,0h-.28c-.27,0-.54.07-.8.12h-.09l-.16,0-.48.12-.24.07-.3.1-.08,0-.45.18-.22.1c-.22.1-.43.21-.64.33l-58.06,33.74c.21-.12.42-.23.64-.33l.22-.1.45-.18.39-.13.22-.07.5-.12.15,0h.09q.39-.07.81-.12l.27,0,.54,0h.75l.36,0,.38,0,.39.05.35,0,.45.09.3.06.48.12.3.09.52.16.25.08c.52.18,1,.39,1.57.63l.27.12.53.27.31.15.74.41,69.9,40.36c.29.17.58.34.86.52l0,0,.81.53.3.22.5.36.35.27.46.36.35.28.46.39.35.31.43.39.36.33.44.43c.1.1.21.2.31.31s.31.31.46.47l.3.31.49.54.22.24c.48.55.94,1.11,1.39,1.68l.62.81.13.18c.33.44.64.89.95,1.35l.19.27c.39.59.76,1.19,1.13,1.8,0,.08.1.17.15.25.25.44.5.88.73,1.32l.27.5.25.49c.13.26.25.52.38.77l.1.21c.15.32.29.63.43,1l.11.26.31.73.12.3.27.71.11.29c.24.66.46,1.32.67,2,0,.1,0,.2.08.3s.14.46.2.69.07.25.1.38.11.43.16.64l.09.37c.05.23.09.45.14.67a3,3,0,0,0,.07.32c.05.31.11.61.16.91v.08c.05.33.1.66.14,1,0,.08,0,.15,0,.23,0,.25.06.49.08.74,0,.1,0,.21,0,.31s0,.45,0,.67,0,.2,0,.3c0,.31,0,.62,0,.93l-.12,41c0,.32,0,.64,0,1,0,.08,0,.16,0,.24s0,.44-.05.65l0,.34c0,.18,0,.36-.07.53s0,.25-.05.38,0,.31-.08.46l-.09.42c0,.14-.05.27-.08.4l-.13.49c0,.11-.07.23-.1.34l-.18.55c0,.1-.07.2-.11.29a8.41,8.41,0,0,1-.37.87,10.25,10.25,0,0,1-.67,1.23c-.18.27-.37.53-.56.78l-.14.17q-.28.35-.6.66s0,0,0,0a7.8,7.8,0,0,1-.69.6l-.18.13q-.36.27-.75.51,29-16.87,58.06-33.74.39-.24.75-.51l.18-.13c.23-.19.47-.38.69-.6l0-.05c.21-.2.4-.42.59-.64l.15-.18c.19-.25.38-.51.55-.78l0,0c.12-.19.23-.38.34-.57h0c.11-.2.21-.4.31-.61v0c.13-.28.25-.56.37-.86l0-.08c0-.08,0-.16.08-.23s.12-.35.17-.53a.88.88,0,0,0,0-.15l.06-.22.12-.46a1.46,1.46,0,0,0,.05-.2c0-.07,0-.15.05-.22s.05-.27.08-.4,0-.14,0-.22a2.51,2.51,0,0,0,0-.27c0-.11,0-.23.05-.35l0-.2c0-.11,0-.23,0-.34l0-.35s0-.09,0-.14l0-.48c0-.09,0-.17,0-.26a.17.17,0,0,0,0-.07c0-.27,0-.55,0-.83v0l.11-41C329.45,152.77,329.44,152.51,329.43,152.25Z"/><path class="e535c0cb-5a4f-4fd8-b24b-08349212fdaf" d="M254.25,157.1c9.5,5.48,17.17,18.76,17.14,29.67l-.12,41c0,10.91-7.75,15.31-17.24,9.83L184.12,197.2c-9.49-5.48-17.16-18.77-17.13-29.68l.12-41c0-10.9,7.75-15.3,17.24-9.82Z"/><path d="M257.19,181.14l-77.08-44.5c-3.27-1.89-5.92-.37-5.93,3.38l-.07,24.1a13,13,0,0,0,5.9,10.22l77.07,44.5c3.27,1.88,5.93.37,5.94-3.39l.07-24.1a13,13,0,0,0-5.9-10.21"/><path d="M310.78,284.53l.1.37.15.57.15.62c.21.92.48,2.21.75,3.81s.54,3.52.78,5.71.41,4.64.52,7.31.12,5.55,0,8.59c0,1.52-.18,3.08-.28,4.66-.07.79-.16,1.6-.25,2.4s-.16,1.62-.28,2.44-.23,1.64-.35,2.47-.29,1.66-.43,2.49c-.27,1.67-.66,3.35-1,5-.17.84-.42,1.68-.63,2.52s-.43,1.68-.67,2.52-.51,1.66-.76,2.5-.51,1.67-.82,2.48c-.58,1.65-1.14,3.29-1.83,4.89-.32.8-.65,1.59-1,2.39s-.72,1.56-1.08,2.33-.7,1.55-1.09,2.3l-1.17,2.22c-.74,1.49-1.59,2.89-2.41,4.28-.42.69-.8,1.39-1.24,2l-1.29,1.95-1.27,1.9-1.32,1.8c-1.69,2.38-3.5,4.46-5.1,6.41-.85.94-1.67,1.83-2.45,2.68l-1.13,1.23-1.12,1.11-2,2-.9.89-.87.76-3.42,3A3.83,3.83,0,0,1,271.5,380l.14-.18,2.67-3.3.67-.82.68-.94,1.54-2.12.84-1.17.83-1.28c.57-.87,1.16-1.79,1.78-2.75,1.13-2,2.42-4.07,3.54-6.4l.89-1.75q.41-.9.81-1.83c.28-.62.55-1.24.83-1.87s.51-1.28.77-1.93c.5-1.3,1-2.61,1.44-4,.22-.68.44-1.36.67-2.05s.39-1.39.59-2.09.38-1.39.57-2.1l.48-2.14c.35-1.41.57-2.86.83-4.3.14-.72.24-1.44.33-2.17s.19-1.44.28-2.16.13-1.44.2-2.16.14-1.43.16-2.14c.06-1.44.15-2.84.14-4.24,0-.7,0-1.39,0-2.08l-.06-2.05c0-.68-.06-1.35-.1-2s-.08-1.32-.13-2c-.14-1.29-.23-2.55-.41-3.78-.29-2.45-.72-4.74-1.13-6.83s-.91-4-1.38-5.62-.91-3-1.31-4.15-.72-1.94-.93-2.45c-.06-.12-.1-.23-.14-.33a.58.58,0,0,1-.07-.11l0,0,0-.08,0-.07a12.38,12.38,0,1,1,22.7-9.87,13.35,13.35,0,0,1,.6,1.71Z"/><path class="bdf7b866-ce6c-4960-b11f-3c78e1f5d81e" d="M263.28,333.73V281.34c-28.44,2.25-48.47-2.26-62.22-8.4.62,15.62,3.55,38.88,14.42,56.89A133,133,0,0,0,263.28,333.73Z"/><polygon class="e95a2c9f-2884-4746-94d6-3d6abed1e62b" points="256.99 410.67 248.98 406.01 248.97 403.04 256.98 407.7 256.99 410.67"/><path class="a6671311-7534-4185-9e62-a79217348445" d="M275,394.12v-.07a5.66,5.66,0,0,0,0-.57l-.05-17a2.28,2.28,0,0,0-1-2.1l-8-4.66a2.28,2.28,0,0,1,1,2.1l.05,17a5.46,5.46,0,0,1,0,.57.77.77,0,0,1,0,.15,2,2,0,0,1,0,.24,1.42,1.42,0,0,1,0,.2l0,.15a2,2,0,0,0-.07.26l0,.11-.09.28,0,.1c0,.12-.09.24-.14.36l0,0c-.05.11-.1.22-.16.33a.3.3,0,0,1,0,.08c-.05.11-.11.21-.17.32s0,0,0,0l-.21.34-.06.09-.17.24-.08.12-.16.2-.12.14-.13.15-.21.23-.12.11a4.25,4.25,0,0,1-.46.4.27.27,0,0,1-.08.07c-.17.12-.34.24-.51.34L249,403l8,4.66,14.83-8.56a3.54,3.54,0,0,0,.51-.35l.08-.06a4.45,4.45,0,0,0,.47-.41l0,0,.07-.07.23-.24.06-.07.05-.06.14-.16a.76.76,0,0,1,.08-.11l.07-.09.08-.11.07-.09.1-.16.06-.08,0-.05.17-.27v0l0,0,.12-.22.05-.09.05-.11,0-.08.12-.24v0h0a1.88,1.88,0,0,0,.12-.3s0,0,0,0a.56.56,0,0,0,0-.12l.06-.14,0-.1c0-.05,0-.1,0-.15l0-.08,0-.15c0-.06,0-.12.05-.18a.43.43,0,0,0,0-.05s0-.07,0-.11,0-.18,0-.27A.15.15,0,0,1,275,394.12Z"/><path class="e072e1e7-c46b-4b32-a9a9-8564c215ff89" d="M271.73,371.6c3.23-1.87,5.87-.36,5.88,3.35l.05,17a12.88,12.88,0,0,1-5.84,10.11L257,410.67v-3l14.83-8.56a7.19,7.19,0,0,0,3.27-5.66l-.05-17c0-2.08-1.48-2.92-3.29-1.88l-14.83,8.56v-3Z"/><polygon class="f41b6053-6141-4b81-9ee4-b33a40d6b507" points="256.91 383.12 248.9 378.47 248.89 375.5 256.9 380.16 256.91 383.12"/><path class="a7ec49a3-8354-4f75-a473-624c0f3d0d91" d="M272.4,371.26l.3-.12.41-.14.26-.07.24-.06.31,0,.18,0h.46a3.18,3.18,0,0,1,.43.06l.11,0,.32.1.09,0a2.32,2.32,0,0,1,.39.18l-8-4.65,0,0-.3-.15-.06,0-.1,0-.15-.05-.16,0-.11,0h-.06a2.09,2.09,0,0,0-.35,0h-.48l-.19,0-.16,0-.14,0-.25,0-.12,0-.13,0-.42.15a.39.39,0,0,0-.14.05.59.59,0,0,0-.14.06l-.15.06-.53.28-14.83,8.56,8,4.66,14.83-8.56a5.72,5.72,0,0,1,.55-.28Z"/><polygon class="f95c8437-4a89-4518-9b2c-c8dc18da0527" points="118.49 295.2 110.47 290.55 110.47 287.58 118.48 292.24 118.49 295.2"/><path class="a785c582-28d2-4c5c-9b1b-74784e5afe8d" d="M136.53,278.65s0,0,0-.06a3.82,3.82,0,0,0,0-.58l0-17a2.32,2.32,0,0,0-1-2.1l-8-4.65a2.31,2.31,0,0,1,1,2.1l0,17a5.4,5.4,0,0,1,0,.56c0,.06,0,.11,0,.16s0,.16,0,.24a1.18,1.18,0,0,0,0,.2s0,.09,0,.14a2,2,0,0,1-.07.26l0,.12c0,.09-.06.18-.1.27l0,.11-.15.36s0,0,0,0-.1.22-.15.33l0,.08-.17.31,0,0c-.06.11-.14.23-.21.34l0,.08-.17.25-.09.11a1.56,1.56,0,0,1-.16.2l-.11.15-.14.15-.21.22-.11.12a5.72,5.72,0,0,1-.46.4l-.09.07a4.52,4.52,0,0,1-.51.34l-14.82,8.56,8,4.66,14.83-8.57a5,5,0,0,0,.51-.34l.08-.06c.16-.13.31-.27.46-.41l0,0,.06-.07a2.73,2.73,0,0,0,.23-.25l.07-.06.05-.07c0-.05.09-.1.13-.16a.39.39,0,0,0,.08-.1l.07-.09a.76.76,0,0,0,.08-.11.36.36,0,0,0,.07-.1l.11-.15a.41.41,0,0,0,.05-.09l0,0a2.61,2.61,0,0,0,.17-.28l0,0,0,0,.12-.21,0-.09.06-.11a.59.59,0,0,1,0-.08c0-.08.07-.16.11-.25v0l.12-.29s0,0,0-.05l0-.12s0-.1,0-.14l0-.11s0-.1.05-.14,0-.06,0-.09a.57.57,0,0,0,0-.14c0-.06,0-.12,0-.18l0-.05s0-.08,0-.11a2.74,2.74,0,0,0,.05-.28S136.53,278.68,136.53,278.65Z"/><path class="f63f47cf-28fe-4926-8d97-b67ad0383c70" d="M133.23,256.13c3.23-1.86,5.87-.36,5.88,3.35l0,17a12.89,12.89,0,0,1-5.85,10.12l-14.82,8.56v-3l14.83-8.57a7.2,7.2,0,0,0,3.26-5.66l0-17c0-2.07-1.49-2.91-3.29-1.87l-14.83,8.56v-3Z"/><polygon class="f0ca4df8-fb61-45ae-8f52-cd88c279ff46" points="118.41 267.66 110.4 263 110.39 260.04 118.4 264.69 118.41 267.66"/><path class="b9ac12e4-7968-48d3-a48d-0aa77275f810" d="M133.89,255.8l.31-.12c.13-.06.27-.1.4-.15l.26-.07.24-.05.32,0h.17a2.54,2.54,0,0,1,.39,0h.07l.43,0,.11,0,.33.09.09,0a3.39,3.39,0,0,1,.39.18l-8-4.66h0a1.59,1.59,0,0,0-.29-.15l-.06,0-.1,0-.15-.06-.17,0-.11,0h-.05a2.23,2.23,0,0,0-.36,0h-.48l-.18,0h-.16l-.14,0-.25.06-.13,0-.13,0-.41.14-.15,0-.14.07-.14.06a4.52,4.52,0,0,0-.53.28L110.39,260l8,4.65,14.83-8.56.54-.28Z"/><path class="a16aea6d-a87a-4455-8612-a7190b5002fe" d="M288.17,151.82c-3.11-3.53-11-8.59-11.38-8.82l-77-43.51-1.09.63a.5.5,0,0,0,.21.22L276.18,144c.08.05,8.1,5.18,11.11,8.59,4.58,5.19,10,13.31,10,22.53a.59.59,0,0,0,.59.59.58.58,0,0,0,.59-.59C298.5,165.54,292.89,157.16,288.17,151.82Z"/><path class="f4843c96-f938-4b14-97a1-60c9af3266e0" d="M292.59,150c-3.12-3.53-11-8.6-11.39-8.83L203.52,97.29l-1.09.64a.73.73,0,0,0,.21.22l77.95,44c.08.05,8.11,5.19,11.11,8.59,4.58,5.19,10,13.31,10,22.54a.59.59,0,1,0,1.17,0C302.91,163.71,297.3,155.33,292.59,150Z"/><path class="fd30e758-2134-4b38-ab72-f60c003aafa4" d="M291,197q0-.58.12-1.17c0-.11,0-.23,0-.34s0-.35.08-.52.05-.28.08-.43l.09-.46c0-.12,0-.23.07-.35.1-.45.21-.89.33-1.33,0-.09.05-.17.07-.26.11-.37.22-.74.34-1.11l0-.15c.12-.37.26-.74.39-1.1,0-.11.09-.23.13-.34.12-.29.23-.57.36-.86l.09-.23c.15-.34.31-.68.47-1l.15-.31c.12-.25.25-.49.38-.74l.17-.34c.18-.32.35-.64.54-1l.15-.26.5-.82a2.13,2.13,0,0,0,.16-.25q.33-.51.69-1l.13-.19c.24-.34.49-.67.74-1l.11-.14c.32-.42.66-.82,1-1.22l.14-.16c.19-.23.39-.44.59-.66l.11-.12c.22-.23.44-.46.67-.68l.15-.15c.31-.3.63-.6,1-.88l.06-.06c.33-.29.67-.57,1-.83l.18-.15c.33-.25.67-.5,1-.73l.18-.12c.35-.24.71-.46,1.07-.67s.58-.32.87-.47l.25-.12.65-.3.22-.09.6-.23.16-.06.74-.23.44-.11.17,0,.64-.12c.3,0,.6-.07.89-.08h1l.16,0c.2,0,.4,0,.6.07l.19,0c.23,0,.46.09.68.15l0,0a6.26,6.26,0,0,1,.61.21l.16.07a5,5,0,0,1,.52.26l.16.08-4.21-2.45-.08,0-.08,0c-.16-.09-.33-.17-.49-.24l-.11-.06-.1,0a5.71,5.71,0,0,0-.58-.21h-.05l-.67-.16-.09,0h-.13a5.6,5.6,0,0,0-.59-.07H307a6.91,6.91,0,0,0-.79,0H306c-.29,0-.59,0-.89.09h0l-.62.12-.08,0-.5.12h-.05c-.24.07-.48.14-.72.23l-.18.06-.56.21-.1,0-.18.08-.61.28-.25.13c-.29.14-.57.29-.86.46s-.72.44-1.07.67l-.19.13c-.34.23-.67.47-1,.72l-.21.17c-.33.25-.66.52-1,.8l-.12.11c-.31.27-.61.55-.91.85l-.09.08-.06.06q-.71.71-1.38,1.47l-.05.06-.07.08c-.35.41-.69.82-1,1.25v0l0,0c-.27.35-.53.7-.78,1.06l-.09.12,0,.06c-.24.34-.47.69-.69,1l-.06.08-.08.13-.57.93-.06.1,0,0c-.2.34-.39.69-.58,1.05l0,.06a.83.83,0,0,1-.07.13c-.15.29-.29.57-.43.86l-.09.17a.47.47,0,0,1-.05.1L289,185.9v0l0,.09c-.14.33-.28.66-.41,1a.69.69,0,0,1-.05.13.76.76,0,0,1,0,.11c-.3.79-.57,1.59-.8,2.4a1.09,1.09,0,0,1-.05.17s0,.06,0,.1c-.13.46-.24.91-.34,1.37a.44.44,0,0,1,0,.1l0,.13-.12.62c0,.1,0,.21,0,.31L287,193c0,.08,0,.17,0,.25v.07c-.05.39-.09.77-.12,1.16,0,.09,0,.18,0,.26,0,.4,0,.79,0,1.18,0,4.3,1.53,7.33,4,8.75l4.21,2.45c-2.45-1.42-4-4.45-4-8.76,0-.39,0-.78,0-1.18C291,197.14,291,197.05,291,197Z"/><path class="f5beeda7-2850-4ae5-9b5c-145d37380e28" d="M304.55,174.84c7.54-4.35,13.67-.86,13.7,7.8s-6.07,19.22-13.61,23.57S291,207.07,291,198.4,297,179.19,304.55,174.84Z"/></g><g class="becd1628-e9c8-44d0-af43-f444ac5b8952"><path class="a4d44b0d-2814-46aa-81af-ad725f182a11" d="M127.59,122.06,40.8,72c-2.7-1.56-4.89-.3-4.89,2.79L35.79,117a10.68,10.68,0,0,0,4.86,8.42l68.28,39.43,11.46,19.83,0-13.2,7,4c2.7,1.56,4.9.31,4.91-2.79l.12-42.29a10.77,10.77,0,0,0-4.87-8.43"/></g><g class="becd1628-e9c8-44d0-af43-f444ac5b8952"><path class="a4d44b0d-2814-46aa-81af-ad725f182a11" d="M45.42,78.89l-4.88-2.82c-.67-.39-1.22-.07-1.22.7a2.69,2.69,0,0,0,1.21,2.11l4.89,2.81c.67.39,1.22.08,1.22-.69a2.67,2.67,0,0,0-1.22-2.11"/><path class="a4d44b0d-2814-46aa-81af-ad725f182a11" d="M60.76,87.74,49.81,81.42c-.68-.39-1.23-.08-1.23.7a2.67,2.67,0,0,0,1.22,2.1l11,6.33c.67.38,1.22.07,1.22-.7a2.69,2.69,0,0,0-1.21-2.11"/><path class="a4d44b0d-2814-46aa-81af-ad725f182a11" d="M73.89,95.33l-8.76-5.06c-.67-.39-1.22-.08-1.22.7a2.67,2.67,0,0,0,1.22,2.1l8.76,5.06c.67.39,1.22.08,1.22-.7a2.67,2.67,0,0,0-1.22-2.1m15.33,8.85-11-6.33c-.67-.39-1.22-.07-1.22.7a2.69,2.69,0,0,0,1.21,2.11L89.21,107c.68.39,1.23.08,1.23-.7a2.67,2.67,0,0,0-1.22-2.1m13.14,7.58L93.6,106.7c-.67-.38-1.22-.07-1.22.7a2.69,2.69,0,0,0,1.21,2.11l8.76,5.06c.68.39,1.23.08,1.23-.7a2.69,2.69,0,0,0-1.22-2.11m15.33,8.85-11-6.32c-.67-.39-1.22-.08-1.22.7a2.68,2.68,0,0,0,1.21,2.11l11,6.32c.68.39,1.23.08,1.23-.7a2.69,2.69,0,0,0-1.22-2.11"/><path class="a4d44b0d-2814-46aa-81af-ad725f182a11" d="M127,126l-4.88-2.82c-.67-.39-1.22-.08-1.22.7a2.68,2.68,0,0,0,1.21,2.11l4.89,2.81c.67.39,1.22.08,1.22-.69A2.67,2.67,0,0,0,127,126"/><path class="a4d44b0d-2814-46aa-81af-ad725f182a11" d="M45.42,89.47l-4.88-2.82c-.67-.39-1.22-.07-1.22.7a2.69,2.69,0,0,0,1.21,2.11l4.89,2.82c.67.39,1.22.07,1.22-.7a2.69,2.69,0,0,0-1.22-2.11"/><path class="a4d44b0d-2814-46aa-81af-ad725f182a11" d="M62.19,99.15l-12-6.91c-.68-.39-1.23-.08-1.23.69A2.67,2.67,0,0,0,50.21,95l12,6.92c.68.39,1.23.07,1.23-.7a2.69,2.69,0,0,0-1.22-2.11M79,108.83l-4.79-2.76c-.68-.39-1.22-.08-1.23.69a2.7,2.7,0,0,0,1.22,2.11L79,111.64c.67.39,1.22.07,1.22-.7A2.68,2.68,0,0,0,79,108.83m14.37,8.3-4.79-2.77c-.68-.39-1.22-.07-1.23.7a2.67,2.67,0,0,0,1.22,2.11l4.79,2.76c.67.39,1.22.08,1.22-.7a2.66,2.66,0,0,0-1.21-2.1m24,13.83-12-6.92c-.67-.39-1.22-.07-1.22.7a2.67,2.67,0,0,0,1.22,2.11l12,6.91c.68.39,1.22.08,1.23-.7a2.7,2.7,0,0,0-1.22-2.1"/><path class="a4d44b0d-2814-46aa-81af-ad725f182a11" d="M127,136.54l-4.88-2.82c-.67-.39-1.22-.07-1.22.7a2.68,2.68,0,0,0,1.21,2.11l4.89,2.82c.67.39,1.22.07,1.22-.7a2.69,2.69,0,0,0-1.22-2.11"/><path class="a4d44b0d-2814-46aa-81af-ad725f182a11" d="M52.75,104.28l-12.21-7c-.67-.39-1.22-.08-1.22.69A2.69,2.69,0,0,0,40.53,100l12.21,7c.68.39,1.22.07,1.23-.7a2.7,2.7,0,0,0-1.22-2.11"/><path class="a4d44b0d-2814-46aa-81af-ad725f182a11" d="M70.19,114.35l-9.69-5.59c-.68-.39-1.22-.08-1.22.69a2.66,2.66,0,0,0,1.21,2.11l9.69,5.59c.67.39,1.22.08,1.22-.69a2.66,2.66,0,0,0-1.21-2.11"/><path class="a4d44b0d-2814-46aa-81af-ad725f182a11" d="M93.43,127.77,74.06,116.59c-.67-.39-1.22-.08-1.22.69a2.66,2.66,0,0,0,1.21,2.11l19.38,11.19c.67.39,1.22.07,1.22-.7a2.67,2.67,0,0,0-1.22-2.11m17.44,10.07-9.69-5.59c-.67-.39-1.22-.08-1.22.69a2.67,2.67,0,0,0,1.22,2.11l9.68,5.6c.68.38,1.23.07,1.23-.7a2.67,2.67,0,0,0-1.22-2.11"/><path class="a4d44b0d-2814-46aa-81af-ad725f182a11" d="M127,147.13l-12.2-7c-.68-.39-1.22-.08-1.23.69a2.67,2.67,0,0,0,1.22,2.11L127,149.93c.67.39,1.22.08,1.22-.7a2.66,2.66,0,0,0-1.22-2.1"/><path class="a4d44b0d-2814-46aa-81af-ad725f182a11" d="M45.42,110.63l-4.88-2.81c-.67-.39-1.22-.08-1.22.7a2.69,2.69,0,0,0,1.21,2.1l4.89,2.82c.67.39,1.22.08,1.22-.7a2.69,2.69,0,0,0-1.22-2.11"/><path class="a4d44b0d-2814-46aa-81af-ad725f182a11" d="M72,126l-14.74-8.51c-.68-.39-1.22-.07-1.23.7a2.7,2.7,0,0,0,1.22,2.11L72,128.76c.67.39,1.22.08,1.22-.7A2.68,2.68,0,0,0,72,126"/><path class="a4d44b0d-2814-46aa-81af-ad725f182a11" d="M89.65,136.16l-11.8-6.8c-.67-.39-1.22-.08-1.22.7a2.66,2.66,0,0,0,1.22,2.1L89.64,139c.67.39,1.22.08,1.22-.7a2.7,2.7,0,0,0-1.21-2.11m26.52,15.32L101.43,143c-.67-.39-1.22-.07-1.22.7a2.67,2.67,0,0,0,1.22,2.11l14.74,8.51c.67.39,1.22.08,1.22-.7a2.69,2.69,0,0,0-1.22-2.11"/><path class="a4d44b0d-2814-46aa-81af-ad725f182a11" d="M127,157.7l-4.88-2.81c-.67-.39-1.22-.08-1.22.69a2.66,2.66,0,0,0,1.21,2.11l4.89,2.82c.67.39,1.22.08,1.22-.7A2.69,2.69,0,0,0,127,157.7"/><path class="a4d44b0d-2814-46aa-81af-ad725f182a11" d="M45.42,121.22l-4.88-2.82c-.67-.39-1.22-.08-1.22.7a2.69,2.69,0,0,0,1.21,2.1L45.42,124c.67.39,1.22.08,1.22-.69a2.67,2.67,0,0,0-1.22-2.11"/><path class="a4d44b0d-2814-46aa-81af-ad725f182a11" d="M58.64,128.85l-5.29-3.06c-.67-.39-1.22-.07-1.22.7a2.67,2.67,0,0,0,1.22,2.11l5.28,3.05c.68.39,1.23.08,1.23-.69a2.7,2.7,0,0,0-1.22-2.11"/><path class="a4d44b0d-2814-46aa-81af-ad725f182a11" d="M74.5,138l-10.57-6.1c-.68-.39-1.23-.08-1.23.7a2.67,2.67,0,0,0,1.22,2.1l10.57,6.11c.68.39,1.22.07,1.22-.7A2.66,2.66,0,0,0,74.5,138m13.21,7.63-5.28-3c-.68-.39-1.23-.08-1.23.7a2.69,2.69,0,0,0,1.22,2.11l5.28,3.05c.68.38,1.23.07,1.23-.7a2.67,2.67,0,0,0-1.22-2.11m15.86,9.16L93,148.68c-.68-.39-1.22-.07-1.23.7A2.7,2.7,0,0,0,93,151.49l10.57,6.1c.68.39,1.23.08,1.23-.69a2.7,2.7,0,0,0-1.22-2.11m13.22,7.63-5.29-3.06c-.68-.39-1.22-.07-1.23.7a2.7,2.7,0,0,0,1.22,2.11l5.29,3.05c.67.39,1.22.08,1.22-.7a2.69,2.69,0,0,0-1.21-2.1"/><path class="a4d44b0d-2814-46aa-81af-ad725f182a11" d="M127,168.29l-4.88-2.82c-.67-.39-1.22-.08-1.22.7a2.66,2.66,0,0,0,1.21,2.1l4.89,2.82c.67.39,1.22.08,1.22-.7a2.67,2.67,0,0,0-1.22-2.1"/></g><g class="becd1628-e9c8-44d0-af43-f444ac5b8952"><path class="a4d44b0d-2814-46aa-81af-ad725f182a11" d="M415.12,99.58,514.56,157a12.28,12.28,0,0,1,5.57,9.66l-.08,29.17c0,3.55-2.52,5-5.61,3.2L436.2,153.85,423,161.38l0-15.13-8-4.64a12.29,12.29,0,0,1-5.58-9.66l.08-29.17c0-3.55,2.53-5,5.62-3.2"/></g><g class="becd1628-e9c8-44d0-af43-f444ac5b8952"><path class="a4d44b0d-2814-46aa-81af-ad725f182a11" d="M421.42,111.42l-5.59-3.23c-.78-.45-1.4-.09-1.4.8a3,3,0,0,0,1.39,2.41l5.59,3.23c.77.45,1.4.09,1.41-.8a3.07,3.07,0,0,0-1.4-2.41"/><path class="a4d44b0d-2814-46aa-81af-ad725f182a11" d="M441.91,123.25l-14.63-8.45c-.78-.45-1.4-.09-1.41.8a3.06,3.06,0,0,0,1.4,2.41l14.63,8.45c.78.45,1.41.09,1.41-.8a3.06,3.06,0,0,0-1.4-2.41m17.57,10.14-11.71-6.76c-.77-.45-1.4-.09-1.41.8a3.07,3.07,0,0,0,1.4,2.41l11.71,6.76c.77.45,1.4.09,1.4-.79a3.05,3.05,0,0,0-1.39-2.42M477,143.53l-5.85-3.38c-.77-.45-1.4-.09-1.41.8a3.07,3.07,0,0,0,1.4,2.41l5.85,3.38c.78.45,1.4.09,1.41-.79a3.08,3.08,0,0,0-1.4-2.42m26.35,15.21L491.68,152c-.77-.45-1.4-.09-1.4.8a3,3,0,0,0,1.39,2.41L503.38,162c.77.45,1.4.09,1.4-.79a3.09,3.09,0,0,0-1.39-2.42"/><path class="a4d44b0d-2814-46aa-81af-ad725f182a11" d="M514.84,165.35l-5.59-3.23c-.78-.44-1.41-.09-1.41.8a3.08,3.08,0,0,0,1.4,2.42l5.59,3.22c.77.45,1.4.09,1.4-.79a3.09,3.09,0,0,0-1.39-2.42"/><path class="a4d44b0d-2814-46aa-81af-ad725f182a11" d="M421.42,123.54l-5.59-3.23c-.78-.44-1.4-.08-1.4.8a3.07,3.07,0,0,0,1.39,2.42l5.59,3.23c.77.44,1.4.08,1.41-.8a3.1,3.1,0,0,0-1.4-2.42"/><path class="a4d44b0d-2814-46aa-81af-ad725f182a11" d="M445.57,137.49l-11-6.34c-.77-.45-1.39-.09-1.4.8a3,3,0,0,0,1.4,2.41l11,6.34c.78.45,1.4.09,1.41-.8a3,3,0,0,0-1.4-2.41m15.37,8.87-4.39-2.54c-.77-.44-1.4-.08-1.4.81a3.09,3.09,0,0,0,1.39,2.41l4.39,2.53c.78.45,1.4.09,1.41-.79a3.08,3.08,0,0,0-1.4-2.42m22,12.68-13.18-7.61c-.77-.45-1.4-.09-1.4.8a3.06,3.06,0,0,0,1.39,2.41l13.18,7.61c.77.45,1.4.09,1.4-.8A3,3,0,0,0,482.9,159m22,12.67-11-6.34c-.78-.44-1.41-.08-1.41.8a3.08,3.08,0,0,0,1.4,2.42l11,6.34c.78.44,1.4.08,1.41-.8a3.08,3.08,0,0,0-1.4-2.42"/><path class="a4d44b0d-2814-46aa-81af-ad725f182a11" d="M514.84,177.48l-5.59-3.23c-.78-.45-1.41-.09-1.41.8a3.06,3.06,0,0,0,1.4,2.41l5.59,3.23c.77.45,1.4.09,1.4-.8a3.06,3.06,0,0,0-1.39-2.41"/><path class="a4d44b0d-2814-46aa-81af-ad725f182a11" d="M418.62,134.05l-2.79-1.61c-.78-.45-1.4-.09-1.4.8a3,3,0,0,0,1.39,2.41l2.79,1.62c.78.44,1.41.09,1.41-.8a3.08,3.08,0,0,0-1.4-2.42"/><path class="a4d44b0d-2814-46aa-81af-ad725f182a11" d="M439.72,146.23l-15.07-8.7c-.77-.44-1.4-.08-1.4.8a3.09,3.09,0,0,0,1.39,2.42l15.07,8.7c.77.44,1.4.08,1.4-.8a3.07,3.07,0,0,0-1.39-2.42"/><path class="a4d44b0d-2814-46aa-81af-ad725f182a11" d="M451.77,153.19l-6-3.48c-.77-.44-1.39-.08-1.4.8a3.1,3.1,0,0,0,1.4,2.42l6,3.48c.78.44,1.4.08,1.41-.81a3.1,3.1,0,0,0-1.4-2.41m21.1,12.18-15.07-8.7c-.77-.44-1.4-.09-1.4.8a3.07,3.07,0,0,0,1.39,2.42l15.07,8.7c.77.44,1.4.08,1.4-.81a3.09,3.09,0,0,0-1.39-2.41m12.05,7-6-3.48c-.78-.45-1.41-.09-1.41.8a3,3,0,0,0,1.4,2.41l6,3.48c.77.45,1.4.09,1.4-.8a3.06,3.06,0,0,0-1.39-2.41M506,184.51,491,175.81c-.77-.45-1.4-.09-1.41.8a3.07,3.07,0,0,0,1.4,2.41l15.07,8.7c.77.45,1.4.09,1.4-.8a3.08,3.08,0,0,0-1.39-2.41"/><path class="a4d44b0d-2814-46aa-81af-ad725f182a11" d="M514.84,189.6,512,188c-.77-.45-1.4-.09-1.4.8A3.08,3.08,0,0,0,512,191.2l2.8,1.62c.77.44,1.4.08,1.4-.8a3.09,3.09,0,0,0-1.39-2.42"/></g><g class="e9c73da6-9965-4c44-b205-a946a2cb4bf3"><polyline class="b6724d87-7382-4520-8103-5181ada18749" points="330.37 358.02 322.44 362.61 321.69 98.27 329.62 93.69 330.37 358.02"/></g><g class="f838988a-f2c7-4811-8da2-d0223960eb47"><path class="a4d44b0d-2814-46aa-81af-ad725f182a11" d="M153.9,123.44a1.63,1.63,0,1,1-1.63-1.63A1.63,1.63,0,0,1,153.9,123.44Z"/><path class="a4d44b0d-2814-46aa-81af-ad725f182a11" d="M155.49,150.16a1.66,1.66,0,1,1-1.66-1.66A1.66,1.66,0,0,1,155.49,150.16Z"/><path class="a4d44b0d-2814-46aa-81af-ad725f182a11" d="M171.45,134a1.14,1.14,0,1,1-1.13-1.14A1.14,1.14,0,0,1,171.45,134Z"/><path class="a4d44b0d-2814-46aa-81af-ad725f182a11" d="M175.61,152.22a1.38,1.38,0,0,1-2.75,0,1.38,1.38,0,1,1,2.75,0Z"/><path class="a4d44b0d-2814-46aa-81af-ad725f182a11" d="M176.69,181.37a1.56,1.56,0,1,1-1.55-1.56A1.55,1.55,0,0,1,176.69,181.37Z"/><path class="a4d44b0d-2814-46aa-81af-ad725f182a11" d="M176,191.17a1.58,1.58,0,1,1-1.58-1.57A1.58,1.58,0,0,1,176,191.17Z"/><path class="a4d44b0d-2814-46aa-81af-ad725f182a11" d="M136.37,186.72a2.44,2.44,0,1,1-2.44-2.44A2.44,2.44,0,0,1,136.37,186.72Z"/><path class="a4d44b0d-2814-46aa-81af-ad725f182a11" d="M138.26,208a2.29,2.29,0,1,1-2.28-2.28A2.28,2.28,0,0,1,138.26,208Z"/><path class="a4d44b0d-2814-46aa-81af-ad725f182a11" d="M139.83,228.26a2.37,2.37,0,1,1-2.36-2.37A2.36,2.36,0,0,1,139.83,228.26Z"/><path class="a4d44b0d-2814-46aa-81af-ad725f182a11" d="M142.11,242.81a2.08,2.08,0,1,1-2.07-2.07A2.08,2.08,0,0,1,142.11,242.81Z"/><path class="a4d44b0d-2814-46aa-81af-ad725f182a11" d="M189.63,191.46a1.75,1.75,0,1,1-1.74-1.74A1.74,1.74,0,0,1,189.63,191.46Z"/><path class="a4d44b0d-2814-46aa-81af-ad725f182a11" d="M189.85,215.4a1.74,1.74,0,1,1-1.74-1.74A1.74,1.74,0,0,1,189.85,215.4Z"/><path class="a4d44b0d-2814-46aa-81af-ad725f182a11" d="M189.85,232.11A1.81,1.81,0,1,1,188,230.3,1.81,1.81,0,0,1,189.85,232.11Z"/><path class="a4d44b0d-2814-46aa-81af-ad725f182a11" d="M190.44,237.13a1.82,1.82,0,1,1-1.82-1.82A1.82,1.82,0,0,1,190.44,237.13Z"/><path class="a4d44b0d-2814-46aa-81af-ad725f182a11" d="M169,242.3a1.52,1.52,0,1,1-1.51-1.52A1.51,1.51,0,0,1,169,242.3Z"/><path class="a4d44b0d-2814-46aa-81af-ad725f182a11" d="M169.68,266.18a1.28,1.28,0,1,1-1.27-1.27A1.27,1.27,0,0,1,169.68,266.18Z"/><path class="a4d44b0d-2814-46aa-81af-ad725f182a11" d="M170.18,281.75a1.23,1.23,0,1,1-1.23-1.24A1.23,1.23,0,0,1,170.18,281.75Z"/><path class="a4d44b0d-2814-46aa-81af-ad725f182a11" d="M168.9,286.25a1.25,1.25,0,1,1-1.25-1.25A1.25,1.25,0,0,1,168.9,286.25Z"/><path class="a4d44b0d-2814-46aa-81af-ad725f182a11" d="M136.59,277.6a1.83,1.83,0,1,1-1.83-1.83A1.83,1.83,0,0,1,136.59,277.6Z"/><path class="a4d44b0d-2814-46aa-81af-ad725f182a11" d="M139.15,300.54a1.9,1.9,0,1,1-1.89-1.89A1.89,1.89,0,0,1,139.15,300.54Z"/><path class="a4d44b0d-2814-46aa-81af-ad725f182a11" d="M140.5,313.27a1.87,1.87,0,1,1-1.87-1.87A1.87,1.87,0,0,1,140.5,313.27Z"/><path class="a4d44b0d-2814-46aa-81af-ad725f182a11" d="M181,309.72a1.41,1.41,0,1,1-1.41-1.41A1.41,1.41,0,0,1,181,309.72Z"/><path class="a4d44b0d-2814-46aa-81af-ad725f182a11" d="M188.59,335.5a1.14,1.14,0,1,1-1.14-1.14A1.14,1.14,0,0,1,188.59,335.5Z"/><path class="a4d44b0d-2814-46aa-81af-ad725f182a11" d="M187.53,348.66a.95.95,0,1,1-1.9,0,1,1,0,0,1,1.9,0Z"/><path class="a4d44b0d-2814-46aa-81af-ad725f182a11" d="M186.19,353.27a.91.91,0,1,1-1.81,0,.91.91,0,0,1,1.81,0Z"/><path class="a4d44b0d-2814-46aa-81af-ad725f182a11" d="M172.62,320.58a1.13,1.13,0,1,1-1.13-1.13A1.14,1.14,0,0,1,172.62,320.58Z"/><path class="a4d44b0d-2814-46aa-81af-ad725f182a11" d="M171.07,350.42a.75.75,0,1,1-.75-.75A.75.75,0,0,1,171.07,350.42Z"/><path class="a4d44b0d-2814-46aa-81af-ad725f182a11" d="M171.42,360.4a.78.78,0,1,1-1.56,0,.78.78,0,1,1,1.56,0Z"/><circle class="a4d44b0d-2814-46aa-81af-ad725f182a11" cx="170.87" cy="366.89" r="0.86"/><path class="a4d44b0d-2814-46aa-81af-ad725f182a11" d="M144.39,362.53a1.46,1.46,0,1,1-1.46-1.46A1.46,1.46,0,0,1,144.39,362.53Z"/><path class="a4d44b0d-2814-46aa-81af-ad725f182a11" d="M142.18,377.84a1.93,1.93,0,1,1-1.92-1.93A1.92,1.92,0,0,1,142.18,377.84Z"/><path class="a4d44b0d-2814-46aa-81af-ad725f182a11" d="M140.85,388.57a2.38,2.38,0,1,1-2.37-2.38A2.38,2.38,0,0,1,140.85,388.57Z"/><circle class="a4d44b0d-2814-46aa-81af-ad725f182a11" cx="180.19" cy="392.7" r="1.77" transform="translate(-214.79 567.85) rotate(-89.27)"/><path class="a4d44b0d-2814-46aa-81af-ad725f182a11" d="M186.68,408.08a2.33,2.33,0,1,1-2.33-2.33A2.32,2.32,0,0,1,186.68,408.08Z"/><path class="a4d44b0d-2814-46aa-81af-ad725f182a11" d="M187.8,414.17a2.56,2.56,0,1,1-2.56-2.55A2.55,2.55,0,0,1,187.8,414.17Z"/><path class="a4d44b0d-2814-46aa-81af-ad725f182a11" d="M199.14,135.39a1.66,1.66,0,1,1-1.65-1.65A1.66,1.66,0,0,1,199.14,135.39Z"/><path class="a4d44b0d-2814-46aa-81af-ad725f182a11" d="M201,143.74a1.76,1.76,0,1,1-1.76-1.76A1.76,1.76,0,0,1,201,143.74Z"/><path class="a4d44b0d-2814-46aa-81af-ad725f182a11" d="M202.1,155.24a1.91,1.91,0,1,1-1.91-1.91A1.92,1.92,0,0,1,202.1,155.24Z"/></g><g class="f838988a-f2c7-4811-8da2-d0223960eb47"><path class="a4d44b0d-2814-46aa-81af-ad725f182a11" d="M316.7,123.44a1.63,1.63,0,1,0,1.63-1.63A1.63,1.63,0,0,0,316.7,123.44Z"/><path class="a4d44b0d-2814-46aa-81af-ad725f182a11" d="M315.11,150.16a1.66,1.66,0,1,0,1.66-1.66A1.66,1.66,0,0,0,315.11,150.16Z"/><path class="a4d44b0d-2814-46aa-81af-ad725f182a11" d="M299.14,134a1.14,1.14,0,1,0,1.14-1.14A1.14,1.14,0,0,0,299.14,134Z"/><path class="a4d44b0d-2814-46aa-81af-ad725f182a11" d="M295,152.22a1.38,1.38,0,1,0,1.38-1.38A1.37,1.37,0,0,0,295,152.22Z"/><path class="a4d44b0d-2814-46aa-81af-ad725f182a11" d="M293.91,181.37a1.55,1.55,0,1,0,1.55-1.56A1.54,1.54,0,0,0,293.91,181.37Z"/><path class="a4d44b0d-2814-46aa-81af-ad725f182a11" d="M294.59,191.17a1.57,1.57,0,1,0,1.57-1.57A1.57,1.57,0,0,0,294.59,191.17Z"/><circle class="a4d44b0d-2814-46aa-81af-ad725f182a11" cx="336.66" cy="186.72" r="2.44"/><path class="a4d44b0d-2814-46aa-81af-ad725f182a11" d="M332.33,208a2.29,2.29,0,1,0,2.29-2.28A2.29,2.29,0,0,0,332.33,208Z"/><path class="a4d44b0d-2814-46aa-81af-ad725f182a11" d="M330.77,228.26a2.37,2.37,0,1,0,2.36-2.37A2.36,2.36,0,0,0,330.77,228.26Z"/><path class="a4d44b0d-2814-46aa-81af-ad725f182a11" d="M328.48,242.81a2.08,2.08,0,1,0,2.08-2.07A2.08,2.08,0,0,0,328.48,242.81Z"/><path class="a4d44b0d-2814-46aa-81af-ad725f182a11" d="M281,191.46a1.74,1.74,0,1,0,1.74-1.74A1.74,1.74,0,0,0,281,191.46Z"/><path class="a4d44b0d-2814-46aa-81af-ad725f182a11" d="M280.75,215.4a1.74,1.74,0,1,0,1.74-1.74A1.74,1.74,0,0,0,280.75,215.4Z"/><path class="a4d44b0d-2814-46aa-81af-ad725f182a11" d="M280.75,232.11a1.81,1.81,0,1,0,1.81-1.81A1.81,1.81,0,0,0,280.75,232.11Z"/><path class="a4d44b0d-2814-46aa-81af-ad725f182a11" d="M280.16,237.13a1.82,1.82,0,1,0,1.81-1.82A1.82,1.82,0,0,0,280.16,237.13Z"/><path class="a4d44b0d-2814-46aa-81af-ad725f182a11" d="M301.56,242.3a1.52,1.52,0,1,0,1.52-1.52A1.52,1.52,0,0,0,301.56,242.3Z"/><path class="a4d44b0d-2814-46aa-81af-ad725f182a11" d="M300.91,266.18a1.28,1.28,0,1,0,1.28-1.27A1.28,1.28,0,0,0,300.91,266.18Z"/><path class="a4d44b0d-2814-46aa-81af-ad725f182a11" d="M300.41,281.75a1.24,1.24,0,1,0,1.24-1.24A1.23,1.23,0,0,0,300.41,281.75Z"/><path class="a4d44b0d-2814-46aa-81af-ad725f182a11" d="M301.7,286.25A1.25,1.25,0,1,0,303,285,1.25,1.25,0,0,0,301.7,286.25Z"/><path class="a4d44b0d-2814-46aa-81af-ad725f182a11" d="M334,277.6a1.83,1.83,0,1,0,1.83-1.83A1.83,1.83,0,0,0,334,277.6Z"/><path class="a4d44b0d-2814-46aa-81af-ad725f182a11" d="M331.45,300.54a1.89,1.89,0,1,0,1.89-1.89A1.89,1.89,0,0,0,331.45,300.54Z"/><path class="a4d44b0d-2814-46aa-81af-ad725f182a11" d="M330.1,313.27A1.87,1.87,0,1,0,332,311.4,1.87,1.87,0,0,0,330.1,313.27Z"/><path class="a4d44b0d-2814-46aa-81af-ad725f182a11" d="M289.61,309.72a1.41,1.41,0,1,0,1.41-1.41A1.41,1.41,0,0,0,289.61,309.72Z"/><path class="a4d44b0d-2814-46aa-81af-ad725f182a11" d="M282,335.5a1.14,1.14,0,1,0,1.14-1.14A1.14,1.14,0,0,0,282,335.5Z"/><path class="a4d44b0d-2814-46aa-81af-ad725f182a11" d="M283.07,348.66a.95.95,0,1,0,.95-1A.95.95,0,0,0,283.07,348.66Z"/><path class="a4d44b0d-2814-46aa-81af-ad725f182a11" d="M284.41,353.27a.91.91,0,1,0,.9-.9A.9.9,0,0,0,284.41,353.27Z"/><path class="a4d44b0d-2814-46aa-81af-ad725f182a11" d="M298,320.58a1.13,1.13,0,1,0,1.13-1.13A1.13,1.13,0,0,0,298,320.58Z"/><path class="a4d44b0d-2814-46aa-81af-ad725f182a11" d="M299.52,350.42a.76.76,0,1,0,.76-.75A.76.76,0,0,0,299.52,350.42Z"/><path class="a4d44b0d-2814-46aa-81af-ad725f182a11" d="M299.18,360.4a.78.78,0,1,0,1.56,0,.78.78,0,1,0-1.56,0Z"/><circle class="a4d44b0d-2814-46aa-81af-ad725f182a11" cx="299.72" cy="366.89" r="0.86"/><path class="a4d44b0d-2814-46aa-81af-ad725f182a11" d="M326.2,362.53a1.47,1.47,0,1,0,1.47-1.46A1.47,1.47,0,0,0,326.2,362.53Z"/><path class="a4d44b0d-2814-46aa-81af-ad725f182a11" d="M328.41,377.84a1.93,1.93,0,1,0,1.93-1.93A1.92,1.92,0,0,0,328.41,377.84Z"/><path class="a4d44b0d-2814-46aa-81af-ad725f182a11" d="M329.74,388.57a2.38,2.38,0,1,0,2.38-2.38A2.39,2.39,0,0,0,329.74,388.57Z"/><path class="a4d44b0d-2814-46aa-81af-ad725f182a11" d="M288.63,392.7a1.78,1.78,0,1,0,1.77-1.77A1.78,1.78,0,0,0,288.63,392.7Z"/><path class="a4d44b0d-2814-46aa-81af-ad725f182a11" d="M283.92,408.08a2.32,2.32,0,1,0,2.32-2.33A2.32,2.32,0,0,0,283.92,408.08Z"/><path class="a4d44b0d-2814-46aa-81af-ad725f182a11" d="M282.8,414.17a2.56,2.56,0,1,0,2.55-2.55A2.55,2.55,0,0,0,282.8,414.17Z"/><path class="a4d44b0d-2814-46aa-81af-ad725f182a11" d="M271.46,135.39a1.65,1.65,0,1,0,1.65-1.65A1.66,1.66,0,0,0,271.46,135.39Z"/><path class="a4d44b0d-2814-46aa-81af-ad725f182a11" d="M269.58,143.74a1.76,1.76,0,1,0,1.76-1.76A1.76,1.76,0,0,0,269.58,143.74Z"/><path class="a4d44b0d-2814-46aa-81af-ad725f182a11" d="M268.5,155.24a1.91,1.91,0,1,0,1.91-1.91A1.91,1.91,0,0,0,268.5,155.24Z"/></g><path class="a6e1351e-4c0a-41b5-baf9-420e61804486" d="M141.48,360.06c-30.86-17.31-48-40.68-48.39-65.78-.34-24.67,15.71-48,45.2-65.59l1.6,2.68c-28.49,17-44,39.36-43.68,62.87.33,23.94,17,46.35,46.8,63.1C204.69,392,303.64,391,363.59,355.12c28.49-17,44-39.36,43.68-62.87-.33-23.95-16.95-46.36-46.8-63.11-17.24-9.67-37.51-16.73-60.24-21l.57-3.07c23.07,4.31,43.66,11.48,61.2,21.33,30.86,17.32,48.05,40.68,48.39,65.78.34,24.67-15.71,48-45.2,65.6s-69,27.56-111.2,28h-2.83C210,385.8,171.12,376.7,141.48,360.06Z"/><path class="baba69bf-4d38-4257-8926-4123a0d51136" d="M252.32,333l-2.83,0c-42.23-.43-81.72-10.37-111.2-28S92.75,264,93.09,239.36c.34-25.11,17.53-48.47,48.39-65.79,17.54-9.84,38.13-17,61.2-21.33l.57,3.07c-22.73,4.25-43,11.31-60.24,21C113.16,193,96.54,215.45,96.21,239.4c-.32,23.51,15.19,45.83,43.68,62.87,60,35.84,158.9,36.84,220.58,2.22,29.85-16.75,46.47-39.16,46.8-63.1.32-23.51-15.19-45.84-43.68-62.87l1.6-2.68c29.49,17.63,45.54,40.92,45.2,65.59-.34,25.1-17.53,48.47-48.39,65.79C332.36,323.85,293.5,333,252.32,333Z"/><path class="aae4b0b7-acb8-4e2a-b0aa-ab7aafafa889" d="M138.21,237.59a7.67,7.67,0,1,0-7.67-7.67A7.66,7.66,0,0,0,138.21,237.59Z"/><path class="a6b13b8c-fa20-48fb-9585-68cf9284d088" d="M326,110.64a9.38,9.38,0,1,0-9.39-9.38A9.38,9.38,0,0,0,326,110.64Z"/><path class="b753b0ba-59ea-434a-a360-e2aca59f6c74" d="M301.87,335.5a9.38,9.38,0,1,0-9.38-9.38A9.38,9.38,0,0,0,301.87,335.5Z"/><path class="b80e06a1-57d2-4408-a6a9-b87b8372e109" d="M365,185.43a7.67,7.67,0,1,0-7.67-7.67A7.67,7.67,0,0,0,365,185.43Z"/><path class="a576bce4-32da-40c5-88f3-be6fb5c45df3" d="M242.51,392.51a7.67,7.67,0,1,0-7.67-7.67A7.67,7.67,0,0,0,242.51,392.51Z"/><polyline class="a4d44b0d-2814-46aa-81af-ad725f182a11" points="209.65 169.15 209.64 178.36 209.13 178.08 208.52 177.75 208.51 177.74 208.02 177.47 208.06 168.34 209.65 169.15"/><polygon class="a4d44b0d-2814-46aa-81af-ad725f182a11" points="210.26 168.88 207.46 167.47 207.41 177.73 208.51 178.34 208.49 183.71 209.12 184.06 209.13 178.68 210.25 179.29 210.26 168.88 210.26 168.88"/><polyline class="a4d44b0d-2814-46aa-81af-ad725f182a11" points="241.85 184.21 242.14 190.58 241.54 190.26 240.75 189.85 240.74 189.85 240.07 189.49 239.8 183.18 241.85 184.21"/><polygon class="a4d44b0d-2814-46aa-81af-ad725f182a11" points="242.61 183.94 239.01 182.14 239.32 189.76 240.77 190.53 240.96 194.79 241.76 195.23 241.57 190.94 242.97 191.68 242.61 183.94 242.61 183.94"/><polyline class="a4d44b0d-2814-46aa-81af-ad725f182a11" points="188.81 160.53 188.69 163.99 188.27 163.77 187.77 163.5 187.76 163.5 187.35 163.28 187.47 159.84 187.88 160.05 188.39 160.31 188.39 160.31 188.81 160.53"/><polygon class="a4d44b0d-2814-46aa-81af-ad725f182a11" points="188.48 157.89 187.97 157.63 187.9 159.53 186.99 159.06 186.83 163.54 187.74 164.03 187.63 167.35 188.14 167.63 188.26 164.3 189.18 164.8 189.33 160.27 188.41 159.79 188.48 157.89 188.48 157.89"/><polygon class="abdf52c3-0766-441d-8194-05a22501e269" points="193.37 157.95 192.84 157.69 192.78 159.58 191.83 159.09 191.68 164.12 192.65 164.63 192.56 167.59 193.1 167.88 193.18 164.91 194.13 165.41 194.26 160.32 193.31 159.84 193.37 157.95"/><polygon class="abdf52c3-0766-441d-8194-05a22501e269" points="198.48 155.77 197.93 155.51 197.91 156.46 196.93 156 196.74 165.06 197.73 165.58 197.69 167.7 198.25 168 198.29 165.87 199.3 166.39 199.46 157.2 198.47 156.73 198.48 155.77"/><polygon class="abdf52c3-0766-441d-8194-05a22501e269" points="203.69 159.93 203.11 159.65 203.03 166.4 201.98 165.87 201.89 172.76 204.59 174.22 204.66 167.23 203.62 166.7 203.69 159.93"/><polyline class="a4d44b0d-2814-46aa-81af-ad725f182a11" points="215.49 177.77 215.54 185.16 215.01 184.86 214.37 184.5 214.36 184.5 213.83 184.2 213.8 176.87 214.32 177.15 214.96 177.49 214.97 177.49 215.49 177.77"/><polygon class="a4d44b0d-2814-46aa-81af-ad725f182a11" points="214.94 173.45 214.3 173.12 214.32 176.54 213.17 175.94 213.19 184.46 214.36 185.11 214.39 190.31 215.04 190.69 215.01 185.48 216.19 186.15 216.13 177.5 214.96 176.88 214.94 173.45 214.94 173.45"/><polygon class="abdf52c3-0766-441d-8194-05a22501e269" points="221.01 170.57 220.34 170.24 220.38 173.3 219.17 172.69 219.27 181.34 220.51 182 220.59 187.64 221.27 188.02 221.19 182.37 222.4 183.02 222.25 174.23 221.06 173.63 221.01 170.57"/><polygon class="abdf52c3-0766-441d-8194-05a22501e269" points="227.28 167.92 226.59 167.59 226.62 168.92 225.38 168.33 225.72 184 226.99 184.68 227.08 188.38 227.8 188.77 227.71 185.06 229 185.75 228.58 169.84 227.32 169.25 227.28 167.92"/><polygon class="abdf52c3-0766-441d-8194-05a22501e269" points="233.98 174.48 233.25 174.12 233.4 178.67 232.07 178.01 232.24 183.42 235.68 185.2 235.48 179.71 234.14 179.04 233.98 174.48"/><polyline class="a4d44b0d-2814-46aa-81af-ad725f182a11" points="249.61 191.97 249.9 197.16 249.22 196.79 248.39 196.35 248.38 196.34 247.7 195.98 247.43 190.85 248.1 191.19 248.92 191.62 248.93 191.62 249.61 191.97"/><polygon class="a4d44b0d-2814-46aa-81af-ad725f182a11" points="248.78 188.95 247.96 188.53 248.06 190.5 246.58 189.74 246.92 196.25 248.41 197.05 248.62 200.88 249.47 201.35 249.26 197.5 250.78 198.32 250.4 191.7 248.89 190.93 248.78 188.95 248.78 188.95"/><g class="ebadd195-8ca9-4bc4-9a99-5258f5d49f21"><path class="a4d44b0d-2814-46aa-81af-ad725f182a11" d="M198.35,288.7a1.77,1.77,0,0,0,2.5-1.2,2.39,2.39,0,0,0-1.84-2.45,1.81,1.81,0,0,0-2.44,1.14A2.35,2.35,0,0,0,198.35,288.7Z"/><path class="a4d44b0d-2814-46aa-81af-ad725f182a11" d="M212.64,287.29a2.38,2.38,0,0,0,3-2.14,3.13,3.13,0,0,0-2.78-2.84,2.23,2.23,0,0,0-2.79,1.92A3.11,3.11,0,0,0,212.64,287.29Z"/><path class="a4d44b0d-2814-46aa-81af-ad725f182a11" d="M187.45,288.53a2.74,2.74,0,0,0-1.69-3.21,2.1,2.1,0,0,0-2.86,1.26,3,3,0,0,0,1.59,3.3A2.05,2.05,0,0,0,187.45,288.53Z"/><path class="a4d44b0d-2814-46aa-81af-ad725f182a11" d="M202.77,287.21a58.34,58.34,0,0,0,6-1.17.5.5,0,0,0,.34-.71.71.71,0,0,0-.79-.43,56,56,0,0,1-6,1.12.5.5,0,0,0-.42.68A.81.81,0,0,0,202.77,287.21Z"/><path class="a4d44b0d-2814-46aa-81af-ad725f182a11" d="M188.92,288.48c2.3-.22,3.51-.36,6-.61a.51.51,0,0,0,.47-.66.76.76,0,0,0-.79-.52c-2.45.26-3.64.4-5.91.63a.51.51,0,0,0-.45.63A.65.65,0,0,0,188.92,288.48Z"/><path class="a4d44b0d-2814-46aa-81af-ad725f182a11" d="M213.52,300.82a2.59,2.59,0,0,0-.69-3.29,2.15,2.15,0,0,0-3.11.07,2.48,2.48,0,0,0,.7,3.28C211.52,301.81,212.89,301.78,213.52,300.82Z"/><path class="a4d44b0d-2814-46aa-81af-ad725f182a11" d="M210.5,312.25c-2.36-1.9-5.6-2.14-7.21-.33s-1.09,5.19,1.29,7.39,6,2.42,7.69.24S213,314.24,210.5,312.25Z"/><path class="a4d44b0d-2814-46aa-81af-ad725f182a11" d="M211.41,302.44a.56.56,0,0,0-.79.44c-.35,3-.64,4.31-1,7.05a1,1,0,0,0,.69.94c.43.14.8-.06.84-.43.29-2.75.42-4.12.86-7.1A.88.88,0,0,0,211.41,302.44Z"/><path class="a4d44b0d-2814-46aa-81af-ad725f182a11" d="M212.8,295.7c.26-2.73.39-4.13.65-6.84a.75.75,0,0,0-.59-.76.53.53,0,0,0-.7.44c-.28,2.68-.42,4.07-.7,6.77a.87.87,0,0,0,.6.87A.55.55,0,0,0,212.8,295.7Z"/><path class="a4d44b0d-2814-46aa-81af-ad725f182a11" d="M195.1,300.56a3.29,3.29,0,0,0-2.92-2.3c-1.23,0-1.88,1-1.61,2.25a3,3,0,0,0,2.77,2.37A1.74,1.74,0,0,0,195.1,300.56Z"/><path class="a4d44b0d-2814-46aa-81af-ad725f182a11" d="M196.26,303.92a1,1,0,0,0-1.13-.38.66.66,0,0,0-.08,1c2.33,3.1,3.23,4.52,5.27,7.21a.84.84,0,0,0,1.09.28h0a.72.72,0,0,0,0-1C199.38,308.33,198.69,307,196.26,303.92Z"/><path class="a4d44b0d-2814-46aa-81af-ad725f182a11" d="M191,296.77c-1.5-2.39-2.16-3.62-3.52-6a.59.59,0,0,0-.77-.29.61.61,0,0,0-.17.81c1.32,2.46,2,3.71,3.39,6.12a.69.69,0,0,0,.9.31A.63.63,0,0,0,191,296.77Z"/></g></g></g></g></svg>