<svg xmlns="http://www.w3.org/2000/svg" viewBox="0 0 354.85 156.8"><defs><style>.a6bfe1ad-f961-48f9-8c45-999023237c3e{fill:#e3c284;}.bc773272-7ad5-45bf-8b71-f996c42689c3{fill:#fff;}.fb7e285a-3e6b-4e92-82e1-56ecc88e0cac{fill:#eeeff1;}.acfb67c5-e524-4a03-b890-260a9e5c294a{fill:#d1d3d4;}.af5a8d28-d0fa-4838-baf0-4c89c762d82a{fill:#1c1d25;}</style></defs><title>robo</title><g id="b2190067-9ac7-4aee-8728-406cb8873eda" data-name="Слой 2"><g id="b4fc86b0-4842-44fa-84de-650000d0a721" data-name="Слой 1"><circle class="a6bfe1ad-f961-48f9-8c45-999023237c3e" cx="49.99" cy="49.99" r="49.99"/><path class="bc773272-7ad5-45bf-8b71-f996c42689c3" d="M50,76.34A25.52,25.52,0,0,0,26,93.88a50.07,50.07,0,0,0,47.9,0A25.52,25.52,0,0,0,50,76.34Z"/><path class="fb7e285a-3e6b-4e92-82e1-56ecc88e0cac" d="M50,73.85c-9,0-16.63,9.45-19,22.38a50.16,50.16,0,0,0,38.06,0C66.62,83.3,59,73.85,50,73.85Z"/><ellipse class="acfb67c5-e524-4a03-b890-260a9e5c294a" cx="49.99" cy="76.24" rx="12.75" ry="4.88"/><rect class="fb7e285a-3e6b-4e92-82e1-56ecc88e0cac" x="21.29" y="24.69" width="2.04" height="23.51"/><rect class="fb7e285a-3e6b-4e92-82e1-56ecc88e0cac" x="76.65" y="24.69" width="2.04" height="23.51"/><circle class="acfb67c5-e524-4a03-b890-260a9e5c294a" cx="24.96" cy="53.1" r="8.22"/><circle class="acfb67c5-e524-4a03-b890-260a9e5c294a" cx="75.03" cy="53.1" r="8.22" transform="translate(-7.43 12.49) rotate(-9.07)"/><path class="acfb67c5-e524-4a03-b890-260a9e5c294a" d="M49.53,30C34.73,30.19,23,42.57,23,57.37v11.5a7.38,7.38,0,0,0,7.38,7.39h39.2A7.39,7.39,0,0,0,77,68.87V56.93A27,27,0,0,0,49.53,30Z"/><path class="fb7e285a-3e6b-4e92-82e1-56ecc88e0cac" d="M49.53,27.05C34.73,27.3,23,39.68,23,54.48V67.84a5.52,5.52,0,0,0,5.52,5.52H71.45A5.53,5.53,0,0,0,77,67.84V54A27,27,0,0,0,49.53,27.05Z"/><path class="acfb67c5-e524-4a03-b890-260a9e5c294a" d="M49.63,32C38.13,32.19,29,41.93,29,53.56V64.07a4.33,4.33,0,0,0,4.3,4.34H66.67A4.32,4.32,0,0,0,71,64.07V53.21A21.1,21.1,0,0,0,49.63,32Z"/><path class="af5a8d28-d0fa-4838-baf0-4c89c762d82a" d="M49.63,33.75C38.13,33.94,29,43.68,29,55.31v8.76a4.33,4.33,0,0,0,4.3,4.34H66.67A4.32,4.32,0,0,0,71,64.07V55A21.09,21.09,0,0,0,49.63,33.75Z"/><circle class="acfb67c5-e524-4a03-b890-260a9e5c294a" cx="22.31" cy="23.28" r="2.9" transform="translate(-3.46 3.9) rotate(-9.28)"/><circle class="acfb67c5-e524-4a03-b890-260a9e5c294a" cx="77.67" cy="23.28" r="2.9"/><circle class="a6bfe1ad-f961-48f9-8c45-999023237c3e" cx="177.42" cy="49.99" r="49.99"/><path class="bc773272-7ad5-45bf-8b71-f996c42689c3" d="M177.42,76.34a25.53,25.53,0,0,0-23.95,17.54,50.07,50.07,0,0,0,47.9,0A25.52,25.52,0,0,0,177.42,76.34Z"/><path class="fb7e285a-3e6b-4e92-82e1-56ecc88e0cac" d="M177.42,73.85c-9,0-16.63,9.45-19,22.38a50.14,50.14,0,0,0,38,0C194.05,83.3,186.44,73.85,177.42,73.85Z"/><ellipse class="acfb67c5-e524-4a03-b890-260a9e5c294a" cx="177.42" cy="76.24" rx="12.75" ry="4.88"/><rect class="fb7e285a-3e6b-4e92-82e1-56ecc88e0cac" x="148.72" y="24.69" width="2.04" height="23.51"/><rect class="fb7e285a-3e6b-4e92-82e1-56ecc88e0cac" x="204.08" y="24.69" width="2.04" height="23.51"/><circle class="acfb67c5-e524-4a03-b890-260a9e5c294a" cx="152.39" cy="53.1" r="8.22"/><circle class="acfb67c5-e524-4a03-b890-260a9e5c294a" cx="202.46" cy="53.1" r="8.22" transform="translate(-5.84 32.59) rotate(-9.07)"/><path class="acfb67c5-e524-4a03-b890-260a9e5c294a" d="M177,30c-14.79.24-26.52,12.62-26.52,27.42v11.5a7.38,7.38,0,0,0,7.38,7.39H197a7.39,7.39,0,0,0,7.39-7.39V56.93A27,27,0,0,0,177,30Z"/><path class="fb7e285a-3e6b-4e92-82e1-56ecc88e0cac" d="M177,27.05c-14.79.25-26.52,12.63-26.52,27.43V67.84A5.52,5.52,0,0,0,156,73.36h42.92a5.53,5.53,0,0,0,5.53-5.52V54A27,27,0,0,0,177,27.05Z"/><path class="acfb67c5-e524-4a03-b890-260a9e5c294a" d="M177.06,32c-11.5.19-20.62,9.93-20.62,21.56V64.07a4.33,4.33,0,0,0,4.3,4.34H194.1a4.32,4.32,0,0,0,4.3-4.34V53.21A21.1,21.1,0,0,0,177.06,32Z"/><path class="af5a8d28-d0fa-4838-baf0-4c89c762d82a" d="M177.06,33.75c-11.5.19-20.62,9.93-20.62,21.56v8.76a4.33,4.33,0,0,0,4.3,4.34H194.1a4.32,4.32,0,0,0,4.3-4.34V55A21.09,21.09,0,0,0,177.06,33.75Z"/><circle class="acfb67c5-e524-4a03-b890-260a9e5c294a" cx="149.74" cy="23.28" r="2.9" transform="translate(-1.79 24.45) rotate(-9.28)"/><circle class="acfb67c5-e524-4a03-b890-260a9e5c294a" cx="205.1" cy="23.28" r="2.9"/><circle class="a6bfe1ad-f961-48f9-8c45-999023237c3e" cx="304.85" cy="49.99" r="49.99"/><path class="bc773272-7ad5-45bf-8b71-f996c42689c3" d="M304.85,76.34a25.53,25.53,0,0,0-24,17.54,50.09,50.09,0,0,0,47.91,0A25.53,25.53,0,0,0,304.85,76.34Z"/><path class="fb7e285a-3e6b-4e92-82e1-56ecc88e0cac" d="M304.85,73.85c-9,0-16.62,9.45-19,22.38a50.14,50.14,0,0,0,38.05,0C321.48,83.3,313.87,73.85,304.85,73.85Z"/><ellipse class="acfb67c5-e524-4a03-b890-260a9e5c294a" cx="304.85" cy="76.24" rx="12.75" ry="4.88"/><rect class="fb7e285a-3e6b-4e92-82e1-56ecc88e0cac" x="276.15" y="24.69" width="2.04" height="23.51"/><rect class="fb7e285a-3e6b-4e92-82e1-56ecc88e0cac" x="331.51" y="24.69" width="2.04" height="23.51"/><circle class="acfb67c5-e524-4a03-b890-260a9e5c294a" cx="279.82" cy="53.1" r="8.22"/><circle class="acfb67c5-e524-4a03-b890-260a9e5c294a" cx="329.89" cy="53.1" r="8.22" transform="translate(-4.25 52.68) rotate(-9.07)"/><path class="acfb67c5-e524-4a03-b890-260a9e5c294a" d="M304.39,30c-14.79.24-26.52,12.62-26.52,27.42v11.5a7.39,7.39,0,0,0,7.38,7.39h39.21a7.39,7.39,0,0,0,7.38-7.39V56.93A27,27,0,0,0,304.39,30Z"/><path class="fb7e285a-3e6b-4e92-82e1-56ecc88e0cac" d="M304.39,27.05c-14.79.25-26.52,12.63-26.52,27.43V67.84a5.52,5.52,0,0,0,5.53,5.52h42.91a5.52,5.52,0,0,0,5.53-5.52V54A27,27,0,0,0,304.39,27.05Z"/><path class="acfb67c5-e524-4a03-b890-260a9e5c294a" d="M304.5,32c-11.51.19-20.62,9.93-20.62,21.56V64.07a4.32,4.32,0,0,0,4.29,4.34h33.37a4.32,4.32,0,0,0,4.29-4.34V53.21A21.09,21.09,0,0,0,304.5,32Z"/><path class="af5a8d28-d0fa-4838-baf0-4c89c762d82a" d="M304.5,33.75c-11.51.19-20.62,9.93-20.62,21.56v8.76a4.32,4.32,0,0,0,4.29,4.34h33.37a4.32,4.32,0,0,0,4.29-4.34V55A21.08,21.08,0,0,0,304.5,33.75Z"/><circle class="acfb67c5-e524-4a03-b890-260a9e5c294a" cx="277.17" cy="23.28" r="2.9" transform="translate(-0.13 45) rotate(-9.28)"/><circle class="acfb67c5-e524-4a03-b890-260a9e5c294a" cx="332.54" cy="23.28" r="2.9"/><path class="a6bfe1ad-f961-48f9-8c45-999023237c3e" d="M52.32,44.65V61.5H48.68v-11H44.59V48H45q3.84,0,4.48-3.37Z"/><path class="a6bfe1ad-f961-48f9-8c45-999023237c3e" d="M182.93,58.43v3H170.58a8.48,8.48,0,0,1,.3-2.08,7.09,7.09,0,0,1,.65-1.6,6.29,6.29,0,0,1,1.14-1.37A17.55,17.55,0,0,1,174,55.18c.4-.29,1-.69,1.72-1.2l.78-.51.86-.57c.16-.12.4-.31.72-.59a4,4,0,0,0,.69-.74,4.68,4.68,0,0,0,.4-.78,2.52,2.52,0,0,0,.19-1A2.29,2.29,0,0,0,177,47.38c-1.73,0-2.65,1.22-2.74,3.66H171v-.36a6.23,6.23,0,0,1,1.67-4.56,6.7,6.7,0,0,1,8.61-.26,4.75,4.75,0,0,1,1.59,3.71,4.8,4.8,0,0,1-.84,3,11.39,11.39,0,0,1-2.65,2.33l-.89.59q-.64.42-1,.69c-.25.17-.55.4-.9.67a7.58,7.58,0,0,0-.92.81,5.19,5.19,0,0,0-.65.8Z"/><path class="a6bfe1ad-f961-48f9-8c45-999023237c3e" d="M298.42,50.06a5.79,5.79,0,0,1,1.64-4.13,5.7,5.7,0,0,1,4.19-1.51,6.13,6.13,0,0,1,4.05,1.29,4.12,4.12,0,0,1,1.55,3.34,3.66,3.66,0,0,1-.63,2.13,3,3,0,0,1-1.72,1.19,3.79,3.79,0,0,1,2.19,1.36,4,4,0,0,1,.79,2.51,5,5,0,0,1-1.74,3.94,6.62,6.62,0,0,1-4.52,1.53,6.37,6.37,0,0,1-4.55-1.59A5.63,5.63,0,0,1,298,55.83v-.24h3.3A3.57,3.57,0,0,0,302,58a2.69,2.69,0,0,0,2.11.83,2.88,2.88,0,0,0,2-.71,2.37,2.37,0,0,0,.77-1.84,2.17,2.17,0,0,0-.85-1.92,3.83,3.83,0,0,0-2.2-.59c-.34,0-.62,0-.85,0V51.38a5.34,5.34,0,0,0,.58,0c2,0,2.94-.7,2.94-2.11a2,2,0,0,0-.64-1.55,2.46,2.46,0,0,0-1.7-.57,2.37,2.37,0,0,0-1.86.74,3.22,3.22,0,0,0-.69,2.15Z"/><path class="a6bfe1ad-f961-48f9-8c45-999023237c3e" d="M311.11,120.13a2.28,2.28,0,0,0-2.65,1.81c-.13.68-3.37,16.71-21.18,16.71H208.7c-13.4,0-27.33,9.63-31.79,13-4.46-3.37-18.39-13-31.79-13H66.54c-17.8,0-21.05-16-21.18-16.71a2.27,2.27,0,1,0-4.46.83c0,.2,4,20.42,25.64,20.42h78.58c14.25,0,30.19,13,30.35,13.09l0,0,.1.07.29.17.13.06a2.33,2.33,0,0,0,.31.11l.13,0a2.12,2.12,0,0,0,.44.05h0a2.12,2.12,0,0,0,.44-.05l.13,0a1.92,1.92,0,0,0,.31-.11l.13-.06.29-.17.1-.07,0,0c.16-.13,16.1-13.09,30.35-13.09h78.58c21.64,0,25.61-20.22,25.64-20.42A2.26,2.26,0,0,0,311.11,120.13Z"/></g></g></svg>