<svg xmlns="http://www.w3.org/2000/svg" xmlns:xlink="http://www.w3.org/1999/xlink" viewBox="0 0 380.06 342.52"><defs><style>.f7d59f85-977c-4563-8bbd-08305d7f1c6e{isolation:isolate;}.e15e6bdb-444f-4df2-95d9-3817d4a224d9{fill:#bcbeff;}.e3917d3c-7164-459a-8f58-b39511f4d34c{fill:url(#a04b536a-c1f2-4536-8bb8-f88ec6915d66);}.f6bd1ad4-56c3-4c57-a41d-7a69045ab269,.fee5a068-f626-4526-94ed-7088dd36992c{mix-blend-mode:lighten;}.bf17021a-e976-46cf-a8f1-4f5e23e4c039{fill:url(#ff3f3f0f-b63a-4baa-800b-4fb09be3f02e);}.ac6fc4ea-5561-4d8a-967a-cb233c8b40fa{fill:#251c72;}.e783d234-5053-4a91-ad64-89dcaa765585{fill:#1a1d25;}.f37c2add-526e-464c-9d9e-426becd52fc2{fill:url(#b6772246-f023-47e9-9b86-2eed006dcb9d);}.b7af8a01-8135-4ebe-8bae-eb54c2c131ec{fill:url(#a6bd210f-0b4b-4646-863c-6fa25bf09831);}.b376b50e-d8f0-4ded-8183-72a70e75ea6e{fill:url(#b40ca2d3-6932-4a38-b985-f9d81aa59e97);}.ac07d288-42da-4815-b780-fbbf16ca3a31{fill:#302f35;}.a09a8a53-fe74-461c-86e9-1d5219afd240{fill:url(#fa4a3e17-0374-4567-9ff4-a3ffd03ab2e7);}.b8799555-fefc-4212-96a2-b13df5d1c392{opacity:0.34;fill:url(#e8c847f4-8adb-43f8-9141-cb7ba8fd36f0);}.a3bfd64f-858c-4ba7-8927-e367c6b5219a{fill:url(#bb938efe-84b6-49e9-aed6-56556ed98740);}.f4e8f9dc-33af-479d-8709-b9cf2dcdb8f8{fill:url(#fdcf07bb-a0b4-4c4d-bb1a-5439b075b94d);}.a537c578-be85-49fd-9d64-215864165db2{opacity:0.55;fill:url(#bb0cfff6-d6d1-40e3-8fe3-bed82431af68);}.bb696f06-46bb-4e4e-a195-f1b7787fc74a{fill:url(#fcd3d497-fd2b-467f-aed1-09d7cf761d6d);}.a57b502e-3035-4749-ac38-dd5e476387aa{fill:url(#f038387a-9193-4049-bc1a-a3976b58280f);}.a66af6be-4d5f-4a8e-805c-07abfe1b33b8{opacity:0.5;}.f7b119db-a46a-45f1-b564-27a9c54dafed{fill:url(#bb564192-a3b6-4cb9-bc7e-9362037ab91d);}.f6bd1ad4-56c3-4c57-a41d-7a69045ab269{opacity:0.3;}.a0dd71da-551c-475b-88e5-3a6860fffdec{fill:url(#b55c635b-8bba-4880-bb7e-3aaab11d00a8);}.a84b770c-6229-4188-8f08-6399e4d3d986{fill:url(#f3a91fe5-c4d1-43f5-ac65-40d78f78db95);}.e440f9f3-4a7a-4eb8-8d58-373028e6e511{fill:url(#b6129253-33a0-4011-a960-3ed176e8f77c);}.e21b883e-3093-4c97-a429-726dc6d0f909{fill:url(#bf913409-d593-41cd-b23e-7f1603a1dc30);}.ea3471aa-47b5-4718-806d-2f671e24fb33{fill:url(#b6b005b5-5ab2-4145-94dc-6890e20a8dda);}.b3a1b4fa-9229-4fbc-b827-1559033e9eab{fill:url(#e216900d-52cd-4821-823c-d5a4a45e042b);}.f5d3d417-7d02-4b77-b6f7-9fab6f523e93{fill:url(#b6049560-9021-4e60-a4a9-54fa359a8178);}.a97738ac-9e24-456c-a02d-efffea09c84d{fill:url(#bbfba959-93bd-470d-b4fe-6d1b2a3016f1);}.f82c3d22-dceb-4e96-a9b1-5f26dd614a2d{fill:url(#be1cc1ac-57a5-4024-b684-b6a172d5e9e8);}.bdcf87ee-25af-44ec-99ec-66fa816e0419{fill:url(#f518da1b-7fbb-4ab4-9755-399d2f3a21f1);}.ac742d4e-5c42-461a-900b-d6e786798096{fill:url(#bcc5ea92-24b6-498b-b178-3ddd7fa442f8);}.be2ba727-d66e-4248-94f7-8973ec53d454{fill:url(#b516b7b0-e758-491b-90fd-ac64b0b389e2);}.fdc2c0b8-869a-428c-86b5-d9685cef4662{fill:url(#b7d59e6a-3d23-499b-be2a-ebf9b6351683);}.bd3f6efa-a561-41da-9faf-b4bce834b940{fill:url(#a627cd09-f369-4fbf-a078-ec8213e18bb4);}.f8475880-0c1d-43d8-b056-6aba896a96b9{fill:url(#b38e0669-ea3f-44f6-8aa8-b47171c87be4);}.a5e31cf2-319f-4c97-b4a3-804a86479299{fill:url(#a344941c-bb31-4ccc-8c40-fd3dba4cb758);}.a5e6c131-7ca1-4841-b208-199329bfc20f{fill:url(#b2647a65-d5b1-4492-b321-56e257240c11);}.e3ffe00c-c75d-41e1-9d6e-b86b99916400{fill:url(#b1a0ae75-01ef-4ad8-a40e-24cf4db23b1d);}.bcef2fa3-5a38-4e35-89a2-a24826a8c9ce{fill:url(#a9de61e8-aee9-4c13-b0f7-f4b4dfa6b53a);}.a04d7b65-4ab0-4c4d-b0b7-183cb0164c79{fill:url(#a44d0fe4-e72e-4106-996c-ed55aba61d10);}.e0867215-f50b-4097-bde6-10f4143a0f86{fill:url(#bd16e997-16fd-47eb-9c03-c4e7f03d03bc);}.efcec129-de67-4955-bf97-62e100b038f9{fill:url(#fd0214b6-6833-41be-8b8a-f619a81907bf);}.e1a9a630-c34a-4c38-8385-3196bab23261{fill:url(#aa9d20a5-11e3-4fdc-bb02-e5aeda10695c);}.beb99801-392f-4a82-97ca-96008d9662c4{fill:url(#be3e3cf4-74ea-427e-8575-f0cc8c1144de);}.b22221a7-b6b7-45c8-b64e-b3482d72aa57{fill:url(#a6a181ee-6a5a-4c42-baf7-f4f6f37f084a);}.e949d78e-6ab1-49ff-9d1c-83e73b98165c{fill:url(#aa7e40bb-c718-4f88-92f5-d128e9d0d575);}.a9d99555-cb91-4572-8b6b-42b1520915f5{fill:url(#aa4b1a24-edf6-452a-b5d1-702f190a4ce1);}.a4745762-271a-403a-92db-22860b447fcb{fill:url(#abb9cb62-1c50-4c82-a83e-6935e9e7bd7c);}.a14d4935-2a16-421a-8512-4412c43035ee{fill:url(#bc94ed93-c1b7-490a-a016-aaae1984b4bc);}.ac56965a-6eb9-4d54-816e-22d5e3eee407{fill:url(#f80c74a5-3da8-4ddf-8fc8-b313c1667ec6);}.aa26614b-85a4-4fab-ae7c-b25cfcd5e493{fill:url(#ae7d86fa-90a5-4b88-bb90-9af458c4d495);}.b71d40f2-3a8b-4530-9cdd-07aef50f1d45{fill:url(#ac0edd1d-8788-41e3-b220-ce0600aba86c);}.b79e9f97-f01f-4ef3-8ce5-2f7e64c7b592{fill:url(#afdc319a-dc57-44bd-bea9-2ca697ab5dac);}.ab567b34-c4e1-4427-ab96-5b05cd344c0e{fill:url(#b53eaa91-d54d-4ee7-907c-1a22861ec7c9);}.ff5e90f4-7e5b-4182-b4b1-65dff41eb310{fill:url(#a717af28-cb97-4fd7-b191-82be132303dc);}.e5828151-6949-4e57-beae-36ec86f1cc32{fill:url(#e7c6bc5f-8bfb-4973-8082-e82812755fd5);}.f1a2afc5-0b21-4328-a37e-69d0e0e0b3a6{fill:url(#bdd550a3-d498-4ac5-ba49-ca449c0753d7);}.eb783e10-bc18-41cb-864b-bc52c8a7c3b0{fill:url(#b446ece2-946c-44d7-8997-79a99e0c8313);}.e358c837-bc97-46f0-bc27-41997bbb8037{fill:url(#a8dd7514-3447-4388-9447-b86f73f92c53);}.b3a3455b-20be-427a-ab60-471526a3a153{fill:url(#a4fc7620-8f26-4bd4-a556-bb0e363d100e);}.f8d55549-8047-4e90-82dd-2ceedc8dbfc1{fill:url(#bd5bb3dc-b7c8-4999-813f-4406263244d2);}.b55281b7-319d-45c8-89d7-03128af562fa{fill:url(#fd0cf7c1-92ad-4248-a380-53ed065f9079);}.b0799c84-82e6-4684-8f8b-9c47b226c71e{fill:url(#a696e62a-2226-423f-b259-521dd880d721);}.af107d57-dc48-4e4c-b074-84e1a102f49a{fill:url(#e3e4c9a9-7ca5-4405-b46a-42b82b7353c9);}.beaf4ab1-dcea-459c-a06f-57b4e6b31dbc{fill:url(#bfa77c6f-bc14-4bbb-b4ea-5ebedc3573b1);}.a6391611-7107-4626-bd60-ad506f67afb4{fill:url(#a847bdf8-a850-44e1-a12e-4e811a8730b5);}.b8c7f9e0-5ee2-4878-a318-1fd103c9da17{fill:url(#a7c3bae5-a5db-419a-85b1-26748114e0b1);}.a05e7857-4312-4848-bd7f-ce2b0e20548f{fill:url(#bb020dd2-96aa-4205-abfb-7b8163a5cc67);}.b93610f1-c923-4e23-8b5b-cc089d2925ac{fill:url(#b74feb28-03a3-46b8-bf0a-5d195d580bd5);}.a0f28f71-1663-457c-acae-f9defd2f3f08{fill:url(#e6880afb-9764-47df-9b1e-bc103a3b1fcc);}</style><radialGradient id="a04b536a-c1f2-4536-8bb8-f88ec6915d66" cx="3862.45" cy="114.16" r="226.5" gradientTransform="matrix(-1, 0, 0, 1, 3936.36, 0)" gradientUnits="userSpaceOnUse"><stop offset="0" stop-color="#5f5f6b"/><stop offset="1" stop-color="#36353d"/></radialGradient><linearGradient id="ff3f3f0f-b63a-4baa-800b-4fb09be3f02e" x1="3760.17" y1="266.74" x2="3797.47" y2="1.29" gradientTransform="matrix(-1, 0, 0, 1, 3936.36, 0)" gradientUnits="userSpaceOnUse"><stop offset="0" stop-color="#5f5f6b"/><stop offset="0.14" stop-color="#54535e"/><stop offset="0.41" stop-color="#43424c"/><stop offset="0.69" stop-color="#393841"/><stop offset="1" stop-color="#36353d"/></linearGradient><linearGradient id="b6772246-f023-47e9-9b86-2eed006dcb9d" x1="-1703.77" y1="164.05" x2="-1675.61" y2="164.05" gradientTransform="matrix(-1, 0, 0, 1, -1459.01, 0)" gradientUnits="userSpaceOnUse"><stop offset="0" stop-color="#e9c77d"/><stop offset="1" stop-color="#a37a29"/></linearGradient><linearGradient id="a6bd210f-0b4b-4646-863c-6fa25bf09831" x1="-1731.19" y1="123.07" x2="-1685.38" y2="226.75" xlink:href="#b6772246-f023-47e9-9b86-2eed006dcb9d"/><linearGradient id="b40ca2d3-6932-4a38-b985-f9d81aa59e97" x1="-1732.3" y1="164.03" x2="-1637.26" y2="179.46" xlink:href="#b6772246-f023-47e9-9b86-2eed006dcb9d"/><linearGradient id="fa4a3e17-0374-4567-9ff4-a3ffd03ab2e7" x1="-1550.86" y1="177.17" x2="-1525.9" y2="143.29" xlink:href="#b6772246-f023-47e9-9b86-2eed006dcb9d"/><linearGradient id="e8c847f4-8adb-43f8-9141-cb7ba8fd36f0" x1="-1550.5" y1="177.43" x2="-1525.54" y2="143.56" xlink:href="#b6772246-f023-47e9-9b86-2eed006dcb9d"/><linearGradient id="bb938efe-84b6-49e9-aed6-56556ed98740" x1="-1543.99" y1="182.23" x2="-1519.03" y2="148.35" xlink:href="#b6772246-f023-47e9-9b86-2eed006dcb9d"/><linearGradient id="fdcf07bb-a0b4-4c4d-bb1a-5439b075b94d" x1="-1537.7" y1="186.86" x2="-1512.74" y2="152.99" xlink:href="#b6772246-f023-47e9-9b86-2eed006dcb9d"/><linearGradient id="bb0cfff6-d6d1-40e3-8fe3-bed82431af68" x1="-1536.47" y1="187.77" x2="-1511.5" y2="153.9" xlink:href="#b6772246-f023-47e9-9b86-2eed006dcb9d"/><linearGradient id="fcd3d497-fd2b-467f-aed1-09d7cf761d6d" x1="-1534.15" y1="189.48" x2="-1509.19" y2="155.6" xlink:href="#b6772246-f023-47e9-9b86-2eed006dcb9d"/><linearGradient id="f038387a-9193-4049-bc1a-a3976b58280f" x1="3880.77" y1="252.9" x2="3971.5" y2="102.83" xlink:href="#ff3f3f0f-b63a-4baa-800b-4fb09be3f02e"/><linearGradient id="bb564192-a3b6-4cb9-bc7e-9362037ab91d" x1="-1838.8" y1="120.09" x2="-1535.15" y2="309.35" xlink:href="#b6772246-f023-47e9-9b86-2eed006dcb9d"/><linearGradient id="b55c635b-8bba-4880-bb7e-3aaab11d00a8" x1="-1851.36" y1="140.24" x2="-1547.71" y2="329.5" xlink:href="#b6772246-f023-47e9-9b86-2eed006dcb9d"/><linearGradient id="f3a91fe5-c4d1-43f5-ac65-40d78f78db95" x1="-1792.58" y1="45.94" x2="-1488.93" y2="235.2" xlink:href="#b6772246-f023-47e9-9b86-2eed006dcb9d"/><linearGradient id="b6129253-33a0-4011-a960-3ed176e8f77c" x1="-1805.09" y1="66.02" x2="-1501.45" y2="255.28" xlink:href="#b6772246-f023-47e9-9b86-2eed006dcb9d"/><linearGradient id="bf913409-d593-41cd-b23e-7f1603a1dc30" x1="-1812.2" y1="77.42" x2="-1508.55" y2="266.68" xlink:href="#b6772246-f023-47e9-9b86-2eed006dcb9d"/><linearGradient id="b6b005b5-5ab2-4145-94dc-6890e20a8dda" x1="-1818.67" y1="87.8" x2="-1515.03" y2="277.06" xlink:href="#b6772246-f023-47e9-9b86-2eed006dcb9d"/><linearGradient id="e216900d-52cd-4821-823c-d5a4a45e042b" x1="-1818.24" y1="87.11" x2="-1514.6" y2="276.37" xlink:href="#b6772246-f023-47e9-9b86-2eed006dcb9d"/><linearGradient id="b6049560-9021-4e60-a4a9-54fa359a8178" x1="-1823.43" y1="95.44" x2="-1519.79" y2="284.7" xlink:href="#b6772246-f023-47e9-9b86-2eed006dcb9d"/><linearGradient id="bbfba959-93bd-470d-b4fe-6d1b2a3016f1" x1="-1823.17" y1="95.02" x2="-1519.52" y2="284.28" xlink:href="#b6772246-f023-47e9-9b86-2eed006dcb9d"/><linearGradient id="be1cc1ac-57a5-4024-b684-b6a172d5e9e8" x1="-1828.12" y1="102.96" x2="-1524.48" y2="292.22" xlink:href="#b6772246-f023-47e9-9b86-2eed006dcb9d"/><linearGradient id="f518da1b-7fbb-4ab4-9755-399d2f3a21f1" x1="-1833.41" y1="111.44" x2="-1529.76" y2="300.71" xlink:href="#b6772246-f023-47e9-9b86-2eed006dcb9d"/><linearGradient id="bcc5ea92-24b6-498b-b178-3ddd7fa442f8" x1="-1833.14" y1="111.02" x2="-1529.5" y2="300.28" xlink:href="#b6772246-f023-47e9-9b86-2eed006dcb9d"/><linearGradient id="b516b7b0-e758-491b-90fd-ac64b0b389e2" x1="-1838.27" y1="119.24" x2="-1534.62" y2="308.5" xlink:href="#b6772246-f023-47e9-9b86-2eed006dcb9d"/><linearGradient id="b7d59e6a-3d23-499b-be2a-ebf9b6351683" x1="-1837.87" y1="118.61" x2="-1534.23" y2="307.87" xlink:href="#b6772246-f023-47e9-9b86-2eed006dcb9d"/><linearGradient id="a627cd09-f369-4fbf-a078-ec8213e18bb4" x1="-1837.59" y1="118.16" x2="-1533.95" y2="307.42" xlink:href="#b6772246-f023-47e9-9b86-2eed006dcb9d"/><linearGradient id="b38e0669-ea3f-44f6-8aa8-b47171c87be4" x1="-1837.22" y1="117.57" x2="-1533.58" y2="306.83" xlink:href="#b6772246-f023-47e9-9b86-2eed006dcb9d"/><linearGradient id="a344941c-bb31-4ccc-8c40-fd3dba4cb758" x1="-1847.33" y1="133.79" x2="-1543.69" y2="323.05" xlink:href="#b6772246-f023-47e9-9b86-2eed006dcb9d"/><linearGradient id="b2647a65-d5b1-4492-b321-56e257240c11" x1="-1846.96" y1="133.19" x2="-1543.32" y2="322.46" xlink:href="#b6772246-f023-47e9-9b86-2eed006dcb9d"/><linearGradient id="b1a0ae75-01ef-4ad8-a40e-24cf4db23b1d" x1="-1848.36" y1="135.43" x2="-1544.71" y2="324.69" xlink:href="#b6772246-f023-47e9-9b86-2eed006dcb9d"/><linearGradient id="a9de61e8-aee9-4c13-b0f7-f4b4dfa6b53a" x1="-1848.07" y1="134.97" x2="-1544.43" y2="324.24" xlink:href="#b6772246-f023-47e9-9b86-2eed006dcb9d"/><linearGradient id="a44d0fe4-e72e-4106-996c-ed55aba61d10" x1="-1847.7" y1="134.38" x2="-1544.06" y2="323.65" xlink:href="#b6772246-f023-47e9-9b86-2eed006dcb9d"/><linearGradient id="bd16e997-16fd-47eb-9c03-c4e7f03d03bc" x1="-1842.07" y1="125.34" x2="-1538.43" y2="314.6" xlink:href="#b6772246-f023-47e9-9b86-2eed006dcb9d"/><linearGradient id="fd0214b6-6833-41be-8b8a-f619a81907bf" x1="-1841.79" y1="124.89" x2="-1538.14" y2="314.15" xlink:href="#b6772246-f023-47e9-9b86-2eed006dcb9d"/><linearGradient id="aa9d20a5-11e3-4fdc-bb02-e5aeda10695c" x1="-1841.42" y1="124.3" x2="-1537.78" y2="313.56" xlink:href="#b6772246-f023-47e9-9b86-2eed006dcb9d"/><linearGradient id="be3e3cf4-74ea-427e-8575-f0cc8c1144de" x1="-1858.33" y1="151.43" x2="-1554.69" y2="340.69" xlink:href="#b6772246-f023-47e9-9b86-2eed006dcb9d"/><linearGradient id="a6a181ee-6a5a-4c42-baf7-f4f6f37f084a" x1="-1857.96" y1="150.84" x2="-1554.32" y2="340.1" xlink:href="#b6772246-f023-47e9-9b86-2eed006dcb9d"/><linearGradient id="aa7e40bb-c718-4f88-92f5-d128e9d0d575" x1="-1827.25" y1="101.57" x2="-1523.61" y2="290.84" xlink:href="#b6772246-f023-47e9-9b86-2eed006dcb9d"/><linearGradient id="aa4b1a24-edf6-452a-b5d1-702f190a4ce1" x1="-1827.55" y1="102.05" x2="-1523.91" y2="291.31" xlink:href="#b6772246-f023-47e9-9b86-2eed006dcb9d"/><linearGradient id="abb9cb62-1c50-4c82-a83e-6935e9e7bd7c" x1="-1826.89" y1="100.98" x2="-1523.24" y2="290.24" xlink:href="#b6772246-f023-47e9-9b86-2eed006dcb9d"/><linearGradient id="bc94ed93-c1b7-490a-a016-aaae1984b4bc" x1="-1843.38" y1="127.44" x2="-1539.73" y2="316.7" xlink:href="#b6772246-f023-47e9-9b86-2eed006dcb9d"/><linearGradient id="f80c74a5-3da8-4ddf-8fc8-b313c1667ec6" x1="-1842.98" y1="126.81" x2="-1539.34" y2="316.07" xlink:href="#b6772246-f023-47e9-9b86-2eed006dcb9d"/><linearGradient id="ae7d86fa-90a5-4b88-bb90-9af458c4d495" x1="-1842.46" y1="125.97" x2="-1538.82" y2="315.24" xlink:href="#b6772246-f023-47e9-9b86-2eed006dcb9d"/><linearGradient id="ac0edd1d-8788-41e3-b220-ce0600aba86c" x1="-1826.52" y1="100.4" x2="-1522.88" y2="289.66" xlink:href="#b6772246-f023-47e9-9b86-2eed006dcb9d"/><linearGradient id="afdc319a-dc57-44bd-bea9-2ca697ab5dac" x1="-1826.13" y1="99.76" x2="-1522.48" y2="289.03" xlink:href="#b6772246-f023-47e9-9b86-2eed006dcb9d"/><linearGradient id="b53eaa91-d54d-4ee7-907c-1a22861ec7c9" x1="-1825.61" y1="98.93" x2="-1521.96" y2="288.19" xlink:href="#b6772246-f023-47e9-9b86-2eed006dcb9d"/><linearGradient id="a717af28-cb97-4fd7-b191-82be132303dc" x1="-1853.22" y1="143.24" x2="-1549.58" y2="332.5" xlink:href="#b6772246-f023-47e9-9b86-2eed006dcb9d"/><linearGradient id="e7c6bc5f-8bfb-4973-8082-e82812755fd5" x1="-1852.85" y1="142.64" x2="-1549.21" y2="331.9" xlink:href="#b6772246-f023-47e9-9b86-2eed006dcb9d"/><linearGradient id="bdd550a3-d498-4ac5-ba49-ca449c0753d7" x1="-1852.63" y1="142.28" x2="-1548.98" y2="331.54" xlink:href="#b6772246-f023-47e9-9b86-2eed006dcb9d"/><linearGradient id="b446ece2-946c-44d7-8997-79a99e0c8313" x1="-1852.31" y1="141.77" x2="-1548.66" y2="331.03" xlink:href="#b6772246-f023-47e9-9b86-2eed006dcb9d"/><linearGradient id="a8dd7514-3447-4388-9447-b86f73f92c53" x1="-1852.22" y1="141.63" x2="-1548.58" y2="330.89" xlink:href="#b6772246-f023-47e9-9b86-2eed006dcb9d"/><linearGradient id="a4fc7620-8f26-4bd4-a556-bb0e363d100e" x1="-1836.89" y1="117.03" x2="-1533.24" y2="306.29" xlink:href="#b6772246-f023-47e9-9b86-2eed006dcb9d"/><linearGradient id="bd5bb3dc-b7c8-4999-813f-4406263244d2" x1="-1836.57" y1="116.51" x2="-1532.92" y2="305.78" xlink:href="#b6772246-f023-47e9-9b86-2eed006dcb9d"/><linearGradient id="fd0cf7c1-92ad-4248-a380-53ed065f9079" x1="-1836.48" y1="116.37" x2="-1532.84" y2="305.64" xlink:href="#b6772246-f023-47e9-9b86-2eed006dcb9d"/><linearGradient id="a696e62a-2226-423f-b259-521dd880d721" x1="-1863.68" y1="160.02" x2="-1560.04" y2="349.28" xlink:href="#b6772246-f023-47e9-9b86-2eed006dcb9d"/><linearGradient id="e3e4c9a9-7ca5-4405-b46a-42b82b7353c9" x1="-1863.36" y1="159.51" x2="-1559.72" y2="348.77" xlink:href="#b6772246-f023-47e9-9b86-2eed006dcb9d"/><linearGradient id="bfa77c6f-bc14-4bbb-b4ea-5ebedc3573b1" x1="-1862.94" y1="158.83" x2="-1559.3" y2="348.09" xlink:href="#b6772246-f023-47e9-9b86-2eed006dcb9d"/><linearGradient id="a847bdf8-a850-44e1-a12e-4e811a8730b5" x1="452.67" y1="279.53" x2="542.92" y2="300.78" gradientTransform="translate(-467.11 -71.27) rotate(-2.3)" xlink:href="#b6772246-f023-47e9-9b86-2eed006dcb9d"/><linearGradient id="a7c3bae5-a5db-419a-85b1-26748114e0b1" x1="452.5" y1="283.64" x2="532.36" y2="302.44" gradientTransform="translate(-467.11 -71.27) rotate(-2.3)" xlink:href="#b6772246-f023-47e9-9b86-2eed006dcb9d"/><linearGradient id="bb020dd2-96aa-4205-abfb-7b8163a5cc67" x1="448.54" y1="286.28" x2="533.34" y2="306.25" gradientTransform="translate(-467.11 -71.27) rotate(-2.3)" xlink:href="#b6772246-f023-47e9-9b86-2eed006dcb9d"/><linearGradient id="b74feb28-03a3-46b8-bf0a-5d195d580bd5" x1="446.66" y1="288.95" x2="529.75" y2="308.51" gradientTransform="translate(-467.11 -71.27) rotate(-2.3)" xlink:href="#b6772246-f023-47e9-9b86-2eed006dcb9d"/><linearGradient id="e6880afb-9764-47df-9b1e-bc103a3b1fcc" x1="447.23" y1="291.94" x2="524.99" y2="310.25" gradientTransform="translate(-467.11 -71.27) rotate(-2.3)" xlink:href="#b6772246-f023-47e9-9b86-2eed006dcb9d"/></defs><title>Robot</title><g class="f7d59f85-977c-4563-8bbd-08305d7f1c6e"><g id="be545179-f74a-4fe9-ba84-ae11d86420b7" data-name="Слой 2"><g id="af4d7d7e-3dad-4788-b662-0b7667447bcd" data-name="Слой 1"><ellipse class="e15e6bdb-444f-4df2-95d9-3817d4a224d9" cx="239.7" cy="88.13" rx="30.88" ry="53.49" transform="translate(-11.95 131.66) rotate(-30)"/><circle class="e3917d3c-7164-459a-8f58-b39511f4d34c" cx="157.55" cy="134.01" r="134.01"/><g class="fee5a068-f626-4526-94ed-7088dd36992c"><circle class="bf17021a-e976-46cf-a8f1-4f5e23e4c039" cx="157.55" cy="134.01" r="134.01"/></g><ellipse class="ac6fc4ea-5561-4d8a-967a-cb233c8b40fa" cx="237.58" cy="168.26" rx="58.93" ry="34.03" transform="translate(-9.06 322.93) rotate(-67.4)"/><ellipse class="e783d234-5053-4a91-ad64-89dcaa765585" cx="237.58" cy="168.26" rx="58.93" ry="34.03" transform="translate(-9.06 322.93) rotate(-67.4)"/><path class="f37c2add-526e-464c-9d9e-426becd52fc2" d="M216.79,174.67c1.24,9.58,8.47,12.58,16.14,6.72s12.89-18.39,11.64-28-8.47-12.58-16.14-6.72S215.54,165.09,216.79,174.67Z"/><path class="b7af8a01-8135-4ebe-8bae-eb54c2c131ec" d="M233.64,212.13c21.11-16.14,35.45-50.59,32-76.94-1.4-10.75-5.53-18.48-11.36-22.79,11,1,19.39,10.4,21.5,26.63,3.42,26.35-10.92,60.8-32,76.95-12.51,9.56-24.58,10.55-33.06,4.29C217.61,220.92,225.53,218.34,233.64,212.13Z"/><path class="b376b50e-d8f0-4ded-8183-72a70e75ea6e" d="M242,215.12c21.11-16.15,35.45-50.59,32-77-1.58-12.2-6.7-20.52-13.83-24.33,8.07,3.32,13.93,12,15.65,25.19,3.42,26.35-10.92,60.8-32,76.95-11.33,8.66-22.31,10.27-30.58,5.84C221.23,225.12,231.44,223.16,242,215.12Z"/><polygon class="e783d234-5053-4a91-ad64-89dcaa765585" points="44.44 183.03 92.98 211.06 92.98 155.01 44.44 126.98 44.44 183.03"/><polygon class="ac07d288-42da-4815-b780-fbbf16ca3a31" points="51.65 131.15 51.65 179.12 92.98 202.99 92.98 211.06 44.44 183.03 44.44 126.98 51.65 131.15"/><polygon class="a09a8a53-fe74-461c-86e9-1d5219afd240" points="83.71 170.32 88.06 172.83 88.06 167.81 83.71 165.3 83.71 170.32"/><polygon class="b8799555-fefc-4212-96a2-b13df5d1c392" points="74.48 158.56 78.83 161.07 78.83 156.05 74.48 153.54 74.48 158.56"/><polygon class="a3bfd64f-858c-4ba7-8927-e367c6b5219a" points="65.25 159.67 69.6 162.18 69.6 157.16 65.25 154.64 65.25 159.67"/><polygon class="f4e8f9dc-33af-479d-8709-b9cf2dcdb8f8" points="65.25 172.83 69.6 175.34 69.6 170.32 65.25 167.81 65.25 172.83"/><polygon class="a537c578-be85-49fd-9d64-215864165db2" points="70.81 182.96 75.16 185.47 75.16 180.45 70.81 177.94 70.81 182.96"/><polygon class="bb696f06-46bb-4e4e-a195-f1b7787fc74a" points="55.73 167.34 60.08 169.85 60.08 164.83 55.73 162.32 55.73 167.34"/><polygon class="ac07d288-42da-4815-b780-fbbf16ca3a31" points="5.32 168.26 0 159.05 5.32 155.99 53.86 184.02 53.86 240.07 48.54 243.13 43.24 233.94 5.32 212.04 5.32 168.26"/><polygon class="ac07d288-42da-4815-b780-fbbf16ca3a31" points="0 215.1 48.54 243.13 48.54 187.07 0 159.05 0 215.1"/><polygon class="a57b502e-3035-4749-ac38-dd5e476387aa" points="0 215.1 48.54 243.13 48.54 187.07 0 159.05 0 215.1"/><g class="a66af6be-4d5f-4a8e-805c-07abfe1b33b8"><g class="fee5a068-f626-4526-94ed-7088dd36992c"><path class="f7b119db-a46a-45f1-b564-27a9c54dafed" d="M262.71,306.48c55-31.76,99.74-109.26,99.74-172.77,0-48.51-26.55-76.76-66.08-70.3A85,85,0,0,0,284,66.47c-2.24.74-4.45,3.66-4.94,6.53s.93,4.6,3.18,3.87a76.44,76.44,0,0,1,11.36-2.8c36.24-5.92,60.58,20,60.58,64.44,0,58.22-41,129.26-91.43,158.37s-91.44,5.43-91.44-52.79c0-2.65-1.86-3.72-4.16-2.4a9.21,9.21,0,0,0-4.15,7.2C163,312.4,207.7,338.23,262.71,306.48Z"/></g><g class="f6bd1ad4-56c3-4c57-a41d-7a69045ab269"><path class="a0dd71da-551c-475b-88e5-3a6860fffdec" d="M262.71,326.57C327.41,289.21,380.06,198,380.06,123.32c0-28.07-7.37-50.75-21.31-65.58-1.32-1.4-3.91-.42-5.79,2.18s-2.33,5.87-1,7.27C364.9,81,371.74,102,371.74,128.12c0,69.42-48.91,154.14-109,188.85-30.25,17.47-59.4,19.6-80,5.86-1.56-1-4.19.36-5.88,3.13s-1.78,5.87-.22,6.91C198.78,347.66,230.15,345.37,262.71,326.57Z"/></g><g class="fee5a068-f626-4526-94ed-7088dd36992c"><path class="a84b770c-6229-4188-8f08-6399e4d3d986" d="M208.88,136a7.94,7.94,0,0,0,2.34-2.19,203.46,203.46,0,0,1,16-19.26,177,177,0,0,1,15.51-14.69c2.24-1.87,3.65-5.25,3.15-7.55s-2.72-2.63-5-.77a194.72,194.72,0,0,0-16.94,16,227.25,227.25,0,0,0-17.41,21c-1.89,2.59-2.38,5.86-1.09,7.3C206.25,136.74,207.55,136.72,208.88,136Z"/></g><path class="e440f9f3-4a7a-4eb8-8d58-373028e6e511" d="M184.75,166.37c0,3,2.09,4.19,4.68,2.7a10.35,10.35,0,0,0,4.67-8.1c0-3-2.09-4.19-4.67-2.7A10.31,10.31,0,0,0,184.75,166.37Z"/><path class="e21b883e-3093-4c97-a429-726dc6d0f909" d="M175,188.26c0,3,2.09,4.19,4.68,2.7a10.34,10.34,0,0,0,4.67-8.1c0-3-2.09-4.19-4.67-2.7A10.32,10.32,0,0,0,175,188.26Z"/><polygon class="ea3471aa-47b5-4718-806d-2f671e24fb33" points="304.67 124.01 323.49 113.14 323.49 108.4 304.67 119.27 304.67 124.01"/><polygon class="b3a1b4fa-9229-4fbc-b827-1559033e9eab" points="288.61 133.28 298.02 127.85 298.02 123.11 288.61 128.54 288.61 133.28"/><polygon class="f5d3d417-7d02-4b77-b6f7-9fab6f523e93" points="299.12 138.33 307.14 133.7 307.14 128.96 299.12 133.59 299.12 138.33"/><polygon class="a97738ac-9e24-456c-a02d-efffea09c84d" points="285.69 146.08 295.1 140.65 295.1 135.91 285.69 141.34 285.69 146.08"/><polygon class="f82c3d22-dceb-4e96-a9b1-5f26dd614a2d" points="270.15 166.16 307.14 144.81 307.14 140.07 270.15 161.42 270.15 166.16"/><polygon class="bdcf87ee-25af-44ec-99ec-66fa816e0419" points="299.12 160.55 307.14 155.92 307.14 151.18 299.12 155.81 299.12 160.55"/><polygon class="ac742d4e-5c42-461a-900b-d6e786798096" points="285.69 168.31 295.1 162.87 295.1 158.13 285.69 163.57 285.69 168.31"/><polygon class="be2ba727-d66e-4248-94f7-8973ec53d454" points="286.81 178.77 307.14 167.03 307.14 162.29 286.81 174.03 286.81 178.77"/><polygon class="fdc2c0b8-869a-428c-86b5-d9685cef4662" points="273.2 186.63 282.61 181.19 282.61 176.46 273.2 181.89 273.2 186.63"/><polygon class="bd3f6efa-a561-41da-9faf-b4bce834b940" points="259.52 194.53 268.93 189.09 268.93 184.35 259.52 189.79 259.52 194.53"/><polygon class="f8475880-0c1d-43d8-b056-6aba896a96b9" points="237.44 207.27 255.25 196.99 255.25 192.25 237.44 202.53 237.44 207.27"/><polygon class="a5e31cf2-319f-4c97-b4a3-804a86479299" points="248.11 223.33 257.52 217.9 257.52 213.16 248.11 218.59 248.11 223.33"/><polygon class="a5e6c131-7ca1-4841-b208-199329bfc20f" points="226.04 236.08 243.84 225.8 243.84 221.06 226.04 231.34 226.04 236.08"/><polygon class="e3ffe00c-c75d-41e1-9d6e-b86b99916400" points="297.73 194.69 307.14 189.25 307.14 184.52 297.73 189.95 297.73 194.69"/><polygon class="bcef2fa3-5a38-4e35-89a2-a24826a8c9ce" points="284.05 202.59 293.46 197.15 293.46 192.41 284.05 197.85 284.05 202.59"/><polygon class="a04d7b65-4ab0-4c4d-b0b7-183cb0164c79" points="261.97 215.33 279.78 205.05 279.78 200.31 261.97 210.59 261.97 215.33"/><polygon class="e0867215-f50b-4097-bde6-10f4143a0f86" points="234.75 219.94 244.16 214.5 244.16 209.76 234.75 215.2 234.75 219.94"/><polygon class="efcec129-de67-4955-bf97-62e100b038f9" points="221.07 227.83 230.48 222.4 230.48 217.66 221.07 223.09 221.07 227.83"/><polygon class="e1a9a630-c34a-4c38-8385-3196bab23261" points="199 240.58 216.8 230.3 216.8 225.56 199 235.84 199 240.58"/><polygon class="beb99801-392f-4a82-97ca-96008d9662c4" points="297.73 216.91 307.14 211.48 307.14 206.74 297.73 212.17 297.73 216.91"/><polygon class="b22221a7-b6b7-45c8-b64e-b3482d72aa57" points="275.65 229.66 293.46 219.38 293.46 214.64 275.65 224.92 275.65 229.66"/><polygon class="e949d78e-6ab1-49ff-9d1c-83e73b98165c" points="242.02 182.4 251.43 176.97 251.43 172.23 242.02 177.66 242.02 182.4"/><polygon class="a9d99555-cb91-4572-8b6b-42b1520915f5" points="256.25 174.19 265.66 168.76 265.66 164.02 256.25 169.45 256.25 174.19"/><polygon class="a4745762-271a-403a-92db-22860b447fcb" points="219.95 195.15 237.75 184.87 237.75 180.13 219.95 190.41 219.95 195.15"/><polygon class="a14d4935-2a16-421a-8512-4412c43035ee" points="298.65 183.05 307.14 178.14 307.14 173.41 298.65 178.31 298.65 183.05"/><polygon class="ac56965a-6eb9-4d54-816e-22d5e3eee407" points="273.47 197.58 294.11 185.67 294.11 180.93 273.47 192.84 273.47 197.58"/><polygon class="aa26614b-85a4-4fab-ae7c-b25cfcd5e493" points="248.29 212.12 268.93 200.2 268.93 195.47 248.29 207.38 248.29 212.12"/><polygon class="b71d40f2-3a8b-4530-9cdd-07aef50f1d45" points="206.87 202.7 215.36 197.8 215.36 193.06 206.87 197.96 206.87 202.7"/><polygon class="b79e9f97-f01f-4ef3-8ce5-2f7e64c7b592" points="181.69 217.24 202.33 205.32 202.33 200.58 181.69 212.5 181.69 217.24"/><polygon class="ab567b34-c4e1-4427-ab96-5b05cd344c0e" points="156.51 231.77 177.15 219.86 177.15 215.12 156.51 227.03 156.51 231.77"/><polygon class="ff5e90f4-7e5b-4182-b4b1-65dff41eb310" points="286.32 212.39 306.95 200.47 306.95 195.73 286.32 207.65 286.32 212.39"/><polygon class="e5828151-6949-4e57-beae-36ec86f1cc32" points="275.44 218.67 281.78 215.01 281.78 210.27 275.44 213.93 275.44 218.67"/><polygon class="f1a2afc5-0b21-4328-a37e-69d0e0e0b3a6" points="264.54 224.96 270.87 221.3 270.87 216.56 264.54 220.22 264.54 224.96"/><polygon class="eb783e10-bc18-41cb-864b-bc52c8a7c3b0" points="244.38 236.6 259.97 227.6 259.97 222.86 244.38 231.86 244.38 236.6"/><polygon class="e358c837-bc97-46f0-bc27-41997bbb8037" points="240.14 239.05 255.73 230.04 255.73 225.31 240.14 234.31 240.14 239.05"/><polygon class="b3a3455b-20be-427a-ab60-471526a3a153" points="226.91 213.35 233.25 209.69 233.25 204.95 226.91 208.61 226.91 213.35"/><polygon class="f8d55549-8047-4e90-82dd-2ceedc8dbfc1" points="206.76 224.99 222.35 215.98 222.35 211.25 206.76 220.25 206.76 224.99"/><polygon class="b55281b7-319d-45c8-89d7-03128af562fa" points="202.52 227.43 218.12 218.43 218.12 213.69 202.52 222.69 202.52 227.43"/><polygon class="b0799c84-82e6-4684-8f8b-9c47b226c71e" points="316.97 216.91 323.31 213.25 323.31 208.51 316.97 212.17 316.97 216.91"/><polygon class="af107d57-dc48-4e4c-b074-84e1a102f49a" points="296.81 228.55 312.41 219.55 312.41 214.81 296.81 223.81 296.81 228.55"/><polygon class="beaf4ab1-dcea-459c-a06f-57b4e6b31dbc" points="276.22 240.44 291.81 231.44 291.81 226.7 276.22 235.7 276.22 240.44"/></g><path class="a6391611-7107-4626-bd60-ad506f67afb4" d="M10.26,181.16l0,5-4.42-2.66,0,6.37,3.83,2.25-.05,4.71L5.7,194.65l-.09,11.08-2-1.11.19-27.42Z"/><path class="b8c7f9e0-5ee2-4878-a318-1fd103c9da17" d="M15.45,183.69q1.92,1.19,3.05,5.81a43.12,43.12,0,0,1,1,10.78,27.58,27.58,0,0,1-1.32,9.26c-.82,2.07-1.86,2.76-3.13,2.05S12.73,209,12,206.05a42,42,0,0,1-1.09-10.81c.05-4.27.49-7.48,1.33-9.6S14.12,182.88,15.45,183.69Zm-.09,4.84c-.73-.44-1.32,0-1.78,1.45a22.75,22.75,0,0,0-.74,6.3,32.44,32.44,0,0,0,.56,7.11c.41,1.86,1,3,1.73,3.45s1.3-.08,1.74-1.47a23.59,23.59,0,0,0,.72-6.32,32.39,32.39,0,0,0-.53-7C16.65,190.15,16.09,189,15.36,188.53Z"/><path class="a05e7857-4312-4848-bd7f-ce2b0e20548f" d="M21.09,187.81l4.24,2.6a5.38,5.38,0,0,1,2,3.09,19.16,19.16,0,0,1,.66,6,17,17,0,0,1-.43,3.74,3,3,0,0,1-1,1.85c.7.87,1.07,3.11,1.09,6.69V213c0,.63,0,1.13,0,1.51s0,.84,0,1.38,0,1,.07,1.38a5.06,5.06,0,0,0,.15.87l-1.88-1c-.05-.42-.09-.93-.11-1.53s0-1.37,0-2.31v-1.55a18.73,18.73,0,0,0-.36-4,2.71,2.71,0,0,0-1.21-1.76l-1.64-.95-.19,10.14-1.84-1Zm1.78,5.71-.13,7.28,1.76,1c.51.3.91.28,1.21-.05a5.08,5.08,0,0,0,.49-2.69,8.48,8.48,0,0,0-.36-3,2.85,2.85,0,0,0-1.12-1.41Z"/><path class="b93610f1-c923-4e23-8b5b-cc089d2925ac" d="M35.71,196.77l-.12,4.61-4.32-2.61-.13,5.6,4,2.34L35,211.08,31,208.79,30.89,215l4.36,2.46-.12,4.6L29,218.7,29.58,193Z"/><path class="a0f28f71-1663-457c-acae-f9defd2f3f08" d="M43.45,201.52,40.58,212l2.33,14.43-2-1.12-1.46-9.53-2,7.62-2-1.09,3.15-11.46-2.26-13.66,2,1.25,1.35,9.1,1.81-7.16Z"/></g></g></g></svg>