<svg xmlns="http://www.w3.org/2000/svg" viewBox="0 0 99.98 99.98"><defs><style>.af53d9cf-1e61-4863-a15e-954f328b2063{fill:#e3c284;}.be543da1-1394-477c-8cdb-edef14754790{fill:#fff;}.e412a878-416f-4961-b18c-6333bd0a9620{fill:#eeeff1;}.e7c7160c-cf4e-4db9-9c71-45899a8e4dba{fill:#d1d3d4;}.b63e0c3b-9dee-4aa8-a1a7-eaf1c57c19cb{fill:#1c1d25;}</style></defs><title>Robot 10</title><g id="b01ef35b-b42d-40c8-a802-1f57fc344ab7" data-name="Слой 2"><g id="a844cba1-ecd8-4832-bfe0-fdb1c66e78af" data-name="Слой 1"><circle class="af53d9cf-1e61-4863-a15e-954f328b2063" cx="49.99" cy="49.99" r="49.99"/><path class="be543da1-1394-477c-8cdb-edef14754790" d="M50,76.34A25.52,25.52,0,0,0,26,93.88a50.07,50.07,0,0,0,47.9,0A25.52,25.52,0,0,0,50,76.34Z"/><path class="e412a878-416f-4961-b18c-6333bd0a9620" d="M50,73.85c-9,0-16.63,9.45-19,22.38a50.16,50.16,0,0,0,38.06,0C66.62,83.3,59,73.85,50,73.85Z"/><ellipse class="e7c7160c-cf4e-4db9-9c71-45899a8e4dba" cx="49.99" cy="76.24" rx="12.75" ry="4.88"/><rect class="e412a878-416f-4961-b18c-6333bd0a9620" x="21.29" y="24.69" width="2.04" height="23.51"/><rect class="e412a878-416f-4961-b18c-6333bd0a9620" x="76.65" y="24.69" width="2.04" height="23.51"/><circle class="e7c7160c-cf4e-4db9-9c71-45899a8e4dba" cx="24.96" cy="53.1" r="8.22"/><circle class="e7c7160c-cf4e-4db9-9c71-45899a8e4dba" cx="75.03" cy="53.1" r="8.22" transform="translate(-7.43 12.49) rotate(-9.07)"/><path class="e7c7160c-cf4e-4db9-9c71-45899a8e4dba" d="M49.53,30C34.73,30.19,23,42.57,23,57.37v11.5a7.38,7.38,0,0,0,7.38,7.39h39.2A7.39,7.39,0,0,0,77,68.87V56.93A27,27,0,0,0,49.53,30Z"/><path class="e412a878-416f-4961-b18c-6333bd0a9620" d="M49.53,27.05C34.73,27.3,23,39.68,23,54.48V67.84a5.52,5.52,0,0,0,5.52,5.52H71.45A5.53,5.53,0,0,0,77,67.84V54A27,27,0,0,0,49.53,27.05Z"/><path class="e7c7160c-cf4e-4db9-9c71-45899a8e4dba" d="M49.63,32C38.13,32.19,29,41.93,29,53.56V64.07a4.33,4.33,0,0,0,4.3,4.34H66.67A4.32,4.32,0,0,0,71,64.07V53.21A21.1,21.1,0,0,0,49.63,32Z"/><path class="b63e0c3b-9dee-4aa8-a1a7-eaf1c57c19cb" d="M49.63,33.75C38.13,33.94,29,43.68,29,55.31v8.76a4.33,4.33,0,0,0,4.3,4.34H66.67A4.32,4.32,0,0,0,71,64.07V55A21.09,21.09,0,0,0,49.63,33.75Z"/><circle class="e7c7160c-cf4e-4db9-9c71-45899a8e4dba" cx="22.31" cy="23.28" r="2.9" transform="translate(-3.46 3.9) rotate(-9.28)"/><circle class="e7c7160c-cf4e-4db9-9c71-45899a8e4dba" cx="77.67" cy="23.28" r="2.9"/><path class="af53d9cf-1e61-4863-a15e-954f328b2063" d="M46.14,44.54V61.39H42.5v-11H38.41V47.91h.43q3.84,0,4.48-3.37Z"/><path class="af53d9cf-1e61-4863-a15e-954f328b2063" d="M56.71,44.45A5.55,5.55,0,0,1,59.2,45,5,5,0,0,1,61,46.35a7.54,7.54,0,0,1,1.12,2,11,11,0,0,1,.61,2.31,17.17,17.17,0,0,1,.17,2.43,10.7,10.7,0,0,1-1.64,6.31,5.24,5.24,0,0,1-4.5,2.28,5.36,5.36,0,0,1-4.59-2.27,10.67,10.67,0,0,1-1.64-6.32A14.21,14.21,0,0,1,50.81,50a11.23,11.23,0,0,1,1-2.74,5.09,5.09,0,0,1,1.93-2.08A5.58,5.58,0,0,1,56.71,44.45Zm0,2.81a2.37,2.37,0,0,0-1.18.29,2.09,2.09,0,0,0-.8.86,7.64,7.64,0,0,0-.48,1.08A5.29,5.29,0,0,0,54,50.84c-.05.55-.07,1-.08,1.26s0,.68,0,1.16c0,3.77.94,5.65,2.84,5.65S59.5,57,59.5,53.09a10.79,10.79,0,0,0-.68-4.42A2.23,2.23,0,0,0,56.68,47.26Z"/></g></g></svg>